o convex_0
v -0.137328 0.007154 -0.001927
v -0.118919 0.017511 0.034899
v -0.118919 -0.007231 0.034899
v -0.145385 0.006576 0.036622
v -0.118919 -0.007231 0.002678
v -0.143082 -0.007231 0.003829
v -0.142507 0.018089 0.003829
v -0.118919 0.017511 0.002678
v -0.143079 -0.007231 0.033172
v -0.142507 0.018089 0.033172
v -0.145385 0.003704 -0.000197
v -0.120072 -0.003776 0.038352
v -0.121798 0.014059 0.038352
v -0.145385 0.015211 0.003829
v -0.145385 -0.004929 0.033172
v -0.137903 -0.004929 -0.000197
v -0.132154 0.004281 -0.001927
v -0.118919 0.018089 0.003829
v -0.138478 0.015211 -0.000197
v -0.145385 0.015211 0.033172
v -0.139628 -0.004354 0.036622
v -0.145385 -0.004929 0.003829
v -0.138478 0.015211 0.036622
v -0.125827 0.018089 0.034895
v -0.118919 0.012334 0.001526
v -0.129855 0.014634 -0.000197
v -0.118919 -0.002051 0.001526
v -0.143657 0.011181 -0.000197
v -0.119497 0.013484 0.038352
v -0.128127 -0.003201 -0.000197
v -0.143657 -0.000901 0.036622
v -0.143657 -0.000901 -0.000197
v -0.118919 0.018089 0.033743
v -0.122373 -0.003201 0.038352
v -0.143657 0.011181 0.036622
v -0.129853 -0.007231 0.034895
v -0.136177 0.002554 -0.001927
v -0.125824 0.018089 0.002678
v -0.133301 0.007726 -0.001927
v -0.124674 0.008304 -0.000200
v -0.131581 -0.004929 -0.000197
v -0.137903 -0.004929 0.036622
v -0.119497 -0.003201 0.038352
v -0.129855 -0.007231 0.002678
v -0.145385 0.006576 -0.000197
v -0.140781 -0.003776 -0.000197
v -0.126402 0.011759 -0.000200
f 25 40 47 
f 2 3 5 
f 5 3 6 
f 2 5 8 
f 6 3 9 
f 10 7 14 
f 11 4 14 
f 6 9 15 
f 4 11 15 
f 2 8 18 
f 7 10 18 
f 14 4 20 
f 10 14 20 
f 6 15 22 
f 15 11 22 
f 13 2 24 
f 18 10 24 
f 10 23 24 
f 23 13 24 
f 8 5 25 
f 25 5 27 
f 14 7 28 
f 19 1 28 
f 7 19 28 
f 3 2 29 
f 2 13 29 
f 13 12 29 
f 27 5 30 
f 17 27 30 
f 4 15 31 
f 15 9 31 
f 9 21 31 
f 22 11 32 
f 2 18 33 
f 24 2 33 
f 18 24 33 
f 13 4 34 
f 12 13 34 
f 4 31 34 
f 31 21 34 
f 4 13 35 
f 20 4 35 
f 10 20 35 
f 23 10 35 
f 13 23 35 
f 9 3 36 
f 3 12 36 
f 11 1 37 
f 1 17 37 
f 32 11 37 
f 18 8 38 
f 7 18 38 
f 19 7 38 
f 26 19 38 
f 8 26 38 
f 17 1 39 
f 1 19 39 
f 19 26 39 
f 27 17 40 
f 25 27 40 
f 17 39 40 
f 5 16 41 
f 30 5 41 
f 17 30 41 
f 37 17 41 
f 16 37 41 
f 21 9 42 
f 12 34 42 
f 34 21 42 
f 9 36 42 
f 36 12 42 
f 12 3 43 
f 3 29 43 
f 29 12 43 
f 5 6 44 
f 16 5 44 
f 6 16 44 
f 1 11 45 
f 11 14 45 
f 28 1 45 
f 14 28 45 
f 16 6 46 
f 6 22 46 
f 22 32 46 
f 37 16 46 
f 32 37 46 
f 8 25 47 
f 26 8 47 
f 39 26 47 
f 40 39 47 
o convex_1
v -0.090721 0.016935 -0.007683
v -0.118917 -0.015288 -0.001354
v -0.118917 -0.015288 0.019938
v -0.118917 0.020388 0.019938
v -0.090147 -0.014709 0.019938
v -0.090721 0.020966 0.019938
v -0.118340 0.019238 -0.005958
v -0.088993 -0.010107 -0.007683
v -0.118917 -0.009532 -0.008260
v -0.090721 -0.015288 -0.002505
v -0.090721 0.020966 -0.001928
v -0.118917 0.015210 -0.008260
v -0.088993 0.008301 -0.008260
v -0.118340 0.020966 -0.002505
v -0.088993 0.010607 0.009579
v -0.118340 -0.013560 -0.005958
v -0.088993 -0.012410 0.006700
v -0.090721 -0.010107 -0.008260
v -0.090721 -0.015288 0.019938
v -0.118340 0.020966 0.019938
v -0.090147 0.019813 0.019938
v -0.088993 0.012328 -0.004807
v -0.091298 -0.012410 -0.007109
v -0.091298 0.019238 -0.005958
v -0.088993 -0.007804 0.010727
v -0.091298 0.015785 -0.008260
v -0.090147 0.019813 -0.003079
v -0.091298 -0.014709 -0.004230
v -0.118340 -0.014709 -0.004230
v -0.118917 0.020388 -0.003079
v -0.118340 -0.012410 -0.007109
v -0.118340 0.016935 -0.007683
v -0.088993 -0.012410 -0.004230
f 64 52 80 
f 49 50 51 
f 51 50 52 
f 51 52 53 
f 49 51 56 
f 50 49 57 
f 56 51 59 
f 56 59 60 
f 53 58 61 
f 55 60 62 
f 49 56 63 
f 55 62 64 
f 56 60 65 
f 60 55 65 
f 52 50 66 
f 50 57 66 
f 57 52 66 
f 51 53 67 
f 61 51 67 
f 53 61 67 
f 53 52 68 
f 58 53 68 
f 68 62 69 
f 62 60 69 
f 65 55 70 
f 48 54 71 
f 61 58 71 
f 54 61 71 
f 52 64 72 
f 64 62 72 
f 68 52 72 
f 62 68 72 
f 60 59 73 
f 48 60 73 
f 60 48 74 
f 58 68 74 
f 68 69 74 
f 69 60 74 
f 48 71 74 
f 71 58 74 
f 55 57 75 
f 70 55 75 
f 63 70 75 
f 57 49 76 
f 49 63 76 
f 75 57 76 
f 63 75 76 
f 54 59 77 
f 59 51 77 
f 51 61 77 
f 61 54 77 
f 63 56 78 
f 56 65 78 
f 70 63 78 
f 65 70 78 
f 54 48 79 
f 59 54 79 
f 48 73 79 
f 73 59 79 
f 57 55 80 
f 52 57 80 
f 55 64 80 
o convex_2
v 0.005378 -0.008954 -0.011712
v 0.002503 0.012332 -0.001932
v 0.002503 0.012332 -0.008259
v -0.088993 -0.012408 -0.004231
v -0.088993 0.010031 -0.007683
v -0.033177 -0.012408 0.002099
v -0.088993 0.012332 0.002097
v 0.012288 -0.002625 0.000372
v -0.042378 -0.007804 -0.012288
v 0.004228 0.008304 -0.012288
v -0.088993 -0.012408 0.002097
v -0.029152 0.011758 0.002099
v 0.001928 -0.012408 -0.008259
v -0.041218 0.008880 -0.012288
v -0.088993 -0.008378 -0.008257
v 0.005953 -0.011258 0.000371
v 0.011703 0.003699 -0.009409
v 0.007103 0.010605 0.000372
v -0.041218 -0.011834 -0.009985
v -0.041218 0.012332 -0.008835
v 0.011128 -0.006079 -0.008259
v -0.088993 0.012332 -0.004807
v 0.008253 -0.004352 -0.012288
v -0.004982 0.008304 0.001523
v -0.088993 0.008304 -0.008257
v -0.007857 -0.009531 0.001523
v 0.003653 0.010607 -0.011136
v 0.011703 0.004852 0.000372
v 0.009978 0.007730 -0.008833
v 0.002503 -0.010107 -0.011712
v -0.088993 -0.010107 -0.007683
v -0.041218 -0.008954 -0.012288
v 0.002503 -0.012408 -0.001932
v -0.041803 0.011758 -0.009985
v -0.023402 -0.008378 0.002099
v 0.008253 -0.009531 -0.008833
v -0.032602 0.012332 0.002099
v 0.009978 -0.007804 0.000372
v 0.009978 0.003123 -0.011710
v 0.012288 -0.002051 -0.008833
v -0.040653 -0.012408 -0.008835
v 0.002503 -0.008954 -0.012288
v 0.001928 -0.011834 -0.009985
v -0.088993 -0.011834 -0.005956
v -0.041803 -0.010107 -0.011710
v -0.041803 0.010031 -0.011710
v 0.005953 0.011181 -0.008259
v 0.004803 0.011758 -0.000204
v 0.002503 0.011758 -0.009985
v -0.042378 0.007730 -0.012288
v 0.012288 0.003123 -0.007107
v 0.010553 -0.003776 -0.011136
v -0.023402 0.008304 0.002099
v 0.008828 0.007730 -0.010560
v -0.088993 0.011758 -0.005956
v 0.003078 0.010031 -0.011712
v 0.005953 -0.011258 -0.007683
v 0.010553 0.007153 0.000372
v -0.004982 0.009457 0.001523
v 0.012288 0.003123 0.000372
v 0.008828 -0.007804 -0.010560
f 132 101 141 
f 82 83 87 
f 85 84 87 
f 84 86 91 
f 87 84 91 
f 86 87 91 
f 86 84 93 
f 90 89 94 
f 84 85 95 
f 87 83 100 
f 85 87 102 
f 87 100 102 
f 89 90 103 
f 85 94 105 
f 95 85 105 
f 89 95 105 
f 86 96 106 
f 88 104 106 
f 84 95 111 
f 95 89 112 
f 89 103 112 
f 111 95 112 
f 86 93 113 
f 96 86 113 
f 102 100 114 
f 92 86 115 
f 86 106 115 
f 106 104 115 
f 87 86 117 
f 82 87 117 
f 86 92 117 
f 101 88 118 
f 88 106 118 
f 106 96 118 
f 96 116 118 
f 116 101 118 
f 103 90 119 
f 88 101 120 
f 119 97 120 
f 93 84 121 
f 103 81 122 
f 81 110 122 
f 112 103 122 
f 110 112 122 
f 110 81 123 
f 99 110 123 
f 81 116 123 
f 93 121 123 
f 121 99 123 
f 84 111 124 
f 121 84 124 
f 99 121 124 
f 110 99 125 
f 111 112 125 
f 112 110 125 
f 124 111 125 
f 99 124 125 
f 94 85 126 
f 85 114 126 
f 98 109 127 
f 83 82 128 
f 82 117 128 
f 117 98 128 
f 127 83 128 
f 98 127 128 
f 100 83 129 
f 114 100 129 
f 107 114 129 
f 83 127 129 
f 127 107 129 
f 94 89 130 
f 105 94 130 
f 89 105 130 
f 97 109 131 
f 109 108 131 
f 88 120 131 
f 120 97 131 
f 103 119 132 
f 120 101 132 
f 119 120 132 
f 92 115 133 
f 115 104 133 
f 90 107 134 
f 109 97 134 
f 97 119 134 
f 119 90 134 
f 107 127 134 
f 127 109 134 
f 85 102 135 
f 114 85 135 
f 102 114 135 
f 90 94 136 
f 107 90 136 
f 114 107 136 
f 94 126 136 
f 126 114 136 
f 113 93 137 
f 96 113 137 
f 116 96 137 
f 93 123 137 
f 123 116 137 
f 109 98 138 
f 108 109 138 
f 104 88 139 
f 117 92 139 
f 98 117 139 
f 92 133 139 
f 133 104 139 
f 138 98 139 
f 108 138 139 
f 88 131 140 
f 131 108 140 
f 139 88 140 
f 108 139 140 
f 81 103 141 
f 101 116 141 
f 116 81 141 
f 103 132 141 
o convex_3
v -0.088990 -0.012408 0.040651
v -0.024542 0.012332 0.045257
v -0.033752 0.011758 0.046408
v -0.088990 0.010607 0.026846
v -0.044685 -0.010107 0.025692
v -0.024542 -0.011834 0.046406
v -0.088990 0.008304 0.044680
v -0.025696 0.009457 0.033750
v -0.088990 -0.010683 0.026846
v -0.049864 0.012332 0.025692
v -0.041234 -0.008954 0.048711
v -0.088990 0.012332 0.041228
v -0.024542 -0.012408 0.038353
v -0.067699 -0.012408 0.025695
v -0.024542 0.008880 0.048711
v -0.088990 -0.008378 0.044680
v -0.024542 -0.009531 0.034327
v -0.088990 0.008304 0.025695
v -0.041234 0.008880 0.048711
v -0.042963 0.007730 0.025692
v -0.088990 0.012332 0.029147
v -0.024542 0.012332 0.037778
v -0.024542 -0.008954 0.048711
v -0.049864 -0.012408 0.025692
v -0.088990 -0.011834 0.042379
v -0.088990 -0.008378 0.025695
v -0.088990 -0.012408 0.029723
v -0.027425 -0.007804 0.032598
v -0.088990 0.010031 0.044105
v -0.041808 -0.012408 0.044682
v -0.041808 -0.010107 0.048132
v -0.042963 -0.007804 0.025692
v -0.067699 0.012332 0.025695
v -0.041808 0.011758 0.046408
v -0.025122 0.008304 0.033750
v -0.041234 -0.011834 0.046408
v -0.026270 -0.011258 0.034901
v -0.046413 0.011181 0.025692
v -0.041808 0.008304 0.048711
v -0.041808 0.010031 0.048132
v -0.025122 0.011758 0.036052
v -0.024542 -0.012408 0.044682
v -0.088990 -0.010683 0.043528
v -0.088990 0.011758 0.042379
v -0.024542 0.009457 0.034327
v -0.041234 0.012332 0.045257
v -0.041808 -0.008378 0.048711
v -0.024542 0.010031 0.048132
v -0.027425 0.007730 0.032598
f 176 169 190 
f 145 142 148 
f 142 145 150 
f 145 148 153 
f 143 151 153 
f 143 147 154 
f 154 142 155 
f 147 143 156 
f 148 142 157 
f 143 154 158 
f 150 145 159 
f 152 156 160 
f 146 151 161 
f 145 153 162 
f 153 151 162 
f 151 143 163 
f 143 158 163 
f 147 156 164 
f 156 152 164 
f 151 146 165 
f 154 155 165 
f 159 151 165 
f 157 142 166 
f 155 150 167 
f 150 159 167 
f 165 155 167 
f 159 165 167 
f 142 150 168 
f 155 142 168 
f 150 155 168 
f 153 148 170 
f 148 160 170 
f 142 154 171 
f 166 142 171 
f 152 157 172 
f 147 164 172 
f 164 152 172 
f 158 146 173 
f 146 161 173 
f 169 158 173 
f 161 169 173 
f 159 145 174 
f 151 159 174 
f 145 162 174 
f 162 151 174 
f 144 143 175 
f 158 169 176 
f 166 171 177 
f 172 166 177 
f 147 172 177 
f 146 158 178 
f 158 154 178 
f 165 146 178 
f 154 165 178 
f 161 151 179 
f 149 161 179 
f 148 157 180 
f 160 148 180 
f 152 160 180 
f 160 156 181 
f 170 160 181 
f 144 175 181 
f 175 170 181 
f 151 163 182 
f 179 151 182 
f 149 179 182 
f 154 147 183 
f 171 154 183 
f 147 177 183 
f 177 171 183 
f 157 166 184 
f 166 172 184 
f 172 157 184 
f 153 170 185 
f 175 153 185 
f 170 175 185 
f 163 158 186 
f 176 149 186 
f 158 176 186 
f 182 163 186 
f 149 182 186 
f 143 153 187 
f 175 143 187 
f 153 175 187 
f 157 152 188 
f 180 157 188 
f 152 180 188 
f 143 144 189 
f 156 143 189 
f 144 181 189 
f 181 156 189 
f 161 149 190 
f 169 161 190 
f 149 176 190 
o convex_4
v -0.090147 0.014058 0.044681
v -0.118917 -0.015288 0.019941
v -0.101652 -0.015288 0.019938
v -0.102230 0.020964 0.019938
v -0.118917 0.021538 0.040651
v -0.113735 -0.007804 0.048708
v -0.090147 -0.014709 0.040076
v -0.090147 0.019814 0.019938
v -0.118917 0.020389 0.019941
v -0.090147 -0.014709 0.019938
v -0.118917 -0.014709 0.040076
v -0.091872 0.022117 0.040076
v -0.088993 -0.008379 0.044681
v -0.109133 0.004271 0.048708
v -0.088993 0.010602 0.026846
v -0.117189 0.016361 0.044103
v -0.118917 -0.008379 0.044678
v -0.118917 0.022117 0.035472
v -0.090721 -0.015288 0.038350
v -0.088993 0.012334 0.041228
v -0.088993 -0.012410 0.029721
v -0.113735 0.004271 0.048708
v -0.108556 -0.007804 0.048708
v -0.090147 0.016361 0.044103
v -0.090721 0.020964 0.019938
v -0.118917 -0.015288 0.038350
v -0.090147 0.019814 0.041228
v -0.090147 -0.014134 0.041228
v -0.088993 0.008303 0.044681
v -0.118340 0.020964 0.019941
v -0.091872 0.022117 0.035472
v -0.088993 -0.008379 0.025694
v -0.090721 -0.015288 0.019938
v -0.118917 -0.014134 0.041225
v -0.090147 -0.011831 0.043529
v -0.118917 0.018661 0.042377
v -0.118917 0.022117 0.040076
v -0.088993 -0.011831 0.042377
v -0.091295 0.021538 0.040651
v -0.117189 0.014058 0.044678
v -0.108556 0.002554 0.048708
v -0.118917 -0.011831 0.043529
f 224 196 232 
f 193 192 194 
f 193 194 198 
f 194 192 199 
f 192 195 199 
f 193 198 200 
f 195 192 201 
f 195 201 207 
f 199 195 208 
f 192 193 209 
f 200 197 209 
f 197 201 209 
f 205 198 210 
f 203 205 210 
f 197 200 211 
f 205 203 211 
f 196 204 212 
f 204 206 212 
f 207 196 212 
f 204 196 213 
f 204 191 214 
f 195 206 214 
f 206 204 214 
f 198 194 215 
f 194 208 215 
f 201 192 216 
f 192 209 216 
f 209 201 216 
f 210 198 217 
f 198 215 217 
f 201 197 218 
f 213 196 218 
f 203 210 219 
f 213 203 219 
f 214 191 219 
f 210 217 219 
f 217 214 219 
f 194 199 220 
f 208 194 220 
f 199 208 220 
f 208 202 221 
f 202 215 221 
f 215 208 221 
f 200 198 222 
f 198 205 222 
f 211 200 222 
f 205 211 222 
f 193 200 223 
f 209 193 223 
f 200 209 223 
f 207 201 224 
f 218 196 224 
f 201 218 224 
f 203 213 225 
f 213 218 225 
f 206 195 226 
f 195 207 226 
f 195 202 227 
f 208 195 227 
f 202 208 227 
f 197 211 228 
f 211 203 228 
f 218 197 228 
f 203 225 228 
f 225 218 228 
f 202 195 229 
f 195 214 229 
f 215 202 229 
f 214 217 229 
f 217 215 229 
f 212 206 230 
f 207 212 230 
f 206 226 230 
f 226 207 230 
f 191 204 231 
f 204 213 231 
f 219 191 231 
f 213 219 231 
f 196 207 232 
f 207 224 232 
o convex_5
v -0.024542 -0.012408 0.038353
v 0.002504 0.012332 0.040655
v 0.003080 0.011758 0.041807
v 0.008257 -0.009531 0.036051
v -0.011307 -0.004926 0.052739
v -0.024542 0.010031 0.034901
v -0.021661 0.006003 0.052739
v 0.012288 0.003125 0.036051
v -0.024542 -0.011834 0.046408
v -0.024542 0.012332 0.045255
v -0.024542 -0.008954 0.034324
v 0.003654 -0.011834 0.041230
v -0.010731 0.006003 0.052739
v 0.010561 -0.004350 0.040080
v -0.004977 0.009457 0.034901
v 0.009407 0.006003 0.040655
v 0.004804 0.011758 0.036628
v -0.021661 -0.004350 0.052739
v -0.007277 -0.011834 0.046408
v -0.024542 0.012332 0.037778
v -0.006700 0.011758 0.046408
v 0.005954 -0.011258 0.036051
v -0.024542 0.008880 0.048710
v -0.007854 -0.009531 0.034901
v 0.005380 -0.009531 0.042382
v 0.002504 -0.012408 0.040080
v -0.023965 0.008880 0.034324
v 0.007107 0.010607 0.036051
v 0.011711 -0.004926 0.036051
v -0.024542 -0.012408 0.044680
v -0.024542 -0.010107 0.048133
v -0.021088 0.006579 0.052739
v 0.005380 0.009457 0.042382
v -0.024542 -0.011834 0.036628
v -0.010731 -0.004350 0.052739
v 0.009407 -0.008378 0.038930
v 0.008834 0.008880 0.039505
v 0.012288 0.000824 0.038353
v 0.002504 -0.012408 0.038353
v -0.000373 -0.010683 0.044682
v -0.006127 -0.012408 0.044680
v -0.024542 0.011758 0.046408
v -0.006700 0.012332 0.045255
v 0.002504 0.011181 0.042957
v 0.010561 0.004276 0.040080
v 0.010561 0.007153 0.036051
v 0.002504 0.012332 0.038353
v -0.022815 -0.007804 0.034324
v -0.011881 0.006579 0.052739
v -0.007854 -0.010107 0.048133
v -0.023965 -0.010107 0.034901
v 0.011134 0.005429 0.038930
v 0.008257 -0.007227 0.041230
v -0.024542 -0.008954 0.048710
v -0.024542 0.011758 0.036628
f 252 249 287 
f 238 233 241 
f 238 241 242 
f 233 238 243 
f 239 237 245 
f 247 238 249 
f 237 239 250 
f 242 234 252 
f 238 242 252 
f 242 241 255 
f 250 239 255 
f 236 254 256 
f 254 244 258 
f 243 238 259 
f 238 247 259 
f 234 235 260 
f 249 234 260 
f 247 249 260 
f 247 240 261 
f 236 256 261 
f 256 247 261 
f 241 233 262 
f 251 241 262 
f 233 258 262 
f 237 250 263 
f 241 251 263 
f 255 241 263 
f 239 245 264 
f 255 239 264 
f 245 248 265 
f 233 243 266 
f 245 237 267 
f 246 245 267 
f 254 236 268 
f 244 254 268 
f 257 244 268 
f 261 246 268 
f 236 261 268 
f 260 235 269 
f 235 265 269 
f 265 248 269 
f 261 240 270 
f 246 261 270 
f 258 233 271 
f 254 258 271 
f 233 266 271 
f 266 254 271 
f 251 244 272 
f 244 257 272 
f 267 237 272 
f 257 267 272 
f 244 251 273 
f 258 244 273 
f 251 262 273 
f 262 258 273 
f 253 242 274 
f 242 255 274 
f 264 253 274 
f 255 264 274 
f 235 234 275 
f 234 242 275 
f 253 235 275 
f 242 253 275 
f 235 253 276 
f 253 245 276 
f 265 235 276 
f 245 265 276 
f 245 246 277 
f 248 245 277 
f 246 270 277 
f 240 247 278 
f 247 260 278 
f 260 269 278 
f 234 249 279 
f 252 234 279 
f 249 252 279 
f 247 256 280 
f 256 243 280 
f 243 259 280 
f 259 247 280 
f 245 253 281 
f 264 245 281 
f 253 264 281 
f 237 263 282 
f 263 251 282 
f 272 237 282 
f 251 272 282 
f 243 256 283 
f 256 254 283 
f 266 243 283 
f 254 266 283 
f 269 248 284 
f 270 240 284 
f 248 277 284 
f 277 270 284 
f 240 278 284 
f 278 269 284 
f 246 267 285 
f 267 257 285 
f 257 268 285 
f 268 246 285 
f 250 255 286 
f 263 250 286 
f 255 263 286 
f 249 238 287 
f 238 252 287 
o convex_6
v -0.030300 -0.011258 0.003251
v -0.033752 0.012332 0.002675
v -0.030876 0.011758 0.002675
v -0.050446 0.012332 0.011305
v -0.088993 -0.012408 0.002100
v -0.067128 -0.012408 0.011305
v -0.088993 0.012332 0.007277
v -0.088993 0.012332 0.002100
v -0.088993 -0.007804 0.010729
v -0.044687 -0.008954 0.011305
v -0.025117 0.008304 0.002100
v -0.088993 0.007730 0.010729
v -0.034327 -0.012408 0.002100
v -0.044687 0.008880 0.011305
v -0.025117 -0.008378 0.002675
v -0.050446 -0.012408 0.011305
v -0.067128 0.012332 0.011305
v -0.088993 -0.011258 0.009003
v -0.027424 0.007730 0.003826
v -0.072874 0.008880 0.011305
v -0.033752 0.012332 0.002100
v -0.025699 0.009457 0.002675
v -0.088993 -0.012408 0.006702
v -0.042955 -0.007804 0.010729
v -0.088993 0.010607 0.009579
v -0.025117 -0.008378 0.002100
v -0.072874 -0.008954 0.011305
v -0.042955 0.007730 0.010729
v -0.046413 0.010607 0.011305
v -0.028575 0.011181 0.002675
v -0.029150 -0.010107 0.003826
v -0.027424 -0.007804 0.003826
v -0.047564 -0.011258 0.011305
f 318 297 320 
f 290 289 291 
f 291 289 294 
f 292 294 295 
f 294 289 295 
f 294 292 296 
f 291 293 297 
f 292 295 298 
f 294 296 299 
f 293 292 300 
f 292 298 300 
f 291 297 301 
f 297 293 303 
f 300 288 303 
f 293 300 303 
f 293 291 304 
f 291 294 304 
f 293 296 305 
f 296 292 305 
f 299 296 307 
f 293 304 307 
f 304 299 307 
f 289 290 308 
f 295 289 308 
f 298 295 308 
f 302 298 309 
f 301 306 309 
f 306 302 309 
f 292 293 310 
f 305 292 310 
f 293 305 310 
f 301 297 311 
f 294 299 312 
f 304 294 312 
f 299 304 312 
f 288 300 313 
f 300 298 313 
f 298 302 313 
f 302 288 313 
f 296 293 314 
f 293 307 314 
f 307 296 314 
f 306 301 315 
f 301 311 315 
f 311 306 315 
f 291 301 316 
f 301 309 316 
f 316 309 317 
f 290 291 317 
f 308 290 317 
f 298 308 317 
f 309 298 317 
f 291 316 317 
f 288 302 318 
f 302 297 318 
f 297 302 319 
f 302 306 319 
f 311 297 319 
f 306 311 319 
f 303 288 320 
f 297 303 320 
f 288 318 320 
o convex_7
v -0.068274 -0.011834 0.011306
v -0.051015 0.012332 0.012458
v -0.051015 0.012332 0.011306
v -0.045834 -0.008954 0.011882
v -0.068274 0.008880 0.019938
v -0.049864 -0.010107 0.019938
v -0.071729 0.008880 0.011306
v -0.049864 0.010031 0.019938
v -0.067699 -0.010107 0.019938
v -0.064819 0.012332 0.019938
v -0.045834 0.008880 0.011306
v -0.051015 -0.012408 0.011306
v -0.064244 -0.012408 0.019938
v -0.071729 -0.008954 0.011882
v -0.066548 0.012332 0.011306
v -0.053319 -0.012408 0.019938
v -0.052743 0.012332 0.019938
v -0.049288 0.008880 0.019938
v -0.048140 -0.011258 0.011306
v -0.049288 -0.008954 0.019938
v -0.068274 -0.008378 0.019938
v -0.066548 -0.012408 0.011306
v -0.048140 0.011181 0.011882
v -0.071729 0.008880 0.011882
v -0.045834 0.008880 0.011882
v -0.069425 0.011181 0.011882
v -0.071729 -0.008954 0.011306
v -0.065973 -0.011834 0.019938
f 342 333 348 
f 323 321 327 
f 325 326 328 
f 326 325 329 
f 322 323 330 
f 325 328 330 
f 321 323 331 
f 321 331 332 
f 326 329 333 
f 323 327 335 
f 330 323 335 
f 326 333 336 
f 333 332 336 
f 322 330 337 
f 330 328 337 
f 328 326 338 
f 324 326 339 
f 331 324 339 
f 332 331 339 
f 326 336 339 
f 336 332 339 
f 326 324 340 
f 324 338 340 
f 338 326 340 
f 329 325 341 
f 325 334 341 
f 334 329 341 
f 321 332 342 
f 332 333 342 
f 323 322 343 
f 331 323 343 
f 322 337 343 
f 337 328 343 
f 325 330 344 
f 327 334 344 
f 334 325 344 
f 324 331 345 
f 338 324 345 
f 328 338 345 
f 331 343 345 
f 343 328 345 
f 335 327 346 
f 330 335 346 
f 344 330 346 
f 327 344 346 
f 327 321 347 
f 321 334 347 
f 334 327 347 
f 333 329 348 
f 334 321 348 
f 329 334 348 
f 321 342 348 
o convex_8
v -0.070000 -0.011258 0.025692
v -0.050439 0.012332 0.025692
v -0.048713 0.011758 0.025692
v -0.049290 -0.008954 0.019938
v -0.067699 0.010031 0.019938
v -0.044683 -0.008954 0.025692
v -0.072878 0.008880 0.025692
v -0.065972 -0.011834 0.019938
v -0.049865 0.010031 0.019938
v -0.073456 -0.007227 0.025117
v -0.050439 -0.012408 0.025692
v -0.044683 0.008880 0.025117
v -0.064823 0.012332 0.019938
v -0.067121 0.012332 0.025692
v -0.053315 -0.012408 0.019938
v -0.068273 -0.008954 0.019938
v -0.052743 0.012332 0.019938
v -0.067121 -0.012408 0.025692
v -0.073456 0.007730 0.025117
v -0.044683 -0.008954 0.025117
v -0.049290 0.008880 0.019938
v -0.068273 0.008880 0.019938
v -0.072878 -0.008954 0.025692
v -0.044683 0.008880 0.025692
v -0.071152 0.010607 0.025117
v -0.064243 -0.012408 0.019938
v -0.051589 -0.011834 0.019938
f 352 368 375 
f 351 350 349 
f 351 349 354 
f 349 350 355 
f 353 352 356 
f 352 353 357 
f 354 349 359 
f 357 353 361 
f 355 350 362 
f 350 361 362 
f 356 352 363 
f 353 356 364 
f 350 351 365 
f 351 360 365 
f 360 357 365 
f 361 350 365 
f 357 361 365 
f 349 356 366 
f 359 349 366 
f 363 359 366 
f 358 355 367 
f 364 358 367 
f 354 359 368 
f 360 354 368 
f 352 360 368 
f 352 357 369 
f 360 352 369 
f 357 360 369 
f 353 364 370 
f 367 353 370 
f 364 367 370 
f 349 355 371 
f 356 349 371 
f 355 358 371 
f 364 356 371 
f 358 364 371 
f 351 354 372 
f 360 351 372 
f 354 360 372 
f 361 353 373 
f 355 362 373 
f 362 361 373 
f 353 367 373 
f 367 355 373 
f 356 363 374 
f 366 356 374 
f 363 366 374 
f 363 352 375 
f 359 363 375 
f 368 359 375 
