o convex_0
v 0.006406 -0.024467 0.029645
v 0.006406 -0.012652 0.034427
v 0.006689 -0.012935 0.034427
v -0.010190 -0.021654 0.034427
v -0.009345 -0.014905 0.029645
v 0.006969 -0.015186 0.029645
v 0.007812 -0.020810 0.034427
v -0.007656 -0.025593 0.029645
v -0.009063 -0.012652 0.034427
v 0.005844 -0.022216 0.034427
v 0.008378 -0.017436 0.029645
v -0.010190 -0.021654 0.029645
v 0.005001 -0.025593 0.029926
v -0.010190 -0.014623 0.034145
v -0.009625 -0.022216 0.034427
v 0.008378 -0.015467 0.034427
v 0.008096 -0.021091 0.029645
v -0.010190 -0.016030 0.029645
v 0.006406 -0.012652 0.034145
v 0.006406 -0.014905 0.029645
v 0.008378 -0.018560 0.034427
v -0.007656 -0.025593 0.029926
v -0.009063 -0.012652 0.034145
v 0.007812 -0.014061 0.034145
v 0.007812 -0.022216 0.029926
f 17 21 25 
f 3 2 4 
f 1 5 6 
f 3 4 7 
f 5 1 8 
f 4 2 9 
f 7 4 10 
f 1 6 11 
f 5 8 12 
f 8 4 12 
f 1 7 13 
f 8 1 13 
f 7 10 13 
f 4 9 14 
f 12 4 14 
f 10 4 15 
f 13 10 15 
f 3 7 16 
f 1 11 17 
f 5 12 18 
f 12 14 18 
f 2 3 19 
f 9 2 19 
f 6 5 20 
f 5 19 20 
f 19 6 20 
f 16 7 21 
f 11 16 21 
f 17 11 21 
f 4 8 22 
f 8 13 22 
f 15 4 22 
f 13 15 22 
f 14 9 23 
f 5 18 23 
f 18 14 23 
f 19 5 23 
f 9 19 23 
f 11 6 24 
f 3 16 24 
f 16 11 24 
f 19 3 24 
f 6 19 24 
f 7 1 25 
f 1 17 25 
f 21 7 25 
o convex_1
v 0.007251 -0.022498 0.006856
v 0.006126 -0.012090 0.002074
v 0.006407 -0.014904 0.007419
v -0.010188 -0.021654 0.001793
v -0.009906 -0.015466 0.007419
v -0.009063 -0.012090 0.001793
v 0.007814 -0.020810 0.001793
v -0.007936 -0.023906 0.007419
v 0.005844 -0.022217 0.001793
v 0.008376 -0.017435 0.007419
v 0.005562 -0.023906 0.007419
v 0.008376 -0.015185 0.001793
v -0.010188 -0.021654 0.007419
v -0.009345 -0.014904 0.007419
v -0.010188 -0.014059 0.001793
v -0.009625 -0.022217 0.001793
v 0.007251 -0.012934 0.001793
v 0.008096 -0.020810 0.007419
v 0.008376 -0.018559 0.001793
v 0.005562 -0.023906 0.007137
v -0.009063 -0.012090 0.002074
v 0.007814 -0.016029 0.007419
v -0.010188 -0.016029 0.007419
v -0.007936 -0.023906 0.007137
v 0.006687 -0.021936 0.001793
f 45 34 50 
f 29 31 32 
f 28 30 33 
f 29 32 34 
f 28 33 35 
f 35 33 36 
f 32 31 37 
f 29 33 38 
f 33 30 38 
f 28 27 39 
f 30 28 39 
f 31 29 40 
f 29 38 40 
f 29 34 41 
f 31 27 42 
f 37 31 42 
f 26 32 43 
f 35 36 43 
f 36 26 43 
f 32 37 44 
f 37 35 44 
f 43 32 44 
f 35 43 44 
f 36 33 45 
f 26 36 45 
f 41 34 45 
f 27 31 46 
f 39 27 46 
f 30 39 46 
f 31 40 46 
f 40 30 46 
f 27 28 47 
f 28 35 47 
f 35 37 47 
f 42 27 47 
f 37 42 47 
f 38 30 48 
f 30 40 48 
f 40 38 48 
f 33 29 49 
f 29 41 49 
f 45 33 49 
f 41 45 49 
f 32 26 50 
f 34 32 50 
f 26 45 50 
o convex_2
v 0.005564 -0.026438 0.029644
v 0.006408 -0.014903 0.029644
v 0.006408 -0.014903 0.007421
v -0.010188 -0.016032 0.029644
v -0.008220 -0.041348 0.010236
v -0.009345 -0.014906 0.007421
v 0.005844 -0.041348 0.025703
v -0.007938 -0.041348 0.027671
v 0.005283 -0.041348 0.011080
v 0.008096 -0.021095 0.007421
v 0.008376 -0.017437 0.029644
v -0.010188 -0.021657 0.007421
v -0.010188 -0.021657 0.029644
v -0.009345 -0.014906 0.029644
v 0.003594 -0.041348 0.027671
v 0.003032 -0.040784 0.009953
v -0.008501 -0.041348 0.027110
v -0.007656 -0.024470 0.007421
v 0.006126 -0.039940 0.012768
v 0.008096 -0.016593 0.007421
v -0.007656 -0.027002 0.029644
v 0.008096 -0.021377 0.029359
v 0.005001 -0.024470 0.007421
v -0.010188 -0.016032 0.007421
v -0.008501 -0.041348 0.010797
v 0.008376 -0.018563 0.007421
v 0.007814 -0.016032 0.029644
v -0.007656 -0.040784 0.009953
v 0.006126 -0.039940 0.024859
v 0.004437 -0.041348 0.027391
v 0.004157 -0.041348 0.010236
v 0.003312 -0.039658 0.027954
v 0.007814 -0.022221 0.029644
v 0.005844 -0.041348 0.012205
v 0.006971 -0.015185 0.007421
v 0.004719 -0.027002 0.029644
v 0.007533 -0.022503 0.007421
v -0.007656 -0.039658 0.027954
v 0.008096 -0.021377 0.008265
v 0.008376 -0.018563 0.029644
v -0.009908 -0.015467 0.007421
v 0.005283 -0.040784 0.026827
v 0.008376 -0.017437 0.007421
v 0.006971 -0.015185 0.029644
v 0.007814 -0.016032 0.007421
f 85 77 95 
f 51 52 54 
f 52 53 56 
f 55 57 58 
f 57 55 59 
f 56 53 60 
f 52 51 61 
f 56 60 62 
f 51 54 63 
f 54 62 63 
f 54 52 64 
f 52 56 64 
f 58 57 65 
f 55 58 67 
f 58 63 67 
f 63 62 67 
f 62 60 68 
f 60 53 70 
f 51 63 71 
f 63 58 71 
f 68 60 73 
f 66 68 73 
f 62 54 74 
f 56 62 74 
f 62 55 75 
f 55 67 75 
f 67 62 75 
f 60 70 76 
f 52 61 77 
f 61 70 77 
f 55 62 78 
f 66 55 78 
f 62 68 78 
f 68 66 78 
f 57 69 79 
f 72 57 79 
f 69 72 79 
f 65 57 80 
f 59 55 81 
f 60 59 81 
f 55 66 81 
f 58 65 82 
f 65 51 82 
f 61 51 83 
f 51 65 83 
f 57 72 83 
f 65 80 83 
f 57 59 84 
f 59 60 84 
f 69 57 84 
f 60 69 84 
f 53 52 85 
f 70 53 85 
f 51 71 86 
f 82 51 86 
f 71 82 86 
f 73 60 87 
f 66 73 87 
f 60 81 87 
f 81 66 87 
f 71 58 88 
f 58 82 88 
f 82 71 88 
f 69 60 89 
f 72 69 89 
f 60 76 89 
f 76 72 89 
f 76 61 90 
f 72 76 90 
f 61 83 90 
f 83 72 90 
f 54 64 91 
f 64 56 91 
f 74 54 91 
f 56 74 91 
f 80 57 92 
f 57 83 92 
f 83 80 92 
f 70 61 93 
f 76 70 93 
f 61 76 93 
f 52 77 94 
f 85 52 94 
f 77 85 94 
f 77 70 95 
f 70 85 95 
o convex_3
v -0.009346 -0.022218 0.037804
v 0.009503 -0.007026 0.042584
v 0.009503 -0.007026 0.036959
v -0.010190 -0.007026 0.042584
v -0.010190 -0.007308 0.034709
v 0.006689 -0.021935 0.034428
v 0.006970 -0.020527 0.039489
v -0.010190 -0.021652 0.034428
v 0.006970 -0.008996 0.034709
v -0.009346 -0.008151 0.043148
v -0.009625 -0.020527 0.039489
v 0.008375 -0.018559 0.034428
v 0.007531 -0.008151 0.043148
v 0.006689 -0.021935 0.038366
v 0.008096 -0.020246 0.038927
v -0.009062 -0.011811 0.034428
v -0.010190 -0.021092 0.038648
v 0.006126 -0.011811 0.034428
v -0.010190 -0.007026 0.036397
v 0.005844 -0.022218 0.034428
v 0.009220 -0.007026 0.036397
v -0.009625 -0.022218 0.034428
v 0.008659 -0.007026 0.043148
v 0.006689 -0.018839 0.040052
v -0.009346 -0.021652 0.038927
v 0.009503 -0.008151 0.042303
v 0.005844 -0.022218 0.037804
v -0.006250 -0.007308 0.034709
v -0.009346 -0.018839 0.040052
v 0.008375 -0.015184 0.034428
v -0.009346 -0.007026 0.043148
v 0.007814 -0.020811 0.034428
v 0.008375 -0.018559 0.039489
v 0.006407 -0.021652 0.038927
v -0.009907 -0.009279 0.042584
v 0.009503 -0.008151 0.037804
f 121 107 131 
f 97 98 99 
f 99 100 103 
f 101 103 107 
f 103 100 111 
f 107 103 111 
f 103 96 112 
f 99 103 112 
f 111 100 113 
f 107 111 113 
f 99 98 114 
f 100 99 114 
f 103 101 115 
f 101 109 115 
f 114 98 116 
f 100 114 116 
f 96 103 117 
f 115 96 117 
f 103 115 117 
f 97 99 118 
f 108 102 118 
f 105 108 118 
f 106 102 119 
f 102 108 119 
f 108 105 119 
f 102 106 120 
f 96 109 120 
f 112 96 120 
f 106 112 120 
f 98 97 121 
f 97 118 121 
f 109 96 122 
f 96 115 122 
f 115 109 122 
f 113 100 123 
f 104 113 123 
f 100 116 123 
f 116 104 123 
f 105 106 124 
f 106 119 124 
f 119 105 124 
f 98 107 125 
f 113 104 125 
f 107 113 125 
f 104 116 125 
f 116 98 125 
f 99 105 126 
f 118 99 126 
f 105 118 126 
f 101 107 127 
f 109 101 127 
f 107 110 127 
f 110 109 127 
f 102 110 128 
f 110 107 128 
f 118 102 128 
f 107 121 128 
f 121 118 128 
f 110 102 129 
f 109 110 129 
f 102 120 129 
f 120 109 129 
f 105 99 130 
f 106 105 130 
f 99 112 130 
f 112 106 130 
f 107 98 131 
f 98 121 131 
o convex_4
v -0.009907 -0.021371 -0.001021
v 0.009503 -0.007026 -0.000740
v 0.009503 -0.007026 -0.004678
v -0.010189 -0.007026 0.000104
v 0.006689 -0.021935 0.001793
v -0.009626 -0.007026 -0.005241
v 0.006689 -0.020811 -0.001584
v -0.009344 -0.010965 0.001793
v 0.007533 -0.008996 0.001511
v -0.010189 -0.021652 0.001793
v 0.007813 -0.008433 -0.005241
v -0.009344 -0.016308 -0.002989
v 0.008377 -0.018559 0.001793
v -0.010189 -0.007308 0.001511
v 0.008096 -0.020246 -0.001303
v 0.005845 -0.022218 -0.000177
v -0.010189 -0.008151 -0.004678
v -0.009344 -0.008433 -0.005241
v 0.009220 -0.007026 0.000104
v -0.009626 -0.022218 0.001793
v 0.006126 -0.010965 0.001793
v -0.009626 -0.021371 -0.001303
v -0.009344 -0.022218 -0.000177
v 0.008938 -0.007026 -0.005241
v 0.006689 -0.016308 -0.002989
v 0.009503 -0.008151 -0.004397
v -0.009626 -0.019965 -0.001864
v -0.006249 -0.007308 0.001511
v 0.006407 -0.021935 -0.000740
v -0.010189 -0.020811 -0.001021
v 0.005845 -0.022218 0.001793
v 0.008377 -0.014901 0.001793
v 0.006970 -0.019120 -0.002145
v 0.008096 -0.020246 0.001793
f 146 144 165 
f 133 134 135 
f 135 134 137 
f 136 139 141 
f 139 136 144 
f 135 141 145 
f 141 139 145 
f 135 137 148 
f 141 135 148 
f 137 142 149 
f 142 143 149 
f 148 137 149 
f 133 135 150 
f 144 133 150 
f 135 145 150 
f 136 141 151 
f 139 144 152 
f 145 139 152 
f 141 132 154 
f 151 141 154 
f 147 151 154 
f 132 153 154 
f 137 134 155 
f 142 137 155 
f 143 142 156 
f 134 133 157 
f 133 144 157 
f 144 146 157 
f 155 134 157 
f 146 155 157 
f 149 143 158 
f 148 149 158 
f 138 153 158 
f 140 150 159 
f 150 145 159 
f 152 140 159 
f 145 152 159 
f 146 136 160 
f 138 146 160 
f 136 147 160 
f 153 138 160 
f 147 154 160 
f 154 153 160 
f 132 141 161 
f 141 148 161 
f 153 132 161 
f 148 158 161 
f 158 153 161 
f 147 136 162 
f 136 151 162 
f 151 147 162 
f 144 150 163 
f 150 140 163 
f 152 144 163 
f 140 152 163 
f 146 138 164 
f 142 155 164 
f 155 146 164 
f 156 142 164 
f 143 156 164 
f 158 143 164 
f 138 158 164 
f 144 136 165 
f 136 146 165 
o convex_5
v 0.001062 -0.061606 0.025985
v -0.012440 -0.081578 0.017830
v -0.012158 -0.081859 0.017548
v -0.009908 -0.061887 0.011641
v 0.002188 -0.062169 0.012766
v -0.010470 -0.061887 0.025704
v -0.007377 -0.081013 0.021202
v -0.006251 -0.077073 0.014173
v -0.012158 -0.073418 0.024579
v -0.012440 -0.071733 0.013329
v 0.002751 -0.062167 0.023735
v -0.006251 -0.080450 0.017548
v -0.004844 -0.073697 0.024579
v 0.000500 -0.061606 0.011641
v -0.011595 -0.074823 0.013329
v -0.011876 -0.080171 0.022328
v -0.007658 -0.061606 0.026267
v 0.002751 -0.062169 0.013891
v -0.012440 -0.071733 0.024297
v -0.004001 -0.070326 0.012485
v -0.004001 -0.075951 0.022047
v -0.010470 -0.061887 0.012203
v -0.003157 -0.067795 0.025704
v -0.011876 -0.079889 0.015299
v -0.007939 -0.081578 0.016986
v -0.003438 -0.073697 0.014173
v 0.000500 -0.065544 0.024859
v -0.007094 -0.077919 0.023453
v -0.008501 -0.061606 0.012203
v -0.011876 -0.082141 0.019796
v -0.009627 -0.063574 0.011641
v -0.009627 -0.065264 0.025985
v -0.011595 -0.074260 0.024579
v 0.002751 -0.061606 0.013609
v -0.012440 -0.080171 0.021765
v -0.000626 -0.069202 0.015299
v -0.007094 -0.081578 0.019796
v -0.004563 -0.075951 0.023171
v -0.000064 -0.062169 0.026267
v -0.002033 -0.069202 0.012766
v -0.000907 -0.063576 0.011641
v -0.007094 -0.080171 0.015860
v -0.007094 -0.076793 0.013891
v 0.002469 -0.061606 0.024859
v -0.009627 -0.068356 0.012203
v -0.008220 -0.082141 0.018111
v -0.008784 -0.081859 0.020640
v -0.011876 -0.077919 0.023453
v -0.012440 -0.077638 0.014736
v -0.002033 -0.068921 0.025141
v -0.002595 -0.072855 0.014736
v -0.009627 -0.062448 0.026267
v -0.009627 -0.071454 0.025141
v -0.005688 -0.074262 0.024579
v -0.008501 -0.080731 0.015860
v -0.012158 -0.072572 0.013048
v -0.008220 -0.080171 0.022328
v -0.000626 -0.069202 0.022608
v -0.005969 -0.079889 0.020640
v -0.005969 -0.079326 0.016142
v -0.001470 -0.070326 0.023734
v 0.000500 -0.063292 0.011923
v -0.005407 -0.073418 0.013048
v -0.011876 -0.078201 0.014454
f 214 221 229 
f 166 179 182 
f 174 171 184 
f 175 167 184 
f 171 175 184 
f 169 175 187 
f 175 171 187 
f 168 167 189 
f 179 169 194 
f 171 182 194 
f 182 179 194 
f 169 187 194 
f 187 171 194 
f 167 168 195 
f 169 179 196 
f 197 174 198 
f 179 166 199 
f 170 179 199 
f 176 183 199 
f 183 170 199 
f 174 184 200 
f 184 167 200 
f 167 195 200 
f 195 181 200 
f 178 193 203 
f 193 172 203 
f 166 182 204 
f 197 188 204 
f 191 173 205 
f 170 191 205 
f 196 179 206 
f 177 190 207 
f 166 192 209 
f 192 176 209 
f 199 166 209 
f 176 199 209 
f 185 180 210 
f 196 206 210 
f 206 185 210 
f 168 190 211 
f 190 177 211 
f 195 168 211 
f 177 202 211 
f 211 202 212 
f 181 195 212 
f 202 172 212 
f 195 211 212 
f 181 193 213 
f 198 174 213 
f 174 200 213 
f 200 181 213 
f 167 175 214 
f 189 167 214 
f 188 178 215 
f 192 166 215 
f 178 203 215 
f 203 192 215 
f 166 204 215 
f 204 188 215 
f 170 183 216 
f 191 170 216 
f 183 201 216 
f 201 177 216 
f 171 174 217 
f 182 171 217 
f 174 197 217 
f 204 182 217 
f 197 204 217 
f 188 197 218 
f 197 198 218 
f 218 198 219 
f 178 188 219 
f 193 178 219 
f 213 193 219 
f 198 213 219 
f 188 218 219 
f 168 189 220 
f 190 168 220 
f 173 207 220 
f 207 190 220 
f 208 173 220 
f 189 208 220 
f 175 169 221 
f 169 196 221 
f 210 180 221 
f 196 210 221 
f 214 175 221 
f 172 193 222 
f 193 181 222 
f 212 172 222 
f 181 212 222 
f 183 176 223 
f 201 183 223 
f 201 223 224 
f 177 201 224 
f 172 202 224 
f 202 177 224 
f 186 203 224 
f 203 172 224 
f 223 186 224 
f 173 191 225 
f 207 173 225 
f 177 207 225 
f 216 177 225 
f 191 216 225 
f 176 192 226 
f 192 203 226 
f 203 186 226 
f 223 176 226 
f 186 223 226 
f 179 170 227 
f 170 205 227 
f 205 185 227 
f 206 179 227 
f 185 206 227 
f 180 185 228 
f 205 173 228 
f 185 205 228 
f 173 208 228 
f 208 180 228 
f 180 208 229 
f 208 189 229 
f 189 214 229 
f 221 180 229 
o convex_6
v 0.002469 -0.061320 0.012484
v 0.003594 -0.041350 0.027675
v -0.007939 -0.041350 0.027675
v 0.003875 -0.041350 0.010232
v -0.008502 -0.043602 0.010796
v -0.008502 -0.061604 0.025705
v 0.003875 -0.059349 0.024579
v -0.007939 -0.061604 0.011639
v 0.005846 -0.042474 0.012766
v 0.000499 -0.061604 0.026268
v -0.007939 -0.041350 0.010232
v 0.005846 -0.041350 0.025423
v 0.004158 -0.058507 0.014173
v 0.000781 -0.060194 0.011359
v -0.008502 -0.041350 0.027111
v -0.008502 -0.061604 0.012203
v -0.007657 -0.058788 0.026548
v 0.003031 -0.061604 0.023734
v -0.007376 -0.044445 0.010232
v 0.003594 -0.057382 0.012203
v 0.003031 -0.058227 0.025985
v 0.005000 -0.050635 0.024014
v 0.003031 -0.061604 0.013893
v 0.005563 -0.041350 0.011639
v 0.002189 -0.043037 0.027675
v 0.005283 -0.042193 0.026548
v 0.002469 -0.044445 0.010232
v -0.007376 -0.060475 0.011359
v 0.001062 -0.059072 0.026548
v -0.008502 -0.041350 0.010796
v 0.001906 -0.059072 0.011359
v 0.000781 -0.061604 0.011639
v -0.005407 -0.043037 0.027675
v 0.003875 -0.059914 0.023734
v -0.007939 -0.061604 0.026268
v 0.004719 -0.042758 0.010796
v 0.005846 -0.042474 0.024859
v 0.003875 -0.059349 0.013328
v 0.004158 -0.058507 0.023734
v 0.002189 -0.061604 0.025423
v 0.004158 -0.042476 0.027391
v 0.002189 -0.059349 0.026268
v 0.003875 -0.059914 0.013893
v -0.008220 -0.061041 0.011639
v 0.001344 -0.044725 0.010232
f 243 257 274 
f 232 231 233 
f 235 237 239 
f 232 233 240 
f 233 231 241 
f 235 232 244 
f 234 235 244 
f 232 240 244 
f 235 234 245 
f 237 235 245 
f 239 237 247 
f 240 233 248 
f 242 238 251 
f 247 237 252 
f 233 241 253 
f 241 238 253 
f 231 232 254 
f 241 231 255 
f 236 241 255 
f 250 236 255 
f 248 233 256 
f 231 254 258 
f 240 234 259 
f 234 244 259 
f 244 240 259 
f 249 230 260 
f 256 233 260 
f 243 256 260 
f 230 252 261 
f 252 237 261 
f 237 257 261 
f 257 243 261 
f 260 230 261 
f 243 260 261 
f 232 246 262 
f 254 232 262 
f 246 258 262 
f 258 254 262 
f 236 247 263 
f 247 252 263 
f 232 235 264 
f 235 239 264 
f 246 232 264 
f 239 258 264 
f 258 246 264 
f 233 253 265 
f 253 249 265 
f 260 233 265 
f 249 260 265 
f 241 236 266 
f 238 241 266 
f 251 238 266 
f 238 242 267 
f 230 249 267 
f 253 238 267 
f 249 253 267 
f 242 251 268 
f 236 263 268 
f 263 242 268 
f 266 236 268 
f 251 266 268 
f 247 236 269 
f 239 247 269 
f 236 250 269 
f 255 231 270 
f 250 255 270 
f 258 239 271 
f 231 258 271 
f 239 269 271 
f 269 250 271 
f 270 231 271 
f 250 270 271 
f 252 230 272 
f 242 263 272 
f 263 252 272 
f 267 242 272 
f 230 267 272 
f 234 240 273 
f 245 234 273 
f 237 245 273 
f 240 248 273 
f 248 257 273 
f 257 237 273 
f 256 243 274 
f 248 256 274 
f 257 248 274 
o convex_7
v 0.009501 -0.007026 0.036959
v 0.001905 0.010135 0.040053
v 0.001905 0.010135 0.036396
v -0.010188 -0.007026 0.040053
v -0.010188 0.001417 0.036396
v 0.010064 -0.002804 0.040053
v -0.010188 -0.007026 0.036396
v -0.008501 0.005914 0.040053
v 0.009782 0.003381 0.036396
v 0.009501 -0.007026 0.040053
v -0.005124 0.009008 0.036396
v 0.008095 0.006477 0.040053
v 0.009221 -0.007026 0.036396
v -0.003157 0.009853 0.040053
v 0.006408 0.008165 0.036396
v -0.010188 0.001417 0.040053
v 0.010064 0.002257 0.040053
v -0.008501 0.005914 0.036396
v 0.005563 0.008728 0.040053
v -0.001749 0.010135 0.036396
v 0.010064 -0.002804 0.037522
v -0.005969 0.008447 0.040053
v -0.009627 0.003665 0.040053
v 0.008095 0.006477 0.036396
v 0.003876 0.009573 0.036396
f 293 289 299 
f 276 278 280 
f 275 278 281 
f 278 279 281 
f 279 277 281 
f 278 276 282 
f 281 277 283 
f 278 275 284 
f 275 280 284 
f 280 278 284 
f 277 279 285 
f 276 280 286 
f 275 281 287 
f 281 283 287 
f 282 276 288 
f 283 277 289 
f 279 278 290 
f 278 282 290 
f 286 280 291 
f 283 286 291 
f 285 279 292 
f 276 286 293 
f 286 289 293 
f 276 277 294 
f 277 285 294 
f 288 276 294 
f 285 288 294 
f 280 275 295 
f 275 287 295 
f 287 283 295 
f 291 280 295 
f 283 291 295 
f 282 288 296 
f 288 285 296 
f 292 282 296 
f 285 292 296 
f 279 290 297 
f 290 282 297 
f 292 279 297 
f 282 292 297 
f 286 283 298 
f 283 289 298 
f 289 286 298 
f 277 276 299 
f 289 277 299 
f 276 293 299 
o convex_8
v 0.009503 -0.007026 -0.000458
v 0.001905 0.010135 0.000105
v 0.001905 0.010135 -0.003553
v -0.010189 -0.007026 0.000105
v -0.010189 -0.007026 -0.003553
v 0.010066 -0.002803 -0.003553
v -0.008500 0.005914 0.000105
v 0.009784 0.003381 0.000105
v -0.009626 0.003665 -0.003553
v 0.009503 -0.007026 -0.003553
v 0.008095 0.006477 -0.003553
v -0.004562 0.009290 -0.003553
v 0.009221 -0.007026 0.000105
v -0.003156 0.009853 0.000105
v 0.006408 0.008165 0.000105
v -0.010189 0.001417 0.000105
v 0.010066 0.002255 -0.003553
v 0.005563 0.008726 -0.003553
v -0.008500 0.005914 -0.003553
v -0.005968 0.008447 0.000105
v -0.010189 0.001417 -0.003553
v -0.001751 0.010135 -0.003553
v 0.010066 -0.002803 -0.001302
v 0.008095 0.006477 0.000105
v 0.003876 0.009571 0.000105
v -0.005968 0.008447 -0.003553
f 318 319 325 
f 300 303 304 
f 304 302 305 
f 303 301 306 
f 301 303 307 
f 302 304 308 
f 300 304 309 
f 304 305 309 
f 305 300 309 
f 305 302 310 
f 302 308 311 
f 303 300 312 
f 307 303 312 
f 300 307 312 
f 306 301 313 
f 301 307 314 
f 304 303 315 
f 303 306 315 
f 306 308 315 
f 305 310 316 
f 310 307 316 
f 310 302 317 
f 314 310 317 
f 308 306 318 
f 311 308 318 
f 306 313 319 
f 313 311 319 
f 318 306 319 
f 308 304 320 
f 304 315 320 
f 315 308 320 
f 301 302 321 
f 302 311 321 
f 313 301 321 
f 311 313 321 
f 300 305 322 
f 307 300 322 
f 305 316 322 
f 316 307 322 
f 307 310 323 
f 314 307 323 
f 310 314 323 
f 302 301 324 
f 301 314 324 
f 317 302 324 
f 314 317 324 
f 311 318 325 
f 319 311 325 
o convex_9
v -0.009064 0.002820 0.043147
v -0.010190 -0.007025 0.040054
v -0.010190 -0.007025 0.042585
v -0.004282 -0.002524 0.040054
v -0.009908 0.002820 0.040054
v -0.004282 0.002538 0.043147
v -0.006533 -0.007025 0.043147
v -0.004282 0.002538 0.040054
v -0.006533 -0.007025 0.040054
v -0.004282 -0.002524 0.043147
v -0.010190 0.001413 0.042304
v -0.009346 -0.007025 0.043147
v -0.010190 0.001413 0.040054
v -0.009908 0.001413 0.042866
f 328 337 339 
f 329 327 330 
f 328 327 332 
f 331 326 332 
f 330 326 333 
f 329 330 333 
f 326 331 333 
f 331 329 333 
f 327 329 334 
f 332 327 334 
f 329 332 334 
f 329 331 335 
f 332 329 335 
f 331 332 335 
f 327 328 336 
f 326 330 336 
f 332 326 337 
f 328 332 337 
f 330 327 338 
f 327 336 338 
f 336 330 338 
f 326 336 339 
f 336 328 339 
f 337 326 339 
o convex_10
v -0.004282 0.002538 -0.005241
v -0.010190 -0.007025 -0.004678
v -0.010190 -0.007025 -0.003553
v -0.009908 0.002820 -0.003553
v -0.004282 -0.002524 -0.003553
v -0.009346 0.002820 -0.005241
v -0.006533 -0.007025 -0.005241
v -0.004282 0.002538 -0.003553
v -0.006533 -0.007025 -0.003553
v -0.004282 -0.002524 -0.005241
v -0.009627 -0.007025 -0.005241
v -0.010190 0.001131 -0.004678
f 345 350 351 
f 343 342 344 
f 342 341 346 
f 345 340 346 
f 344 340 347 
f 343 344 347 
f 340 345 347 
f 345 343 347 
f 344 342 348 
f 342 346 348 
f 346 344 348 
f 340 344 349 
f 346 340 349 
f 344 346 349 
f 346 341 350 
f 345 346 350 
f 341 342 351 
f 342 343 351 
f 343 345 351 
f 350 341 351 
o convex_11
v 0.008939 -0.007024 -0.005241
v -0.000343 0.006758 -0.003553
v -0.000343 0.006758 -0.005241
v -0.003438 -0.007024 -0.003553
v 0.010066 0.001975 -0.003553
v -0.003438 -0.007024 -0.005241
v 0.009502 -0.007024 -0.003553
v 0.010066 0.001975 -0.005241
v -0.004282 0.002538 -0.003553
v -0.004282 0.002538 -0.005241
v -0.002312 0.006476 -0.003553
v -0.004282 -0.002524 -0.003553
v 0.010066 -0.002804 -0.005241
v -0.002031 0.006758 -0.005241
v -0.004282 -0.002524 -0.005241
f 363 361 366 
f 354 353 356 
f 353 355 356 
f 354 352 357 
f 352 355 357 
f 355 352 358 
f 356 355 358 
f 352 354 359 
f 354 356 359 
f 355 353 360 
f 354 357 361 
f 360 353 362 
f 361 360 362 
f 357 355 363 
f 355 360 363 
f 360 361 363 
f 358 352 364 
f 356 358 364 
f 359 356 364 
f 352 359 364 
f 353 354 365 
f 354 361 365 
f 361 362 365 
f 362 353 365 
f 361 357 366 
f 357 363 366 
o convex_12
v 0.003876 0.002820 0.043147
v -0.004282 -0.002524 0.040054
v -0.003438 -0.007024 0.040054
v 0.004158 0.002538 0.040054
v -0.002313 0.006476 0.043147
v 0.003313 -0.007024 0.043147
v -0.003438 -0.007024 0.043147
v -0.002031 0.006758 0.040054
v 0.003313 -0.007024 0.040054
v -0.004282 0.002538 0.043147
v -0.000343 0.006758 0.043147
v -0.004282 0.002538 0.040054
v 0.004158 -0.002524 0.043147
v -0.000343 0.006758 0.040054
v 0.004158 -0.002524 0.040054
v -0.004282 -0.002524 0.043147
f 376 368 382 
f 369 368 370 
f 367 371 372 
f 372 371 373 
f 368 369 373 
f 369 372 373 
f 370 368 374 
f 369 370 375 
f 372 369 375 
f 373 371 376 
f 371 367 377 
f 374 371 377 
f 374 368 378 
f 371 374 378 
f 376 371 378 
f 368 376 378 
f 370 367 379 
f 367 372 379 
f 372 375 379 
f 367 370 380 
f 370 374 380 
f 377 367 380 
f 374 377 380 
f 375 370 381 
f 370 379 381 
f 379 375 381 
f 368 373 382 
f 373 376 382 
o convex_13
v 0.009503 -0.005900 0.043147
v 0.004158 -0.002524 0.040054
v 0.004158 -0.002524 0.043147
v 0.010066 0.001977 0.040054
v 0.004158 0.002539 0.043147
v 0.009503 -0.007026 0.040054
v 0.010066 0.001977 0.043147
v 0.006409 -0.007026 0.043147
v 0.004158 0.002539 0.040054
v 0.006409 -0.007026 0.040054
v 0.010066 -0.002805 0.043147
v 0.009503 -0.007026 0.042585
v 0.010066 -0.002805 0.040054
f 386 393 395 
f 385 383 387 
f 384 385 387 
f 384 386 388 
f 387 383 389 
f 386 387 389 
f 383 385 390 
f 385 384 390 
f 386 384 391 
f 387 386 391 
f 384 387 391 
f 384 388 392 
f 390 384 392 
f 388 390 392 
f 386 389 393 
f 389 383 393 
f 383 390 394 
f 390 388 394 
f 393 383 394 
f 388 393 394 
f 388 386 395 
f 393 388 395 
