o convex_0
v -0.003460 -0.009787 -0.010417
v 0.002854 0.012332 0.000115
v 0.002854 0.012332 -0.007783
v -0.012416 0.010750 0.001697
v 0.010230 -0.007679 0.000116
v -0.012416 -0.010839 0.001697
v -0.012416 0.008642 -0.010417
v 0.011284 0.002851 -0.009889
v -0.012416 -0.009787 -0.009889
v 0.004436 -0.011893 -0.007783
v 0.011809 0.004957 0.000116
v 0.011284 -0.004520 -0.009363
v 0.001802 -0.012421 0.000115
v 0.006544 0.008116 -0.010417
v 0.007596 0.010224 -0.008308
v -0.006094 -0.011367 0.001697
v -0.001355 -0.012421 -0.007783
v -0.010308 0.011278 -0.007783
v -0.006094 0.011278 0.001697
v 0.006016 -0.008731 -0.010417
v 0.012338 -0.003466 -0.000410
v 0.012338 0.003377 -0.007783
v 0.007596 0.010224 0.000116
v 0.001802 0.011278 -0.009889
v 0.009701 -0.008205 -0.008308
v 0.007596 -0.010311 0.000116
v -0.002409 0.012332 0.000115
v -0.012416 -0.010839 -0.008310
v 0.010755 0.007065 -0.007783
v -0.012416 -0.008731 -0.010417
v -0.012416 0.010750 -0.008835
v 0.012338 -0.003466 -0.007256
v -0.001883 0.012332 -0.008310
v 0.010230 -0.002412 -0.010417
v 0.003908 -0.010839 -0.009889
v 0.011809 -0.005045 0.000116
v -0.001355 -0.012421 0.000115
v 0.010755 0.007065 0.000116
v 0.007596 -0.010311 -0.007783
v 0.006016 0.011278 0.000116
v 0.008650 0.008642 -0.009363
v -0.002937 -0.011893 -0.008835
v 0.012338 0.003377 -0.000410
v 0.011284 -0.006097 -0.007783
v 0.004436 -0.011893 0.000115
f 26 16 45 
f 6 4 7 
f 6 7 9 
f 1 7 14 
f 4 6 16 
f 10 13 17 
f 4 16 19 
f 16 11 19 
f 1 14 20 
f 12 8 22 
f 14 7 24 
f 3 15 24 
f 20 12 25 
f 5 16 26 
f 2 3 27 
f 18 4 27 
f 19 2 27 
f 4 19 27 
f 6 9 28 
f 17 6 28 
f 22 8 29 
f 11 22 29 
f 15 23 29 
f 7 1 30 
f 1 9 30 
f 9 7 30 
f 7 4 31 
f 4 18 31 
f 24 7 31 
f 12 22 32 
f 22 21 32 
f 3 24 33 
f 27 3 33 
f 18 27 33 
f 31 18 33 
f 24 31 33 
f 8 12 34 
f 14 8 34 
f 12 20 34 
f 20 14 34 
f 10 17 35 
f 1 20 35 
f 11 16 36 
f 16 5 36 
f 21 11 36 
f 32 21 36 
f 16 6 37 
f 13 16 37 
f 6 17 37 
f 17 13 37 
f 19 11 38 
f 23 19 38 
f 11 29 38 
f 29 23 38 
f 25 5 39 
f 20 25 39 
f 26 10 39 
f 5 26 39 
f 10 35 39 
f 35 20 39 
f 3 2 40 
f 15 3 40 
f 2 19 40 
f 23 15 40 
f 19 23 40 
f 8 14 41 
f 14 24 41 
f 24 15 41 
f 29 8 41 
f 15 29 41 
f 9 1 42 
f 28 9 42 
f 17 28 42 
f 1 35 42 
f 35 17 42 
f 11 21 43 
f 21 22 43 
f 22 11 43 
f 5 25 44 
f 25 12 44 
f 12 32 44 
f 36 5 44 
f 32 36 44 
f 13 10 45 
f 16 13 45 
f 10 26 45 
o convex_1
v -0.036114 -0.016104 0.004330
v -0.040855 0.020232 0.031717
v -0.045067 0.020232 0.031717
v -0.046648 -0.019794 0.031717
v -0.022422 -0.000306 0.031717
v -0.046648 0.019703 0.004330
v -0.022950 0.001269 0.004330
v -0.047703 -0.018736 0.004330
v -0.047703 0.018649 0.031717
v -0.039801 -0.019794 0.031717
v -0.039274 0.019703 0.004330
v -0.039801 -0.019794 0.004330
v -0.047703 0.018649 0.004330
v -0.047703 -0.018736 0.031717
v -0.039274 0.019703 0.031717
v -0.024004 -0.002410 0.004330
v -0.022950 0.001269 0.031717
v -0.036114 -0.016104 0.031717
v -0.046648 -0.019794 0.004330
v -0.040855 0.020232 0.004330
v -0.024004 -0.002414 0.031717
v -0.022422 -0.000306 0.004330
v -0.045067 0.020232 0.004330
v -0.046648 0.019703 0.031717
v -0.030851 0.010222 0.031717
f 60 62 70 
f 47 48 49 
f 47 49 50 
f 46 51 52 
f 51 46 53 
f 49 48 54 
f 50 49 55 
f 52 51 56 
f 53 46 57 
f 46 55 57 
f 55 49 57 
f 51 53 58 
f 54 51 58 
f 53 54 58 
f 53 49 59 
f 54 53 59 
f 49 54 59 
f 47 50 60 
f 56 47 60 
f 46 52 61 
f 50 52 62 
f 60 50 62 
f 55 46 63 
f 50 55 63 
f 49 53 64 
f 53 57 64 
f 57 49 64 
f 48 47 65 
f 47 56 65 
f 56 51 65 
f 46 61 66 
f 63 46 66 
f 50 63 66 
f 52 50 67 
f 61 52 67 
f 66 61 67 
f 50 66 67 
f 51 48 68 
f 48 65 68 
f 65 51 68 
f 48 51 69 
f 51 54 69 
f 54 48 69 
f 52 56 70 
f 56 60 70 
f 62 52 70 
o convex_2
v -0.029271 -0.018736 -0.064663
v -0.018210 0.016542 -0.038330
v -0.042962 0.016542 -0.038330
v -0.029271 0.018124 -0.064663
v -0.034534 -0.016632 -0.038330
v -0.042962 -0.013996 -0.062029
v -0.017682 -0.013996 -0.062029
v -0.017682 -0.015050 -0.038330
v -0.042962 0.014963 -0.062029
v -0.017682 0.014963 -0.062029
v -0.042962 -0.015575 -0.038330
v -0.039275 0.020232 -0.039384
v -0.021370 0.020232 -0.040964
v -0.040327 -0.013996 -0.064663
v -0.033480 -0.019794 -0.053603
v -0.020318 -0.018740 -0.050971
v -0.020318 -0.013996 -0.064663
v -0.040327 -0.018740 -0.057815
v -0.040327 0.014963 -0.064663
v -0.020318 0.014963 -0.064663
v -0.038221 0.018121 -0.061503
v -0.027165 -0.018736 -0.044125
v -0.021370 0.018121 -0.059923
v -0.021370 -0.018740 -0.059923
v -0.017682 0.016017 -0.038330
v -0.036115 -0.018740 -0.045179
v -0.032426 0.019178 -0.057289
v -0.037694 -0.018740 -0.062029
v -0.021897 0.020232 -0.038858
v -0.040854 0.018121 -0.055709
v -0.040854 -0.018740 -0.053074
v -0.022951 -0.016629 -0.038330
v -0.027690 -0.019794 -0.055709
v -0.017682 0.016542 -0.046759
v -0.027690 0.019178 -0.056763
v -0.038748 0.020232 -0.041490
v -0.020318 0.018121 -0.057289
v -0.028744 -0.019794 -0.051497
v -0.042962 0.016542 -0.049391
v -0.024530 -0.018736 -0.063083
v -0.017682 -0.015575 -0.046759
v -0.020318 -0.018740 -0.057289
v -0.021897 -0.018740 -0.047811
v -0.034007 -0.018736 -0.064132
v -0.034007 0.018124 -0.064132
v -0.039275 -0.018740 -0.048339
v -0.024530 0.018121 -0.063083
v -0.031374 -0.019794 -0.057289
v -0.042962 -0.015575 -0.048865
v -0.038748 0.020232 -0.038858
v -0.037694 -0.016629 -0.038330
v -0.018210 -0.015575 -0.038330
f 102 113 122 
f 72 73 75 
f 72 75 78 
f 76 73 79 
f 78 77 80 
f 75 73 81 
f 73 76 81 
f 74 71 84 
f 76 79 84 
f 71 74 87 
f 80 77 87 
f 74 84 89 
f 84 79 89 
f 87 74 90 
f 80 87 90 
f 89 79 91 
f 87 77 94 
f 72 78 95 
f 78 80 95 
f 83 72 95 
f 76 84 98 
f 88 76 98 
f 73 72 99 
f 72 83 99 
f 83 82 99 
f 91 79 100 
f 76 88 101 
f 88 85 101 
f 78 75 102 
f 75 92 102 
f 95 80 104 
f 83 95 104 
f 83 93 105 
f 97 83 105 
f 74 97 105 
f 82 83 106 
f 83 97 106 
f 97 91 106 
f 100 82 106 
f 91 100 106 
f 80 93 107 
f 93 83 107 
f 104 80 107 
f 83 104 107 
f 96 85 108 
f 92 96 108 
f 85 103 108 
f 103 86 108 
f 79 73 109 
f 73 82 109 
f 100 79 109 
f 82 100 109 
f 71 87 110 
f 87 94 110 
f 94 103 110 
f 77 78 111 
f 78 86 111 
f 111 86 112 
f 94 77 112 
f 86 103 112 
f 103 94 112 
f 77 111 112 
f 102 92 113 
f 108 86 113 
f 92 108 113 
f 84 71 114 
f 98 84 114 
f 74 89 115 
f 89 91 115 
f 97 74 115 
f 91 97 115 
f 96 81 116 
f 85 96 116 
f 81 101 116 
f 101 85 116 
f 90 74 117 
f 80 90 117 
f 93 80 117 
f 105 93 117 
f 74 105 117 
f 85 88 118 
f 88 98 118 
f 103 85 118 
f 71 110 118 
f 110 103 118 
f 114 71 118 
f 98 114 118 
f 81 76 119 
f 76 101 119 
f 101 81 119 
f 82 73 120 
f 73 99 120 
f 99 82 120 
f 75 81 121 
f 92 75 121 
f 81 96 121 
f 96 92 121 
f 86 78 122 
f 78 102 122 
f 113 86 122 
o convex_3
v -0.030324 0.015492 0.031717
v -0.047703 -0.018736 0.031717
v -0.046647 -0.019794 0.031717
v -0.033482 0.015492 0.046463
v -0.017159 -0.010838 0.044883
v -0.047703 0.018649 0.031717
v -0.035590 -0.014521 0.046463
v -0.021372 -0.006097 0.031717
v -0.017159 0.009172 0.046463
v -0.017159 0.010747 0.035932
v -0.047703 0.017596 0.035403
v -0.017159 -0.010838 0.035932
v -0.047703 -0.017686 0.035403
v -0.039800 -0.019794 0.038039
v -0.040852 0.020232 0.036985
v -0.027164 -0.015050 0.031717
v -0.038747 0.015492 0.043829
v -0.021372 0.012855 0.043829
v -0.017159 -0.009259 0.046463
v -0.031906 -0.016632 0.044883
v -0.021372 0.004427 0.031717
v -0.039273 0.019703 0.031717
v -0.044013 -0.017157 0.039090
v -0.039800 -0.019794 0.031717
v -0.035590 0.014963 0.046463
v -0.032429 0.016545 0.045410
v -0.042960 -0.019794 0.038039
v -0.043486 0.019178 0.038566
v -0.017159 -0.007676 0.034878
v -0.020316 -0.012421 0.043829
v -0.018738 0.011801 0.035932
v -0.017685 0.011276 0.044356
v -0.035060 -0.015575 0.046463
v -0.044013 0.017596 0.039090
v -0.045065 0.020232 0.034351
v -0.017159 0.007064 0.034878
v -0.032429 0.017071 0.043829
v -0.034008 -0.017686 0.042248
v -0.017685 -0.011363 0.035932
v -0.045065 0.020232 0.031717
v -0.038747 -0.015054 0.043829
v -0.037168 0.017596 0.043302
v -0.032955 -0.016632 0.045410
v -0.035060 0.018124 0.031717
v -0.046647 0.019703 0.034878
f 157 162 167 
f 125 124 123 
f 123 124 128 
f 125 123 130 
f 126 129 131 
f 131 127 132 
f 128 124 133 
f 132 127 134 
f 124 125 135 
f 133 124 135 
f 125 130 138 
f 130 134 138 
f 127 131 141 
f 131 129 141 
f 130 123 143 
f 123 132 143 
f 123 128 144 
f 133 135 145 
f 136 125 146 
f 125 138 146 
f 129 126 147 
f 139 129 147 
f 126 131 148 
f 135 125 149 
f 125 136 149 
f 145 135 149 
f 134 130 151 
f 132 134 151 
f 130 143 151 
f 127 142 152 
f 132 123 153 
f 131 132 154 
f 148 131 154 
f 132 153 154 
f 153 140 154 
f 141 129 155 
f 129 145 155 
f 145 149 155 
f 133 145 156 
f 145 139 156 
f 139 147 156 
f 150 133 156 
f 147 150 156 
f 150 137 157 
f 143 132 158 
f 132 151 158 
f 151 143 158 
f 144 137 159 
f 137 148 159 
f 148 154 159 
f 154 140 159 
f 142 136 160 
f 136 146 160 
f 146 138 160 
f 138 152 160 
f 152 142 160 
f 134 127 161 
f 138 134 161 
f 127 152 161 
f 152 138 161 
f 144 128 162 
f 137 144 162 
f 157 137 162 
f 129 139 163 
f 145 129 163 
f 139 145 163 
f 147 126 164 
f 126 148 164 
f 148 137 164 
f 137 150 164 
f 150 147 164 
f 127 141 165 
f 136 142 165 
f 142 127 165 
f 149 136 165 
f 141 155 165 
f 155 149 165 
f 123 144 166 
f 153 123 166 
f 140 153 166 
f 144 159 166 
f 159 140 166 
f 128 133 167 
f 133 150 167 
f 150 157 167 
f 162 128 167 
o convex_4
v 0.007597 -0.008733 0.045936
v 0.002857 0.012332 0.043830
v 0.003908 0.011804 0.044881
v -0.017156 -0.008731 0.046463
v -0.017156 -0.007153 0.034877
v 0.011809 0.004957 0.035930
v -0.017156 0.010750 0.035930
v 0.004433 -0.011893 0.035930
v -0.017156 0.009170 0.046463
v 0.010755 0.002325 0.046463
v 0.002857 0.012332 0.035930
v 0.011809 -0.005045 0.035930
v -0.017156 -0.010839 0.044355
v 0.000749 -0.012421 0.044355
v -0.017156 -0.010839 0.035930
v 0.012338 -0.002937 0.044355
v -0.016625 0.006539 0.034877
v 0.010755 0.007065 0.043830
v -0.017156 0.010750 0.044881
v 0.003908 0.010224 0.046463
v 0.003382 -0.010313 0.046463
v 0.007597 -0.010311 0.043830
v 0.007597 0.010222 0.035930
v -0.001358 -0.012421 0.035930
v -0.001887 0.012332 0.044355
v -0.010833 0.001271 0.034877
v 0.012338 0.003377 0.043830
v 0.007597 -0.010311 0.035930
v 0.010230 -0.007677 0.044355
v -0.002409 0.012332 0.035930
v 0.008648 0.009170 0.044882
v 0.010230 -0.003991 0.046463
v -0.001887 -0.011367 0.045936
v 0.012338 -0.003466 0.036458
v -0.002409 0.011278 0.045936
v 0.006018 0.011276 0.043830
v 0.004433 -0.011893 0.043830
v 0.010230 0.006011 0.045936
v -0.010833 -0.001886 0.034877
v 0.010755 0.007065 0.035930
v 0.012338 0.003377 0.036458
v -0.001358 -0.012421 0.043830
v 0.010230 -0.007677 0.035930
f 195 206 210 
f 172 171 174 
f 174 171 176 
f 176 171 177 
f 171 172 180 
f 180 172 182 
f 172 174 184 
f 174 176 186 
f 176 177 187 
f 177 171 188 
f 184 178 190 
f 172 175 191 
f 175 181 191 
f 182 172 191 
f 180 182 191 
f 170 169 192 
f 169 178 192 
f 173 179 193 
f 172 184 193 
f 184 190 193 
f 177 183 194 
f 173 185 194 
f 175 172 195 
f 189 175 195 
f 189 195 196 
f 179 183 196 
f 168 189 196 
f 184 174 197 
f 178 184 197 
f 174 186 197 
f 192 178 197 
f 186 192 197 
f 170 187 198 
f 185 190 198 
f 183 177 199 
f 188 168 199 
f 177 188 199 
f 168 196 199 
f 196 183 199 
f 171 180 200 
f 180 181 200 
f 188 171 200 
f 181 188 200 
f 179 173 201 
f 183 179 201 
f 194 183 201 
f 186 176 202 
f 187 170 202 
f 176 187 202 
f 170 192 202 
f 192 186 202 
f 169 170 203 
f 178 169 203 
f 190 178 203 
f 170 198 203 
f 198 190 203 
f 181 175 204 
f 168 188 204 
f 188 181 204 
f 175 189 204 
f 189 168 204 
f 187 177 205 
f 177 194 205 
f 194 185 205 
f 185 198 205 
f 198 187 205 
f 172 193 206 
f 193 179 206 
f 195 172 206 
f 185 173 207 
f 190 185 207 
f 173 193 207 
f 193 190 207 
f 173 194 208 
f 201 173 208 
f 194 201 208 
f 181 180 209 
f 191 181 209 
f 180 191 209 
f 196 195 210 
f 179 196 210 
f 206 179 210 
o convex_5
v -0.012416 -0.008728 -0.009890
v -0.050863 -0.020843 -0.037275
v -0.050863 -0.020843 -0.010419
v -0.045594 0.026016 -0.038330
v -0.016104 -0.022952 -0.038330
v -0.022423 0.026022 -0.009890
v -0.012416 0.021808 -0.033060
v -0.050332 0.021808 -0.009890
v -0.021900 -0.026641 -0.009890
v -0.045067 -0.026105 -0.038330
v -0.050863 0.020229 -0.037798
v -0.015050 0.018650 -0.038330
v -0.019792 0.029186 -0.026215
v -0.014523 0.018120 -0.010419
v -0.045594 0.026016 -0.009890
v -0.044013 -0.026636 -0.009890
v -0.020846 -0.026641 -0.037798
v -0.016104 -0.023477 -0.010419
v -0.014523 -0.018734 -0.037798
v -0.015577 0.024967 -0.035696
v -0.012416 0.021808 -0.023587
v -0.048228 -0.025056 -0.010945
v -0.050863 0.020229 -0.009890
v -0.012416 0.008639 -0.009890
v -0.045067 -0.026636 -0.037275
v -0.049809 0.022858 -0.038330
v -0.049809 -0.022422 -0.038330
v -0.013996 0.023388 -0.019901
v -0.022423 0.026022 -0.036220
v -0.015050 -0.021368 -0.010419
v -0.018211 -0.025586 -0.010419
v -0.020846 0.029186 -0.024633
v -0.049282 -0.024002 -0.037275
v -0.047701 0.024967 -0.009890
v -0.018211 -0.025586 -0.037798
v -0.050863 -0.019788 -0.009890
v -0.017158 0.020754 -0.038330
v -0.012416 0.020229 -0.033060
v -0.015050 -0.021368 -0.037798
v -0.047701 0.024967 -0.038330
v -0.019792 0.029186 -0.024633
v -0.015050 0.018650 -0.009890
v -0.014523 0.018120 -0.037798
v -0.048228 -0.025056 -0.037275
v -0.042959 0.026016 -0.038330
v -0.016104 -0.023477 -0.037798
v -0.015577 -0.022422 -0.009890
v -0.045067 -0.026636 -0.010419
v -0.049282 -0.024002 -0.010945
v -0.020319 -0.026111 -0.038330
v -0.014523 -0.019264 -0.037275
v -0.050332 -0.020843 -0.038330
v -0.012416 -0.008728 -0.010419
v -0.049809 0.022858 -0.009890
v -0.020846 -0.026641 -0.010419
v -0.014523 -0.019264 -0.010419
f 240 261 266 
f 211 216 218 
f 211 218 219 
f 214 215 220 
f 212 213 221 
f 215 214 222 
f 218 216 225 
f 219 218 226 
f 215 222 229 
f 217 222 230 
f 223 217 230 
f 211 217 231 
f 217 223 231 
f 221 213 233 
f 218 221 233 
f 226 218 233 
f 216 211 234 
f 211 231 234 
f 231 224 234 
f 220 227 235 
f 227 219 235 
f 214 220 236 
f 221 218 236 
f 236 220 237 
f 224 231 238 
f 223 230 239 
f 223 214 242 
f 214 225 242 
f 225 216 242 
f 213 212 243 
f 212 237 243 
f 225 214 244 
f 218 225 244 
f 241 227 245 
f 228 241 245 
f 232 226 246 
f 233 213 246 
f 226 233 246 
f 222 214 247 
f 230 222 247 
f 239 230 247 
f 217 211 248 
f 229 217 248 
f 215 229 249 
f 240 228 249 
f 214 236 250 
f 244 214 250 
f 236 244 250 
f 231 223 251 
f 216 238 251 
f 238 231 251 
f 242 216 251 
f 223 242 251 
f 216 234 252 
f 234 224 252 
f 238 216 252 
f 224 238 252 
f 222 217 253 
f 217 229 253 
f 229 222 253 
f 220 235 254 
f 235 232 254 
f 237 220 254 
f 232 243 254 
f 243 237 254 
f 214 223 255 
f 223 239 255 
f 247 214 255 
f 239 247 255 
f 245 215 256 
f 228 245 256 
f 215 249 256 
f 249 228 256 
f 211 219 257 
f 228 240 257 
f 219 241 257 
f 241 228 257 
f 219 226 258 
f 226 232 258 
f 235 219 258 
f 232 235 258 
f 213 243 259 
f 243 232 259 
f 246 213 259 
f 232 246 259 
f 220 215 260 
f 227 220 260 
f 215 245 260 
f 245 227 260 
f 249 229 261 
f 240 249 261 
f 212 221 262 
f 221 236 262 
f 237 212 262 
f 236 237 262 
f 248 211 263 
f 229 248 263 
f 211 261 263 
f 261 229 263 
f 236 218 264 
f 218 244 264 
f 244 236 264 
f 219 227 265 
f 227 241 265 
f 241 219 265 
f 211 257 266 
f 257 240 266 
f 261 211 266 
o convex_6
v -0.012419 0.010222 -0.009362
v -0.047701 -0.018736 -0.009890
v -0.046648 -0.019794 -0.009890
v -0.047701 -0.018736 0.004330
v -0.046648 0.019703 -0.009890
v -0.040855 0.020232 0.004330
v -0.012419 -0.010838 0.001696
v -0.012419 -0.009784 -0.009890
v -0.012419 0.010751 0.001696
v -0.047701 0.018649 0.004330
v -0.021372 -0.006097 0.004330
v -0.039802 -0.019794 0.004330
v -0.039802 -0.019794 -0.009890
v -0.040855 0.020232 -0.009890
v -0.047701 0.018649 -0.009890
v -0.021372 0.004431 0.004330
v -0.012419 0.009693 -0.009890
v -0.012419 -0.010838 -0.008309
v -0.027164 -0.015050 0.004330
v -0.031374 0.016545 0.004330
v -0.012419 0.010751 -0.008309
v -0.045066 0.020232 0.004330
v -0.046648 -0.019794 0.004330
v -0.045066 0.020232 -0.009890
f 288 280 290 
f 268 269 270 
f 269 268 271 
f 269 271 274 
f 267 273 274 
f 273 267 275 
f 268 270 276 
f 270 272 276 
f 272 270 277 
f 273 275 277 
f 277 270 278 
f 269 274 279 
f 278 269 279 
f 273 278 279 
f 274 271 280 
f 272 275 280 
f 271 268 281 
f 268 276 281 
f 276 271 281 
f 272 277 282 
f 277 275 282 
f 267 274 283 
f 280 267 283 
f 274 280 283 
f 274 273 284 
f 279 274 284 
f 273 279 284 
f 273 277 285 
f 278 273 285 
f 277 278 285 
f 275 272 286 
f 272 282 286 
f 282 275 286 
f 275 267 287 
f 267 280 287 
f 280 275 287 
f 271 276 288 
f 276 272 288 
f 272 280 288 
f 270 269 289 
f 269 278 289 
f 278 270 289 
f 280 271 290 
f 271 288 290 
