o convex_0
v 0.043496 -0.042464 0.015663
v 0.020044 -0.008874 0.015663
v 0.020044 -0.008874 -0.000179
v -0.022415 -0.042464 0.013761
v 0.025113 -0.055779 -0.002715
v 0.064404 -0.022823 -0.002715
v -0.021157 -0.013947 -0.002715
v -0.021790 -0.009512 0.015663
v -0.021157 -0.043098 -0.002715
v 0.064404 -0.032327 0.014395
v 0.013708 -0.054508 0.015028
v 0.042854 -0.010146 0.013126
v 0.064404 -0.032956 -0.002715
v -0.022415 -0.008874 -0.000179
v 0.063771 -0.023456 0.015028
v 0.025113 -0.055779 0.013126
v 0.049832 -0.013947 -0.002715
v 0.013708 -0.055779 -0.002715
v -0.020523 -0.041197 0.015663
v 0.013708 -0.055779 0.013126
v 0.042854 -0.010146 -0.000179
v 0.041586 -0.012047 0.015663
v -0.021157 -0.043732 0.013126
v -0.022415 -0.042464 -0.002080
v 0.024479 -0.053236 0.015663
v 0.061870 -0.020922 0.012493
v 0.062504 -0.034223 0.013126
v 0.062504 -0.031059 0.015663
v -0.020523 -0.008874 0.015663
v -0.022415 -0.010146 0.015663
v 0.065047 -0.023456 0.013126
v -0.021157 -0.043732 -0.000179
v 0.065047 -0.031693 -0.000179
v 0.054900 -0.038663 -0.000179
v 0.025113 -0.054508 0.015028
v 0.026380 -0.055141 0.012493
v 0.061236 -0.023456 0.015663
v -0.021157 -0.043098 0.014395
v 0.014342 -0.053236 0.015663
v 0.065047 -0.031693 0.013126
v 0.041586 -0.010779 0.015028
v 0.065047 -0.023456 -0.000179
v -0.022415 -0.013947 -0.002080
v 0.061870 -0.020922 -0.000179
v 0.045396 -0.011413 0.012493
v 0.063771 -0.032956 0.014395
f 35 16 46 
f 6 5 7 
f 1 2 8 
f 7 5 9 
f 3 2 12 
f 5 6 13 
f 2 3 14 
f 3 7 14 
f 7 3 17 
f 6 7 17 
f 9 5 18 
f 5 16 18 
f 1 8 19 
f 16 11 20 
f 18 16 20 
f 3 12 21 
f 17 3 21 
f 2 1 22 
f 18 20 23 
f 7 9 24 
f 4 14 24 
f 23 4 24 
f 1 19 25 
f 12 15 26 
f 10 15 28 
f 22 1 28 
f 8 2 29 
f 2 14 29 
f 14 8 29 
f 8 14 30 
f 14 4 30 
f 19 8 30 
f 4 19 30 
f 15 10 31 
f 6 26 31 
f 26 15 31 
f 9 18 32 
f 18 23 32 
f 24 9 32 
f 23 24 32 
f 13 6 33 
f 5 13 34 
f 13 27 34 
f 11 16 35 
f 1 25 35 
f 25 11 35 
f 16 5 36 
f 27 16 36 
f 5 34 36 
f 34 27 36 
f 15 22 37 
f 28 15 37 
f 22 28 37 
f 19 4 38 
f 11 19 38 
f 20 11 38 
f 4 23 38 
f 23 20 38 
f 19 11 39 
f 11 25 39 
f 25 19 39 
f 10 13 40 
f 31 10 40 
f 13 33 40 
f 33 31 40 
f 12 2 41 
f 15 12 41 
f 2 22 41 
f 22 15 41 
f 6 31 42 
f 33 6 42 
f 31 33 42 
f 14 7 43 
f 7 24 43 
f 24 14 43 
f 6 17 44 
f 26 6 44 
f 17 26 44 
f 21 12 45 
f 17 21 45 
f 12 26 45 
f 26 17 45 
f 13 10 46 
f 27 13 46 
f 16 27 46 
f 28 1 46 
f 10 28 46 
f 1 35 46 
o convex_1
v -0.022426 -0.008871 0.006157
v 0.002295 0.005702 0.007425
v 0.002295 0.005702 -0.000182
v 0.002295 -0.008871 0.007425
v -0.021158 0.005702 0.007425
v -0.022426 -0.008871 -0.000182
v -0.022426 0.005702 -0.000182
v 0.002295 -0.008871 -0.000182
v -0.021158 -0.008871 0.007425
v -0.022426 0.005702 0.006157
f 51 53 56 
f 49 48 50 
f 48 49 51 
f 50 48 51 
f 50 47 52 
f 51 49 53 
f 49 52 53 
f 52 47 53 
f 49 50 54 
f 52 49 54 
f 50 52 54 
f 47 50 55 
f 51 47 55 
f 50 51 55 
f 47 51 56 
f 53 47 56 
o convex_2
v 0.003562 0.048169 0.015028
v -0.022424 0.005705 -0.000179
v -0.022424 0.005705 0.006157
v 0.002293 0.005705 0.007424
v 0.003562 0.049441 -0.002715
v -0.021791 0.041833 0.015028
v -0.022424 0.042463 -0.002080
v 0.002293 0.008877 0.015663
v 0.003562 0.013946 -0.002715
v -0.022424 0.010144 0.015663
v -0.021157 0.013950 -0.002715
v 0.002293 0.005705 -0.000179
v -0.021157 0.043734 0.013126
v 0.003562 0.046269 0.015663
v 0.003562 0.012679 0.015663
v -0.021157 0.043101 -0.002715
v 0.002926 0.049441 0.013126
v -0.020521 0.041195 0.015663
v -0.020521 0.008877 0.015663
v -0.022424 0.042463 0.013761
v -0.021157 0.043734 -0.000179
v -0.021157 0.005705 0.007424
v -0.022424 0.013950 -0.002080
v 0.002926 0.049441 -0.002715
f 77 73 80 
f 59 58 60 
f 58 59 63 
f 61 57 65 
f 63 59 66 
f 65 58 67 
f 61 65 67 
f 60 58 68 
f 58 65 68 
f 62 57 69 
f 65 57 70 
f 66 64 70 
f 64 60 71 
f 60 68 71 
f 68 65 71 
f 65 70 71 
f 70 64 71 
f 67 63 72 
f 61 67 72 
f 57 61 73 
f 69 57 73 
f 57 62 74 
f 62 66 74 
f 70 57 74 
f 66 70 74 
f 60 64 75 
f 66 59 75 
f 64 66 75 
f 66 62 76 
f 63 66 76 
f 62 69 76 
f 69 63 76 
f 63 69 77 
f 72 63 77 
f 69 73 77 
f 59 60 78 
f 75 59 78 
f 60 75 78 
f 58 63 79 
f 67 58 79 
f 63 67 79 
f 61 72 80 
f 73 61 80 
f 72 77 80 
o convex_3
v 0.046028 0.012047 0.013761
v 0.025120 0.055780 0.013126
v 0.026384 0.055141 0.012493
v 0.003568 0.013952 -0.002715
v 0.064409 0.032956 -0.002715
v 0.013709 0.055780 -0.002715
v 0.003568 0.013319 0.015663
v 0.062507 0.031060 0.015663
v 0.003568 0.046900 0.015663
v 0.042857 0.010146 -0.000179
v 0.063777 0.022189 -0.002715
v 0.003568 0.049434 -0.002715
v 0.013071 0.008874 0.015663
v 0.025120 0.055780 -0.002715
v 0.063777 0.023456 0.015028
v 0.013071 0.008874 -0.000179
v 0.013709 0.054508 0.015028
v 0.064409 0.032956 0.013126
v 0.049832 0.013948 -0.002715
v 0.024482 0.053240 0.015663
v 0.041593 0.010780 0.015028
v 0.004832 0.050701 0.012493
v 0.065047 0.023456 0.013126
v 0.020047 0.008874 0.015663
v 0.013709 0.055780 0.013126
v 0.042857 0.012680 0.015663
v 0.061875 0.020922 0.012493
v 0.042857 0.010146 0.013126
v 0.063777 0.032956 0.014395
v 0.054905 0.038663 -0.000179
v 0.065047 0.031693 -0.000179
v 0.020047 0.008874 -0.000179
v 0.065047 0.023456 -0.000179
v 0.025120 0.054508 0.015028
v 0.062507 0.034223 0.013126
v 0.065047 0.031060 0.013761
v 0.003568 0.013319 -0.000179
v 0.003568 0.049434 0.013761
v 0.061237 0.023456 0.015663
v 0.045396 0.011413 0.012493
v 0.004832 0.050701 -0.000179
f 92 102 121 
f 85 84 86 
f 84 87 89 
f 87 88 89 
f 84 85 91 
f 86 84 92 
f 84 89 92 
f 88 87 93 
f 82 83 94 
f 85 86 94 
f 86 82 94 
f 93 87 96 
f 84 91 99 
f 96 84 99 
f 89 88 100 
f 97 89 100 
f 81 95 101 
f 88 93 104 
f 93 96 104 
f 82 86 105 
f 97 82 105 
f 86 102 105 
f 101 95 106 
f 88 104 106 
f 104 101 106 
f 95 81 107 
f 99 91 107 
f 91 103 107 
f 103 95 107 
f 81 101 108 
f 104 90 108 
f 101 104 108 
f 94 83 110 
f 85 94 110 
f 85 98 111 
f 99 90 112 
f 96 99 112 
f 90 104 112 
f 104 96 112 
f 91 85 113 
f 103 91 113 
f 85 111 113 
f 111 103 113 
f 82 97 114 
f 100 88 114 
f 97 100 114 
f 88 109 114 
f 109 82 114 
f 83 82 115 
f 98 85 115 
f 82 109 115 
f 109 98 115 
f 110 83 115 
f 85 110 115 
f 88 95 116 
f 95 103 116 
f 109 88 116 
f 98 109 116 
f 111 98 116 
f 103 111 116 
f 87 84 117 
f 84 96 117 
f 96 87 117 
f 92 89 118 
f 89 97 118 
f 102 92 118 
f 97 105 118 
f 105 102 118 
f 95 88 119 
f 88 106 119 
f 106 95 119 
f 90 99 120 
f 107 81 120 
f 99 107 120 
f 108 90 120 
f 81 108 120 
f 86 92 121 
f 102 86 121 
o convex_4
v 0.040956 -0.003166 0.025173
v 0.040326 0.002531 0.064472
v 0.047932 0.005701 0.062564
v 0.024483 0.019650 0.035951
v 0.024483 -0.019649 0.055593
v 0.052367 -0.015210 0.054962
v 0.053001 0.013941 0.035951
v 0.024483 0.019650 0.055593
v 0.024483 -0.012675 0.027711
v 0.050466 -0.016476 0.035951
v 0.051100 0.015841 0.055593
v 0.024483 0.008871 0.025173
v 0.047932 0.005701 0.025811
v 0.024483 -0.007605 0.061298
v 0.024483 -0.019649 0.035951
v 0.042226 -0.010140 0.062568
v 0.053634 -0.012040 0.035951
v 0.053634 0.012041 0.054962
v 0.042226 -0.010140 0.025807
v 0.049833 0.016476 0.035951
v 0.042226 0.010140 0.025807
v 0.035257 0.010140 0.062568
v 0.024483 0.007605 0.061298
v 0.049199 -0.002531 0.025811
v 0.024483 -0.008871 0.025173
v 0.049199 -0.002531 0.062564
v 0.046665 -0.017111 0.055593
v 0.053634 -0.012040 0.054962
v 0.053634 0.012041 0.035951
v 0.042226 0.010140 0.062568
v 0.046665 -0.012671 0.028977
v 0.036524 -0.001896 0.064472
v 0.046665 0.012672 0.028977
v 0.027017 -0.019649 0.035951
v 0.049833 0.016476 0.055593
v 0.035257 -0.010140 0.062568
v 0.024483 0.012675 0.027711
v 0.025750 0.019650 0.035951
v 0.027017 -0.019649 0.055593
v 0.024483 0.012675 0.060032
v 0.024483 -0.012675 0.060032
v 0.050466 -0.016476 0.055593
v 0.047932 -0.005701 0.062564
v 0.052367 -0.014576 0.035320
v 0.033990 -0.012671 0.027715
v 0.033990 0.012672 0.027715
v 0.025750 0.019650 0.055593
v 0.040326 -0.002531 0.064472
v 0.041593 0.002531 0.025173
v 0.053001 0.013941 0.055593
v 0.036524 0.001897 0.064472
v 0.047932 -0.005701 0.025811
v 0.053001 -0.012671 0.056228
v 0.037158 -0.018376 0.035951
v 0.049199 0.002531 0.025811
v 0.049199 0.002531 0.062564
v 0.028284 0.001266 0.062568
v 0.049199 0.010136 0.028977
v 0.045394 0.017111 0.035951
f 159 168 180 
f 125 126 129 
f 126 125 130 
f 130 125 133 
f 129 126 135 
f 126 130 136 
f 132 128 141 
f 129 135 144 
f 133 122 146 
f 130 133 146 
f 122 140 146 
f 140 130 146 
f 127 138 149 
f 138 139 149 
f 128 139 150 
f 139 138 150 
f 138 145 150 
f 123 124 151 
f 124 132 151 
f 143 123 151 
f 129 143 151 
f 141 128 154 
f 134 142 154 
f 126 136 155 
f 136 130 155 
f 132 141 156 
f 151 132 156 
f 126 137 157 
f 153 135 157 
f 133 125 158 
f 142 133 158 
f 125 129 159 
f 158 125 159 
f 137 126 160 
f 148 137 160 
f 126 155 160 
f 143 129 161 
f 129 144 161 
f 144 143 161 
f 135 126 162 
f 126 157 162 
f 157 135 162 
f 131 127 163 
f 148 131 163 
f 137 148 163 
f 137 163 164 
f 127 131 165 
f 138 127 165 
f 145 138 165 
f 131 152 165 
f 130 140 166 
f 140 152 166 
f 155 130 166 
f 152 155 166 
f 154 142 167 
f 142 158 167 
f 159 154 167 
f 158 159 167 
f 129 151 168 
f 151 156 168 
f 159 129 168 
f 147 123 169 
f 123 153 169 
f 157 137 169 
f 153 157 169 
f 164 147 169 
f 137 164 169 
f 122 133 170 
f 142 134 170 
f 133 142 170 
f 145 122 170 
f 132 124 171 
f 128 132 171 
f 139 128 171 
f 123 143 172 
f 143 144 172 
f 153 123 172 
f 140 122 173 
f 122 145 173 
f 152 140 173 
f 145 165 173 
f 165 152 173 
f 127 149 174 
f 149 139 174 
f 163 127 174 
f 147 164 174 
f 164 163 174 
f 131 148 175 
f 152 131 175 
f 155 152 175 
f 148 160 175 
f 160 155 175 
f 150 145 176 
f 170 134 176 
f 145 170 176 
f 124 123 177 
f 123 147 177 
f 171 124 177 
f 139 171 177 
f 174 139 177 
f 147 174 177 
f 144 135 178 
f 135 153 178 
f 172 144 178 
f 153 172 178 
f 128 150 179 
f 154 128 179 
f 134 154 179 
f 176 134 179 
f 150 176 179 
f 141 154 180 
f 156 141 180 
f 154 159 180 
f 168 156 180 
o convex_5
v 0.002292 -0.022181 0.015665
v -0.012281 0.000634 0.025173
v -0.012281 0.000634 0.021368
v -0.022420 -0.021549 0.025173
v 0.006726 -0.019015 0.025173
v -0.022420 -0.010142 0.015665
v 0.002292 -0.008875 0.015665
v -0.021153 -0.022819 0.015665
v -0.022420 0.000634 0.025173
v 0.001025 -0.022819 0.025173
v 0.002292 -0.008875 0.025173
v 0.006726 -0.013944 0.015665
v -0.022420 0.000634 0.021368
v -0.021153 -0.022819 0.025173
v 0.006726 -0.019015 0.015665
v 0.006726 -0.013944 0.025173
v -0.020520 -0.008875 0.015665
v -0.022420 -0.021549 0.015665
v 0.001025 -0.022819 0.015665
f 190 188 199 
f 182 184 185 
f 183 182 187 
f 181 186 187 
f 186 181 188 
f 182 183 189 
f 184 182 189 
f 186 184 189 
f 181 185 190 
f 185 184 190 
f 182 185 191 
f 187 182 191 
f 187 191 192 
f 181 187 192 
f 183 187 193 
f 189 183 193 
f 186 189 193 
f 184 188 194 
f 190 184 194 
f 188 190 194 
f 185 181 195 
f 181 192 195 
f 192 185 195 
f 191 185 196 
f 192 191 196 
f 185 192 196 
f 187 186 197 
f 193 187 197 
f 186 193 197 
f 184 186 198 
f 188 184 198 
f 186 188 198 
f 188 181 199 
f 181 190 199 
o convex_6
v 0.020043 0.008874 0.015665
v 0.001024 0.022819 0.025173
v 0.001024 0.022819 0.015665
v -0.021790 0.009509 0.025173
v -0.022426 0.021549 0.015665
v 0.020043 0.008874 0.025173
v -0.020522 0.008874 0.015665
v -0.021158 0.022819 0.025173
v 0.016871 0.012044 0.015665
v -0.021158 0.022819 0.015665
v -0.020522 0.008874 0.025173
v -0.022426 0.010144 0.015665
v -0.022426 0.021549 0.025173
v 0.019407 0.010144 0.025173
v 0.004196 0.020916 0.025173
v -0.022426 0.010144 0.025173
f 212 211 215 
f 202 200 204 
f 201 203 205 
f 204 200 206 
f 200 205 206 
f 201 202 207 
f 203 201 207 
f 200 202 208 
f 202 204 209 
f 207 202 209 
f 204 207 209 
f 205 203 210 
f 203 206 210 
f 206 205 210 
f 206 203 211 
f 204 206 211 
f 203 207 212 
f 207 204 212 
f 204 211 212 
f 201 205 213 
f 205 200 213 
f 200 208 213 
f 213 208 214 
f 202 201 214 
f 208 202 214 
f 201 213 214 
f 211 203 215 
f 203 212 215 
o convex_7
v 0.026381 0.008238 0.025173
v 0.023212 -0.008237 0.023905
v 0.023846 -0.008873 0.023905
v 0.023212 -0.008237 0.025173
v 0.023212 0.008238 0.023905
v 0.026381 -0.008237 0.023905
v 0.026381 -0.008237 0.025173
v 0.023212 0.008238 0.025173
v 0.026381 0.008238 0.023905
f 221 220 224 
f 217 218 219 
f 218 217 220 
f 217 219 220 
f 218 220 221 
f 219 218 222 
f 216 219 222 
f 218 221 222 
f 221 216 222 
f 219 216 223 
f 216 220 223 
f 220 219 223 
f 220 216 224 
f 216 221 224 
o convex_8
v -0.031300 0.019007 0.025806
v -0.026863 0.019645 0.068909
v -0.027497 0.019645 0.068909
v -0.031300 -0.025988 0.063833
v -0.026863 -0.024083 0.027709
v -0.026863 0.024716 0.028979
v -0.026229 -0.022179 0.067635
v -0.031300 0.024716 0.065732
v -0.031300 -0.024083 0.027709
v -0.026229 0.022178 0.035316
v -0.031300 -0.020274 0.068909
v -0.026229 0.022816 0.066373
v -0.031300 0.025354 0.030245
v -0.026229 -0.022179 0.035316
v -0.026863 -0.019641 0.025806
v -0.026863 -0.025988 0.030878
v -0.026863 0.019012 0.025806
v -0.026863 0.025354 0.064470
v -0.026863 -0.025988 0.063833
v -0.031300 0.019640 0.068909
v -0.031300 -0.019641 0.025806
v -0.031300 -0.025988 0.030878
v -0.026863 -0.020274 0.068909
v -0.026863 0.025354 0.030245
v -0.031300 0.025354 0.064470
v -0.031300 -0.023450 0.067635
v -0.026229 0.022178 0.067635
v -0.031300 0.022816 0.027076
f 230 241 252 
f 225 228 232 
f 228 225 233 
f 226 227 235 
f 232 228 235 
f 231 234 236 
f 225 232 237 
f 234 231 238 
f 234 238 239 
f 229 233 239 
f 238 229 239 
f 233 229 240 
f 229 238 240 
f 238 231 240 
f 230 234 241 
f 234 239 241 
f 239 225 241 
f 228 240 243 
f 240 231 243 
f 235 227 244 
f 232 235 244 
f 233 225 245 
f 225 239 245 
f 239 233 245 
f 228 233 246 
f 240 228 246 
f 233 240 246 
f 231 226 247 
f 226 235 247 
f 234 230 248 
f 236 234 248 
f 230 237 248 
f 242 236 248 
f 237 242 248 
f 237 232 249 
f 232 242 249 
f 242 237 249 
f 235 228 250 
f 228 243 250 
f 243 231 250 
f 231 247 250 
f 247 235 250 
f 227 226 251 
f 226 231 251 
f 231 236 251 
f 242 232 251 
f 236 242 251 
f 244 227 251 
f 232 244 251 
f 225 237 252 
f 237 230 252 
f 241 225 252 
o convex_9
v 0.007366 -0.018382 0.015665
v 0.020043 -0.008874 0.025173
v 0.020043 -0.009509 0.025173
v 0.006732 -0.018382 0.025173
v 0.013072 -0.008874 0.015665
v 0.006732 -0.013943 0.025173
v 0.020043 -0.009509 0.015665
v 0.013072 -0.008874 0.025173
v 0.006732 -0.013943 0.015665
v 0.010535 -0.016479 0.025173
v 0.016873 -0.012045 0.015665
f 262 253 263 
f 255 254 256 
f 256 254 258 
f 254 255 259 
f 253 257 259 
f 257 254 259 
f 254 257 260 
f 258 254 260 
f 257 258 260 
f 253 256 261 
f 257 253 261 
f 258 257 261 
f 256 258 261 
f 255 256 262 
f 256 253 262 
f 253 259 263 
f 259 255 263 
f 255 262 263 
o convex_10
v 0.002929 -0.022185 0.040385
v 0.006098 0.008874 0.051161
v 0.006098 0.008874 0.040385
v 0.006098 -0.022185 0.051161
v 0.003563 0.008874 0.051161
v 0.006098 -0.022185 0.040385
v 0.002929 -0.022185 0.051161
v 0.003563 0.008874 0.040385
v 0.002929 -0.012043 0.051161
v 0.002929 -0.012043 0.040385
f 264 272 273 
f 266 265 267 
f 265 266 268 
f 267 265 268 
f 264 266 269 
f 266 267 269 
f 267 264 269 
f 264 267 270 
f 267 268 270 
f 266 264 271 
f 268 266 271 
f 268 271 272 
f 264 270 272 
f 270 268 272 
f 271 264 273 
f 272 271 273 
o convex_11
v -0.021154 -0.022819 0.025174
v 0.001027 0.022819 0.035314
v 0.001027 0.022819 0.025174
v 0.024480 -0.012674 0.035314
v -0.022426 -0.021546 0.035314
v -0.022426 0.021546 0.025174
v 0.024480 0.008868 0.025174
v -0.021154 0.022819 0.035314
v 0.001027 -0.022819 0.025174
v 0.024480 0.012674 0.035314
v 0.024480 -0.008867 0.025174
v 0.001027 -0.022819 0.035314
v 0.024480 -0.012674 0.027710
v 0.024480 0.012674 0.027710
v -0.022426 -0.021546 0.025174
v -0.022426 0.021546 0.035314
v -0.021154 0.022819 0.025174
v -0.021154 -0.022819 0.035314
f 285 278 291 
f 277 275 278 
f 276 274 279 
f 274 276 280 
f 275 276 281 
f 278 275 281 
f 274 280 282 
f 276 275 283 
f 275 277 283 
f 277 280 283 
f 280 277 284 
f 282 280 284 
f 277 278 285 
f 274 282 285 
f 282 277 285 
f 277 282 286 
f 284 277 286 
f 282 284 286 
f 280 276 287 
f 276 283 287 
f 283 280 287 
f 274 278 288 
f 278 279 288 
f 279 274 288 
f 279 278 289 
f 278 281 289 
f 281 279 289 
f 276 279 290 
f 281 276 290 
f 279 281 290 
f 278 274 291 
f 274 285 291 
o convex_12
v 0.009902 -0.021547 0.035318
v 0.011168 0.013307 0.070173
v 0.006100 0.013307 0.070173
v 0.008635 0.021548 0.035318
v 0.024478 0.019012 0.035318
v 0.024478 -0.019649 0.055593
v 0.006100 -0.017113 0.068904
v 0.024478 0.003162 0.070173
v 0.024478 -0.019649 0.035318
v 0.019407 0.024079 0.052433
v 0.006100 -0.022185 0.035952
v 0.006733 0.025354 0.041657
v 0.019407 -0.010137 0.070173
v 0.024478 0.019649 0.055593
v 0.007366 -0.022185 0.055593
v 0.006733 0.025354 0.052433
v 0.006100 0.021548 0.035318
v 0.009268 0.017113 0.068904
v 0.016872 0.024712 0.041657
v 0.019407 0.010138 0.070173
v 0.024478 -0.003162 0.070173
v 0.006100 -0.013311 0.070173
v 0.009268 -0.017113 0.068904
v 0.022578 -0.020277 0.035952
v 0.006100 0.017113 0.068904
v 0.011803 0.025354 0.051798
v 0.021943 -0.020277 0.055593
v 0.024478 0.019649 0.035952
v 0.014974 -0.013306 0.070173
v 0.006100 -0.022185 0.055593
v 0.014974 0.013302 0.070173
v 0.006100 -0.021547 0.035318
v 0.019407 0.024079 0.041657
v 0.006100 0.022818 0.051798
v 0.008001 -0.022185 0.035952
v 0.021943 -0.007601 0.070173
v 0.021943 0.007602 0.070173
v 0.009268 0.025354 0.041023
v 0.022578 -0.020277 0.054962
f 326 315 330 
f 292 295 296 
f 293 294 299 
f 297 296 299 
f 292 296 300 
f 296 297 300 
f 298 294 302 
f 299 294 304 
f 299 296 305 
f 295 292 308 
f 302 294 308 
f 294 293 309 
f 305 301 309 
f 293 299 311 
f 297 299 312 
f 299 304 312 
f 294 298 313 
f 304 294 313 
f 298 306 314 
f 313 298 314 
f 300 297 315 
f 308 294 316 
f 294 309 316 
f 309 307 316 
f 303 307 317 
f 309 301 317 
f 307 309 317 
f 301 310 317 
f 297 314 318 
f 314 306 318 
f 296 295 319 
f 305 296 319 
f 301 305 319 
f 295 310 319 
f 297 304 320 
f 304 313 320 
f 313 314 320 
f 314 297 320 
f 298 302 321 
f 306 298 321 
f 302 306 321 
f 309 293 322 
f 305 309 322 
f 293 311 322 
f 311 305 322 
f 292 302 323 
f 308 292 323 
f 302 308 323 
f 310 301 324 
f 301 319 324 
f 319 310 324 
f 307 303 325 
f 303 308 325 
f 316 307 325 
f 308 316 325 
f 292 300 326 
f 302 292 326 
f 306 302 326 
f 300 315 326 
f 304 297 327 
f 297 312 327 
f 312 304 327 
f 299 305 328 
f 311 299 328 
f 305 311 328 
f 308 303 329 
f 295 308 329 
f 310 295 329 
f 303 317 329 
f 317 310 329 
f 315 297 330 
f 297 318 330 
f 318 306 330 
f 306 326 330 
o convex_13
v 0.004829 0.019647 0.067638
v -0.026229 -0.022819 0.051161
v 0.002927 -0.022819 0.051161
v 0.001658 0.022819 0.051161
v -0.026229 0.022819 0.067005
v -0.026229 -0.022184 0.067638
v 0.006098 -0.013303 0.070175
v -0.023691 0.022819 0.051161
v -0.020520 0.013304 0.070175
v 0.006098 0.022185 0.051161
v 0.001025 -0.022819 0.067005
v 0.006098 -0.022184 0.051161
v 0.006098 0.013308 0.070175
v -0.020520 -0.013303 0.070175
v 0.001025 0.022819 0.067005
v -0.026229 0.022819 0.054967
v 0.006098 -0.019013 0.066370
v -0.026229 0.022185 0.067638
v -0.026229 0.008233 0.051161
v -0.026229 -0.022819 0.067005
v 0.006098 0.015846 0.069540
v 0.001025 -0.022184 0.067638
v 0.006098 0.022185 0.055600
v 0.001025 0.022185 0.067638
v 0.006098 -0.022184 0.055600
v 0.006098 -0.015841 0.069540
v 0.004193 -0.020916 0.067005
f 347 356 357 
f 333 332 334 
f 335 332 336 
f 334 332 338 
f 335 334 338 
f 333 334 340 
f 332 333 341 
f 333 340 342 
f 340 337 342 
f 339 337 343 
f 337 340 343 
f 339 336 344 
f 337 339 344 
f 334 335 345 
f 332 335 346 
f 335 338 346 
f 342 337 347 
f 335 336 348 
f 336 339 348 
f 345 335 348 
f 338 332 349 
f 332 346 349 
f 346 338 349 
f 336 332 350 
f 332 341 350 
f 341 336 350 
f 339 343 351 
f 343 340 351 
f 348 339 351 
f 336 341 352 
f 340 334 353 
f 334 345 353 
f 345 331 353 
f 331 351 353 
f 351 340 353 
f 331 345 354 
f 345 348 354 
f 351 331 354 
f 348 351 354 
f 341 333 355 
f 333 342 355 
f 342 347 355 
f 344 336 356 
f 337 344 356 
f 347 337 356 
f 336 352 356 
f 356 352 357 
f 352 341 357 
f 341 355 357 
f 355 347 357 
o convex_14
v 0.006098 0.021551 0.035948
v -0.026229 -0.022181 0.035314
v 0.005462 -0.022181 0.035314
v -0.026229 0.022181 0.035314
v -0.026229 -0.022181 0.035948
v -0.026229 0.022181 0.035948
v 0.006098 0.021551 0.035314
v 0.006098 -0.021551 0.035948
f 360 364 365 
f 360 359 361 
f 359 360 362 
f 361 359 362 
f 358 361 363 
f 362 358 363 
f 361 362 363 
f 360 361 364 
f 361 358 364 
f 358 362 365 
f 362 360 365 
f 364 358 365 
o convex_15
v -0.023691 0.008874 0.040385
v 0.001657 0.022819 0.051161
v 0.006095 0.022183 0.051161
v 0.001657 0.022819 0.040385
v 0.006095 0.008874 0.040385
v -0.023691 0.008874 0.051161
v -0.023691 0.022819 0.040385
v 0.006095 0.008874 0.051161
v -0.023691 0.022819 0.051161
v 0.006095 0.022183 0.040385
f 368 370 375 
f 367 368 369 
f 366 369 370 
f 368 367 371 
f 366 370 371 
f 366 371 372 
f 367 369 372 
f 369 366 372 
f 370 368 373 
f 368 371 373 
f 371 370 373 
f 371 367 374 
f 372 371 374 
f 367 372 374 
f 369 368 375 
f 370 369 375 
o convex_16
v 0.002929 -0.022181 0.035948
v 0.006098 0.022181 0.040385
v 0.002929 0.022181 0.040385
v 0.006098 -0.022181 0.040385
v 0.006098 0.022181 0.035948
v 0.002929 0.022181 0.035948
v 0.002929 -0.022181 0.040385
v 0.006098 -0.022181 0.035948
f 380 379 383 
f 377 378 379 
f 378 377 380 
f 377 379 380 
f 376 378 381 
f 380 376 381 
f 378 380 381 
f 378 376 382 
f 379 378 382 
f 376 379 382 
f 379 376 383 
f 376 380 383 
o convex_17
v -0.021791 0.010142 0.035948
v 0.001658 0.022819 0.040385
v 0.002929 0.022185 0.040385
v -0.023692 0.010142 0.040385
v -0.026229 0.022819 0.035948
v 0.002929 0.012044 0.035948
v -0.023692 0.022819 0.040385
v 0.001658 0.022819 0.035948
v 0.002929 0.012044 0.040385
v -0.026229 0.010142 0.039751
v -0.026229 0.010142 0.035948
v -0.026229 0.022819 0.039751
v 0.002929 0.022185 0.035948
f 389 391 396 
f 386 385 387 
f 384 388 389 
f 387 385 390 
f 385 388 390 
f 385 386 391 
f 388 385 391 
f 389 388 391 
f 386 387 392 
f 387 384 392 
f 389 386 392 
f 384 389 392 
f 384 387 393 
f 387 390 393 
f 388 384 394 
f 384 393 394 
f 393 388 394 
f 390 388 395 
f 388 393 395 
f 393 390 395 
f 386 389 396 
f 391 386 396 
o convex_18
v -0.026228 -0.022819 0.035950
v -0.021793 0.008874 0.051159
v -0.021793 0.010142 0.040386
v -0.021158 -0.022819 0.035950
v -0.026228 -0.022819 0.051159
v -0.026228 0.010142 0.035950
v -0.021158 -0.022819 0.051159
v -0.026228 0.008235 0.051159
v -0.021793 0.010142 0.035950
v -0.021158 -0.012669 0.051159
v -0.021158 -0.012669 0.035950
v -0.025594 0.008874 0.051159
f 402 404 408 
f 397 400 401 
f 400 397 402 
f 397 401 402 
f 401 400 403 
f 398 401 403 
f 401 398 404 
f 402 401 404 
f 402 399 405 
f 400 402 405 
f 399 398 406 
f 398 403 406 
f 403 400 406 
f 405 399 406 
f 405 406 407 
f 400 405 407 
f 406 400 407 
f 398 399 408 
f 399 402 408 
f 404 398 408 
o convex_19
v 0.002929 -0.012043 0.040386
v -0.021158 -0.022819 0.035950
v -0.021158 -0.012043 0.035950
v -0.021158 -0.022819 0.051159
v 0.002929 -0.022819 0.035950
v 0.002926 -0.012043 0.051159
v 0.002926 -0.022819 0.051159
v -0.021158 -0.012043 0.051159
v 0.002929 -0.012043 0.035950
f 413 411 417 
f 411 410 412 
f 410 411 413 
f 412 410 413 
f 409 411 414 
f 413 409 415 
f 412 413 415 
f 409 414 415 
f 414 412 415 
f 411 412 416 
f 414 411 416 
f 412 414 416 
f 411 409 417 
f 409 413 417 
