o convex_0
v -0.015927 -0.003616 -0.097686
v -0.007566 0.005204 -0.093972
v -0.007566 -0.005938 -0.093972
v -0.030323 0.007528 -0.057290
v -0.013142 -0.009655 -0.057290
v -0.028929 -0.009655 -0.057754
v -0.013605 0.009387 -0.057290
v -0.015927 0.006134 -0.093045
v -0.008032 0.001025 -0.104656
v -0.015927 -0.007333 -0.089790
v -0.011282 0.007992 -0.064723
v -0.028000 0.009387 -0.058686
v -0.030323 -0.007333 -0.058218
v -0.014069 0.001025 -0.102796
v -0.010819 0.007064 -0.088399
v -0.012211 -0.004080 -0.102332
v -0.011282 -0.008725 -0.064723
v -0.010353 -0.007797 -0.085148
v -0.010353 0.004742 -0.100009
v -0.030323 0.007064 -0.058218
v -0.008498 -0.005938 -0.097686
v -0.018250 -0.006403 -0.089331
v -0.018713 0.005670 -0.088863
v -0.026142 -0.009655 -0.061468
v -0.007566 -0.002222 -0.103724
v -0.029858 -0.008725 -0.057290
v -0.008498 0.006134 -0.094900
v -0.018250 0.007528 -0.083289
v -0.013605 0.009387 -0.059613
v -0.012677 0.003812 -0.101869
v -0.014069 -0.009655 -0.061473
v -0.013142 -0.000829 -0.104187
v -0.007566 0.003348 -0.101869
v -0.014069 -0.005938 -0.097223
v -0.015463 0.002419 -0.099082
v -0.029392 0.008921 -0.057754
v -0.013142 0.008921 -0.057290
v -0.014534 0.006134 -0.094436
v -0.011748 0.001955 -0.104187
v -0.029858 -0.008725 -0.058218
v -0.008032 -0.004080 -0.102332
v -0.011282 -0.001760 -0.104651
v -0.019642 -0.008261 -0.079580
v -0.015463 0.004278 -0.097686
v -0.014069 -0.003616 -0.101400
v -0.018250 -0.005010 -0.091186
v -0.011748 -0.009189 -0.065651
v -0.017321 -0.007333 -0.088399
v -0.008032 0.003348 -0.102796
v -0.008032 -0.006403 -0.094900
v -0.027071 0.009387 -0.059613
v -0.020106 0.007528 -0.080971
v -0.028463 0.009387 -0.057290
v -0.011748 0.008456 -0.069833
f 29 7 54 
f 4 5 7 
f 3 2 11 
f 3 11 17 
f 11 5 17 
f 13 4 20 
f 5 6 24 
f 2 3 25 
f 5 4 26 
f 6 5 26 
f 4 13 26 
f 11 2 27 
f 15 28 29 
f 12 7 29 
f 5 24 31 
f 1 14 32 
f 2 25 33 
f 25 9 33 
f 27 2 33 
f 16 21 34 
f 21 10 34 
f 1 13 35 
f 14 1 35 
f 13 20 35 
f 20 23 35 
f 20 4 36 
f 23 20 36 
f 7 5 37 
f 5 11 37 
f 11 7 37 
f 15 27 38 
f 27 19 38 
f 8 28 38 
f 28 15 38 
f 19 30 38 
f 30 8 38 
f 14 30 39 
f 32 14 39 
f 22 6 40 
f 6 26 40 
f 26 13 40 
f 21 16 41 
f 25 3 41 
f 25 41 42 
f 9 25 42 
f 16 32 42 
f 32 39 42 
f 39 9 42 
f 41 16 42 
f 10 18 43 
f 24 6 43 
f 18 31 43 
f 31 24 43 
f 23 8 44 
f 30 14 44 
f 8 30 44 
f 14 35 44 
f 35 23 44 
f 1 32 45 
f 32 16 45 
f 16 34 45 
f 34 22 45 
f 13 1 46 
f 40 13 46 
f 22 40 46 
f 1 45 46 
f 45 22 46 
f 3 17 47 
f 17 5 47 
f 5 31 47 
f 31 18 47 
f 6 22 48 
f 34 10 48 
f 22 34 48 
f 43 6 48 
f 10 43 48 
f 19 27 49 
f 30 19 49 
f 33 9 49 
f 27 33 49 
f 39 30 49 
f 9 39 49 
f 18 10 50 
f 10 21 50 
f 41 3 50 
f 21 41 50 
f 3 47 50 
f 47 18 50 
f 28 12 51 
f 29 28 51 
f 12 29 51 
f 8 23 52 
f 12 28 52 
f 28 8 52 
f 36 12 52 
f 23 36 52 
f 4 7 53 
f 7 12 53 
f 36 4 53 
f 12 36 53 
f 7 11 54 
f 11 27 54 
f 27 15 54 
f 15 29 54 
o convex_1
v -0.013140 0.011708 -0.045679
v -0.035432 -0.013832 -0.038246
v -0.035432 -0.013832 -0.037780
v -0.034967 0.014494 -0.037780
v -0.030322 0.007993 -0.057286
v -0.013607 -0.010117 -0.057286
v -0.014999 -0.015690 -0.037780
v -0.029857 -0.009189 -0.057286
v -0.014999 0.015424 -0.037780
v -0.013140 0.009384 -0.057286
v -0.033108 -0.016157 -0.038246
v -0.035432 0.010778 -0.043819
v -0.035432 -0.011047 -0.043819
v -0.033108 0.015424 -0.038710
v -0.013140 -0.011974 -0.044747
v -0.028929 0.009384 -0.057286
v -0.027537 -0.010117 -0.057286
v -0.030786 -0.007795 -0.056820
v -0.015464 -0.016157 -0.038246
v -0.013140 -0.009653 -0.057286
v -0.014069 0.009850 -0.056356
v -0.015464 0.015424 -0.038710
v -0.035432 0.013566 -0.037780
v -0.032179 0.007526 -0.053102
v -0.013140 0.011708 -0.044747
v -0.034503 -0.011974 -0.044747
v -0.026608 0.009850 -0.056356
v -0.034038 -0.009189 -0.047995
v -0.034038 0.012172 -0.044283
v -0.033108 -0.016157 -0.037780
v -0.030786 0.007526 -0.056820
v -0.034038 -0.015690 -0.038246
f 65 84 86 
f 58 57 61 
f 59 60 62 
f 58 61 63 
f 60 59 64 
f 63 55 64 
f 56 57 66 
f 56 66 67 
f 58 63 68 
f 63 61 69 
f 64 55 69 
f 64 59 70 
f 62 60 71 
f 60 65 71 
f 65 62 71 
f 59 62 72 
f 62 67 72 
f 65 60 73 
f 60 64 74 
f 69 61 74 
f 64 69 74 
f 73 60 74 
f 61 73 74 
f 64 70 75 
f 63 64 76 
f 68 63 76 
f 64 75 76 
f 75 68 76 
f 57 58 77 
f 66 57 77 
f 58 66 77 
f 55 63 79 
f 69 55 79 
f 63 69 79 
f 67 62 80 
f 56 67 80 
f 70 68 81 
f 68 75 81 
f 75 70 81 
f 67 66 82 
f 72 67 82 
f 66 78 82 
f 78 72 82 
f 66 58 83 
f 59 66 83 
f 58 68 83 
f 70 59 83 
f 68 70 83 
f 61 57 84 
f 73 61 84 
f 65 73 84 
f 66 59 85 
f 59 72 85 
f 78 66 85 
f 72 78 85 
f 57 56 86 
f 62 65 86 
f 56 80 86 
f 80 62 86 
f 84 57 86 
o convex_2
v 0.027725 -0.021261 -0.007129
v 0.022155 0.024248 -0.007129
v 0.022155 0.024248 -0.008984
v -0.035432 -0.014295 -0.011772
v -0.033573 0.013563 -0.004805
v 0.002182 -0.028232 -0.004805
v 0.028193 -0.014758 -0.011772
v -0.012670 0.024248 -0.011772
v 0.028193 0.017277 -0.004805
v 0.012399 -0.028232 -0.011307
v -0.033573 -0.013833 -0.004805
v 0.028193 0.014955 -0.011772
v -0.035432 0.014025 -0.011772
v -0.012209 0.023313 -0.005270
v 0.028655 -0.015225 -0.004805
v -0.014529 -0.023583 -0.011772
v 0.030052 0.016810 -0.008984
v -0.034496 -0.015687 -0.006664
v 0.012399 -0.028232 -0.004805
v 0.012867 0.024248 -0.011772
v -0.034964 0.014493 -0.006664
v 0.022617 0.022389 -0.004805
v 0.030052 -0.015225 -0.009913
v 0.002182 -0.028232 -0.011307
v 0.030052 -0.015687 -0.006199
v 0.025867 -0.022658 -0.009448
v -0.035432 -0.013833 -0.006664
v -0.012670 0.024248 -0.007129
v -0.013600 -0.024051 -0.007129
v 0.025867 0.022383 -0.009913
v -0.033573 0.015885 -0.007129
v 0.030052 0.015423 -0.006199
v -0.034035 -0.016155 -0.011772
v -0.012670 0.022389 -0.004805
v 0.028193 0.020529 -0.006664
v 0.026796 -0.020799 -0.005270
v -0.013138 -0.023121 -0.004805
v -0.033573 0.015885 -0.011772
v 0.027725 -0.019407 -0.010842
v -0.035432 0.013096 -0.006664
v 0.002650 -0.024051 -0.011772
v 0.024937 0.020991 -0.011307
v 0.024476 -0.023583 -0.007593
v 0.021226 0.023776 -0.005735
v 0.030052 0.014955 -0.009913
v -0.034964 -0.013833 -0.005735
v -0.033105 0.015418 -0.005735
v 0.028193 0.019599 -0.010378
v 0.024476 -0.021261 -0.011307
v 0.029123 -0.019407 -0.008520
v -0.033573 -0.015220 -0.005270
v -0.034035 -0.016155 -0.007129
v 0.025405 0.022383 -0.005735
v -0.034496 0.013096 -0.005270
v -0.012209 0.024248 -0.006664
v -0.013600 -0.024051 -0.011307
v 0.024937 -0.021261 -0.004805
v 0.024937 -0.022653 -0.005735
v 0.023085 0.022851 -0.010842
v 0.028655 0.014955 -0.004805
v 0.025867 0.022851 -0.007593
v -0.014061 0.023776 -0.007129
f 133 141 148 
f 88 89 94 
f 93 90 94 
f 91 92 95 
f 92 91 97 
f 93 94 98 
f 94 90 99 
f 95 92 101 
f 90 93 102 
f 92 96 105 
f 101 92 105 
f 94 89 106 
f 98 94 106 
f 91 95 108 
f 93 98 109 
f 96 92 110 
f 109 103 111 
f 99 90 113 
f 90 104 113 
f 88 94 114 
f 110 92 115 
f 99 107 117 
f 101 111 118 
f 111 103 118 
f 90 102 119 
f 104 90 119 
f 91 108 120 
f 108 100 120 
f 95 118 121 
f 118 103 121 
f 87 111 122 
f 111 101 122 
f 92 97 123 
f 115 92 123 
f 94 99 124 
f 99 117 124 
f 93 109 125 
f 107 99 126 
f 99 113 126 
f 93 96 127 
f 102 93 127 
f 96 110 127 
f 110 102 127 
f 98 106 128 
f 105 96 129 
f 96 112 129 
f 112 87 129 
f 100 108 130 
f 109 98 131 
f 103 109 131 
f 113 104 132 
f 126 113 132 
f 107 91 133 
f 117 107 133 
f 91 120 133 
f 120 100 133 
f 116 121 134 
f 121 103 134 
f 98 128 134 
f 128 116 134 
f 131 98 134 
f 103 131 134 
f 96 93 135 
f 112 96 135 
f 93 125 135 
f 125 112 135 
f 111 87 136 
f 109 111 136 
f 87 112 136 
f 125 109 136 
f 112 125 136 
f 123 97 137 
f 97 132 137 
f 132 104 137 
f 104 119 138 
f 119 115 138 
f 115 123 138 
f 123 137 138 
f 137 104 138 
f 108 95 139 
f 95 121 139 
f 88 130 139 
f 130 108 139 
f 97 91 140 
f 91 107 140 
f 107 126 140 
f 132 97 140 
f 126 132 140 
f 88 114 141 
f 130 88 141 
f 100 130 141 
f 133 100 141 
f 102 110 142 
f 110 115 142 
f 119 102 142 
f 115 119 142 
f 101 105 143 
f 122 101 143 
f 122 143 144 
f 87 122 144 
f 105 129 144 
f 129 87 144 
f 143 105 144 
f 106 89 145 
f 89 116 145 
f 128 106 145 
f 116 128 145 
f 95 101 146 
f 118 95 146 
f 101 118 146 
f 89 88 147 
f 116 89 147 
f 121 116 147 
f 88 139 147 
f 139 121 147 
f 114 94 148 
f 94 124 148 
f 124 117 148 
f 117 133 148 
f 141 114 148 
o convex_3
v -0.017319 -0.020336 -0.004341
v -0.010353 -0.015693 -0.001554
v -0.010353 -0.021729 -0.001554
v -0.010353 -0.015693 -0.004805
v -0.016854 -0.015693 -0.001554
v -0.010353 -0.023122 -0.004805
v -0.019642 -0.015693 -0.004805
v -0.016389 -0.019408 -0.001554
v -0.013140 -0.022658 -0.003876
v -0.018712 -0.019408 -0.004805
v -0.019642 -0.017551 -0.004341
f 158 156 159 
f 150 151 152 
f 151 150 153 
f 150 152 153 
f 152 151 154 
f 152 154 155 
f 153 152 155 
f 151 153 156 
f 151 156 157 
f 154 151 157 
f 156 149 157 
f 154 157 158 
f 155 154 158 
f 149 156 158 
f 157 149 158 
f 153 155 159 
f 156 153 159 
f 155 158 159 
o convex_4
v 0.011473 -0.005009 -0.004805
v 0.002646 0.012173 0.001232
v 0.004505 0.011708 0.001232
v -0.003385 -0.011977 0.001232
v -0.016855 0.004740 -0.004805
v 0.004505 0.011708 -0.004805
v -0.004777 -0.011512 -0.004805
v 0.012404 -0.001293 0.001232
v -0.011743 0.004740 0.000303
v -0.016855 -0.004546 -0.004341
v 0.006828 -0.010582 0.001232
v 0.011009 0.006135 -0.004805
v -0.002919 0.012173 0.001232
v 0.003577 -0.011977 -0.004805
v -0.002919 0.012173 -0.004805
v -0.011743 -0.004546 0.000303
v 0.010078 0.007528 0.001232
v 0.012404 0.001490 -0.004805
v 0.010545 -0.006866 0.001232
v 0.008686 -0.009189 -0.004805
v 0.000790 -0.012442 0.001232
v 0.011937 0.003812 0.001232
v 0.007292 0.010313 -0.004805
v -0.016855 -0.004546 -0.004805
v -0.000605 -0.012442 -0.004805
v -0.016388 0.004740 -0.003876
v -0.004313 0.011708 0.000768
v 0.007292 0.010313 0.001232
v -0.004313 0.011708 -0.004805
v -0.004777 -0.011512 0.000303
f 169 166 189 
f 162 161 163 
f 161 162 165 
f 160 164 165 
f 164 160 166 
f 162 163 167 
f 167 163 170 
f 160 165 171 
f 163 161 172 
f 168 163 172 
f 166 160 173 
f 161 165 174 
f 165 164 174 
f 172 161 174 
f 163 168 175 
f 169 163 175 
f 162 167 176 
f 167 160 177 
f 160 171 177 
f 160 167 178 
f 167 170 178 
f 178 170 179 
f 173 160 179 
f 170 173 179 
f 160 178 179 
f 170 163 180 
f 173 170 180 
f 176 167 181 
f 171 176 181 
f 177 171 181 
f 167 177 181 
f 165 162 182 
f 171 165 182 
f 176 171 182 
f 164 166 183 
f 169 164 183 
f 166 169 183 
f 163 166 184 
f 166 173 184 
f 180 163 184 
f 173 180 184 
f 164 169 185 
f 175 168 185 
f 169 175 185 
f 168 172 186 
f 172 174 186 
f 164 185 186 
f 185 168 186 
f 162 176 187 
f 182 162 187 
f 176 182 187 
f 174 164 188 
f 164 186 188 
f 186 174 188 
f 166 163 189 
f 163 169 189 
o convex_5
v 0.004504 0.023780 -0.029417
v -0.035432 -0.014294 -0.037780
v -0.034963 -0.015225 -0.037314
v -0.035432 0.014026 -0.011774
v 0.002648 -0.024052 -0.011772
v 0.007760 -0.015689 -0.035921
v 0.007760 0.024248 -0.011772
v -0.033107 0.015885 -0.037780
v -0.034963 -0.015225 -0.011774
v 0.001718 0.020527 -0.037314
v -0.013604 -0.024052 -0.029883
v -0.012678 0.024248 -0.011772
v 0.007760 -0.016152 -0.011772
v -0.005710 -0.020800 -0.037314
v 0.007760 0.015885 -0.035921
v -0.015925 0.022854 -0.034524
v -0.014530 -0.023584 -0.011772
v -0.035432 0.013563 -0.037780
v 0.007295 -0.019405 -0.031739
v -0.003854 -0.024052 -0.029417
v -0.014995 -0.016152 -0.037780
v -0.012678 0.024248 -0.029417
v -0.033572 0.015885 -0.011774
v -0.015925 -0.022653 -0.035455
v -0.034037 -0.016157 -0.037314
v 0.007760 0.024248 -0.021527
v -0.034037 -0.016157 -0.011774
v -0.035432 -0.014294 -0.011774
v -0.014995 0.015416 -0.037780
v -0.015925 0.021459 -0.036851
v 0.000792 0.022385 -0.035919
v 0.007295 -0.019405 -0.015025
v -0.033572 0.015885 -0.037314
v -0.013604 -0.024052 -0.015025
v -0.007106 -0.022658 -0.035455
v 0.002183 0.015885 -0.037314
v -0.015460 -0.020800 -0.037314
v 0.003113 0.024248 -0.029417
v -0.014065 0.023780 -0.031275
v -0.034502 0.015421 -0.037314
v -0.033572 -0.016157 -0.037780
v -0.014065 0.023780 -0.011772
v 0.007760 0.023312 -0.024312
v -0.015925 0.020532 -0.037314
v -0.015925 0.022385 -0.035921
v -0.005245 -0.020331 -0.037314
v -0.034502 0.015421 -0.011774
v -0.011283 -0.024052 -0.011772
v -0.002924 -0.024052 -0.027561
v 0.001718 0.021922 -0.035919
v -0.005710 -0.021726 -0.036385
f 208 224 240 
f 191 192 198 
f 194 196 201 
f 195 196 202 
f 196 194 202 
f 196 195 204 
f 194 201 206 
f 191 193 207 
f 197 191 207 
f 195 202 208 
f 194 200 209 
f 191 197 210 
f 201 196 211 
f 192 191 214 
f 198 192 214 
f 213 200 214 
f 196 204 215 
f 211 196 215 
f 206 198 216 
f 198 214 216 
f 214 200 216 
f 193 191 217 
f 191 198 217 
f 206 193 217 
f 198 206 217 
f 197 199 218 
f 210 197 218 
f 199 219 220 
f 202 194 221 
f 194 208 221 
f 208 202 221 
f 200 194 223 
f 206 216 223 
f 216 200 223 
f 208 209 224 
f 209 200 224 
f 200 213 224 
f 204 195 225 
f 199 204 225 
f 218 199 225 
f 210 218 225 
f 203 224 226 
f 224 213 226 
f 215 190 227 
f 211 215 227 
f 220 205 227 
f 190 220 227 
f 201 211 228 
f 205 222 228 
f 222 212 228 
f 227 205 228 
f 211 227 228 
f 207 193 229 
f 197 207 229 
f 222 197 229 
f 212 222 229 
f 191 210 230 
f 210 203 230 
f 214 191 230 
f 213 214 230 
f 203 226 230 
f 226 213 230 
f 193 206 231 
f 206 201 231 
f 201 228 231 
f 228 212 231 
f 204 190 232 
f 190 215 232 
f 215 204 232 
f 199 197 233 
f 197 219 233 
f 219 199 233 
f 219 197 234 
f 205 220 234 
f 220 219 234 
f 197 222 234 
f 222 205 234 
f 195 203 235 
f 203 210 235 
f 225 195 235 
f 210 225 235 
f 229 193 236 
f 212 229 236 
f 193 231 236 
f 231 212 236 
f 194 206 237 
f 223 194 237 
f 206 223 237 
f 208 194 238 
f 209 208 238 
f 194 209 238 
f 190 204 239 
f 204 199 239 
f 220 190 239 
f 199 220 239 
f 203 195 240 
f 195 208 240 
f 224 203 240 
o convex_6
v 0.021691 -0.018479 -0.026629
v 0.012404 0.024248 -0.011772
v 0.012404 0.024248 -0.012703
v 0.030517 0.019137 -0.021525
v 0.007760 0.015883 -0.035922
v 0.007760 -0.016150 -0.011772
v 0.028657 -0.014761 -0.011772
v 0.030517 -0.014761 -0.033598
v 0.007760 -0.015690 -0.035922
v 0.028193 0.014955 -0.035922
v 0.007760 0.024248 -0.020599
v 0.030517 0.014955 -0.013632
v 0.030517 -0.018011 -0.021525
v 0.007760 0.024248 -0.011772
v 0.024014 0.019137 -0.033135
v 0.028193 -0.014761 -0.035922
v 0.028657 0.014955 -0.011772
v 0.030517 0.014955 -0.033598
v 0.015193 -0.018011 -0.014096
v 0.024014 -0.018011 -0.033135
v 0.010083 -0.018011 -0.026166
v 0.030517 -0.014761 -0.013632
v 0.029122 0.019137 -0.028953
v 0.022620 -0.018011 -0.013167
v 0.017514 0.019137 -0.033596
v 0.028193 0.019137 -0.016419
v 0.017514 -0.018011 -0.033596
v 0.029122 -0.018011 -0.028953
v 0.007760 0.023780 -0.022457
v 0.028193 -0.018011 -0.016419
v 0.010546 -0.018011 -0.019206
v 0.018906 -0.018479 -0.020133
v 0.007760 -0.016150 -0.035454
v 0.030517 0.019137 -0.025237
v 0.026799 0.019137 -0.031738
v 0.013335 -0.016154 -0.035922
v 0.013335 0.016348 -0.035922
v 0.022620 0.019137 -0.033596
v 0.011475 -0.018011 -0.029419
v 0.008225 0.024248 -0.020599
v 0.017049 -0.018479 -0.024774
v 0.007760 0.016348 -0.035454
v 0.023551 -0.018479 -0.022457
v 0.026799 -0.018011 -0.031738
v 0.022620 -0.018011 -0.033596
v 0.030517 -0.018011 -0.025237
v 0.027264 0.019137 -0.015488
v 0.030051 0.019137 -0.019670
f 266 252 288 
f 243 242 244 
f 242 246 247 
f 246 245 249 
f 249 245 250 
f 242 243 251 
f 245 246 251 
f 248 244 252 
f 248 252 253 
f 246 242 254 
f 242 251 254 
f 251 246 254 
f 250 248 256 
f 249 250 256 
f 242 247 257 
f 247 252 257 
f 244 248 258 
f 248 250 258 
f 252 247 262 
f 253 252 262 
f 247 246 264 
f 246 259 264 
f 245 251 269 
f 262 247 270 
f 253 262 270 
f 247 264 270 
f 259 246 271 
f 246 261 271 
f 264 259 272 
f 259 271 272 
f 246 249 273 
f 261 246 273 
f 243 244 274 
f 244 258 274 
f 263 243 274 
f 258 263 274 
f 250 255 275 
f 258 250 275 
f 263 258 275 
f 249 256 276 
f 273 249 276 
f 267 273 276 
f 250 245 277 
f 245 265 277 
f 277 265 278 
f 255 250 278 
f 269 255 278 
f 265 269 278 
f 250 277 278 
f 261 273 279 
f 273 267 279 
f 251 243 280 
f 243 263 280 
f 269 251 280 
f 255 269 280 
f 275 255 280 
f 263 275 280 
f 267 241 281 
f 271 261 281 
f 272 271 281 
f 241 272 281 
f 279 267 281 
f 261 279 281 
f 265 245 282 
f 245 269 282 
f 269 265 282 
f 241 268 283 
f 253 270 283 
f 270 264 283 
f 272 241 283 
f 264 272 283 
f 256 248 284 
f 241 260 284 
f 260 256 284 
f 248 268 284 
f 268 241 284 
f 260 241 285 
f 256 260 285 
f 241 267 285 
f 276 256 285 
f 267 276 285 
f 248 253 286 
f 268 248 286 
f 253 283 286 
f 283 268 286 
f 242 257 287 
f 257 252 287 
f 266 242 287 
f 252 266 287 
f 244 242 288 
f 252 244 288 
f 242 266 288 
