o convex_0
v -0.115622 -0.027495 -0.001698
v -0.099708 -0.019265 0.035078
v -0.099708 -0.020362 0.035078
v -0.124954 -0.013224 0.035078
v -0.122759 -0.038474 0.033431
v -0.102450 -0.038474 0.003793
v -0.100256 -0.013224 0.002695
v -0.125502 -0.013224 0.003793
v -0.125502 -0.035729 0.003793
v -0.099708 -0.035729 0.033431
v -0.103549 -0.013224 0.038373
v -0.111233 -0.038474 0.036725
v -0.099708 -0.035729 0.003793
v -0.125502 -0.035729 0.033431
v -0.121661 -0.014324 0.038373
v -0.113976 -0.038474 -0.000047
v -0.102450 -0.031336 -0.000051
v -0.099708 -0.013224 0.033431
v -0.122759 -0.030785 -0.000051
v -0.120014 -0.013224 0.001597
v -0.122759 -0.038474 0.003793
v -0.102450 -0.038474 0.033431
v -0.120562 -0.035180 0.036725
v -0.102450 -0.031336 0.036725
v -0.110685 -0.025301 -0.001698
v -0.125502 -0.013224 0.033431
v -0.099708 -0.013224 0.003793
v -0.107392 -0.037375 -0.000047
v -0.105195 -0.013224 0.001600
v -0.122209 -0.023657 -0.000051
v -0.120014 -0.035729 -0.000051
v -0.102450 -0.024754 -0.000051
v -0.111233 -0.030785 -0.001698
v -0.122759 -0.030785 0.036725
v -0.105746 -0.036277 0.036725
v -0.114524 -0.017616 -0.000047
v -0.104097 -0.015422 0.038373
v -0.124954 -0.013224 0.002695
v -0.099708 -0.020362 0.002695
v -0.121661 -0.013224 0.038373
v -0.116173 -0.037923 0.036725
v -0.119466 -0.019816 -0.000051
v -0.106294 -0.019265 -0.000047
v -0.124954 -0.023106 0.035078
v -0.104097 -0.034629 -0.000051
v -0.120562 -0.015422 0.038373
f 23 41 46 
f 4 7 8 
f 2 3 10 
f 3 2 11 
f 7 4 11 
f 5 6 12 
f 2 10 13 
f 10 6 13 
f 9 5 14 
f 8 9 14 
f 6 5 16 
f 11 2 18 
f 7 11 18 
f 2 13 18 
f 8 7 20 
f 5 9 21 
f 16 5 21 
f 6 10 22 
f 12 6 22 
f 14 5 23 
f 10 3 24 
f 3 11 24 
f 4 8 26 
f 14 4 26 
f 8 14 26 
f 7 18 27 
f 18 13 27 
f 6 16 28 
f 20 7 29 
f 1 19 30 
f 19 1 31 
f 9 19 31 
f 21 9 31 
f 16 21 31 
f 17 25 32 
f 1 25 33 
f 25 17 33 
f 28 16 33 
f 31 1 33 
f 16 31 33 
f 14 23 34 
f 23 15 34 
f 22 10 35 
f 12 22 35 
f 10 24 35 
f 20 29 36 
f 11 15 37 
f 24 11 37 
f 12 35 37 
f 35 24 37 
f 9 8 38 
f 19 9 38 
f 8 20 38 
f 30 19 38 
f 13 17 39 
f 7 27 39 
f 27 13 39 
f 32 7 39 
f 17 32 39 
f 11 4 40 
f 4 15 40 
f 15 11 40 
f 5 12 41 
f 23 5 41 
f 25 1 42 
f 1 30 42 
f 36 25 42 
f 20 36 42 
f 38 20 42 
f 30 38 42 
f 29 7 43 
f 7 32 43 
f 32 25 43 
f 25 36 43 
f 36 29 43 
f 4 14 44 
f 15 4 44 
f 14 34 44 
f 34 15 44 
f 13 6 45 
f 17 13 45 
f 6 28 45 
f 33 17 45 
f 28 33 45 
f 15 23 46 
f 12 37 46 
f 37 15 46 
f 41 12 46 
o convex_1
v 0.004577 -0.009380 -0.013224
v 0.004032 0.012026 -0.001150
v 0.005136 0.011475 -0.000052
v -0.130444 -0.011575 0.001595
v -0.129341 0.009826 -0.006637
v 0.006225 -0.011026 0.000496
v 0.001294 0.010926 -0.012676
v -0.129886 0.012026 0.001595
v -0.050312 -0.008828 -0.013774
v -0.129341 -0.012124 -0.004991
v -0.063472 0.008728 -0.013774
v -0.008038 0.009279 0.001595
v 0.000735 -0.012124 -0.011029
v -0.129341 -0.008280 -0.007186
v 0.008977 0.002142 -0.013773
v -0.063472 0.012026 -0.011027
v -0.029999 -0.012124 0.001595
v 0.012274 -0.002791 0.000496
v -0.129341 -0.012675 0.001595
v 0.010067 0.007633 -0.009931
v 0.011171 -0.005535 -0.010480
v -0.049208 -0.012124 -0.011027
v -0.128782 0.012026 -0.004444
v 0.002942 0.012026 -0.010480
v -0.004755 -0.009380 0.001595
v 0.011716 0.004888 0.000496
v -0.029454 0.012026 0.001595
v -0.129341 0.008182 -0.007186
v 0.003487 -0.012124 -0.001150
v 0.002942 0.008728 -0.013773
v -0.094751 -0.012675 -0.003895
v 0.012274 0.001595 -0.010480
v -0.130444 0.008730 -0.006090
v -0.062913 0.010926 -0.012676
v -0.064016 0.005986 -0.013774
v 0.002384 -0.008828 -0.013773
v 0.007874 -0.009929 -0.009931
v -0.050312 -0.009929 -0.013225
v -0.128782 -0.010475 -0.006637
v -0.129341 -0.012675 -0.003895
v 0.010067 -0.007733 0.000496
v -0.130444 -0.009380 -0.006090
v 0.007329 0.010377 0.000496
v -0.094751 -0.012675 0.001594
v 0.007329 0.009828 -0.011029
v 0.009522 -0.003891 -0.013224
v -0.130444 0.011475 0.001595
v 0.003487 -0.012124 -0.009383
v 0.008977 0.006535 -0.012676
v 0.002942 -0.009929 -0.013224
v 0.000190 0.011475 -0.012126
v 0.007329 0.010377 -0.009383
v 0.012274 -0.002242 -0.009931
v -0.051960 -0.011026 -0.012127
v 0.012274 0.002690 0.000496
v 0.011716 0.004888 -0.008832
v 0.008977 -0.006635 -0.012676
v 0.011171 -0.006087 -0.008832
v 0.010067 0.007633 0.000496
v -0.062368 0.011475 -0.012127
f 97 53 106 
f 54 50 58 
f 55 57 61 
f 54 48 62 
f 58 50 63 
f 63 50 65 
f 54 62 69 
f 62 48 70 
f 63 52 71 
f 58 63 71 
f 49 48 73 
f 48 54 73 
f 54 58 73 
f 51 57 74 
f 52 63 75 
f 57 53 76 
f 61 57 76 
f 69 51 79 
f 51 74 79 
f 74 60 79 
f 53 57 80 
f 57 51 80 
f 51 69 80 
f 57 55 81 
f 55 60 81 
f 74 57 81 
f 60 74 81 
f 55 61 82 
f 60 55 85 
f 55 84 85 
f 65 50 86 
f 56 68 86 
f 68 59 86 
f 77 65 86 
f 59 77 86 
f 71 52 87 
f 64 71 87 
f 52 83 87 
f 50 79 88 
f 79 60 88 
f 85 56 88 
f 60 85 88 
f 86 50 88 
f 56 86 88 
f 49 73 89 
f 73 58 89 
f 63 65 90 
f 75 63 90 
f 65 77 90 
f 77 75 90 
f 53 70 91 
f 76 53 91 
f 61 78 92 
f 47 82 92 
f 82 61 92 
f 50 54 93 
f 54 69 93 
f 79 50 93 
f 69 79 93 
f 59 47 94 
f 52 75 94 
f 77 59 94 
f 75 77 94 
f 47 83 94 
f 83 52 94 
f 61 76 95 
f 78 61 95 
f 66 78 95 
f 91 66 95 
f 76 91 95 
f 47 59 96 
f 82 47 96 
f 55 82 96 
f 84 55 96 
f 59 84 96 
f 62 70 97 
f 70 53 97 
f 48 49 98 
f 70 48 98 
f 49 89 98 
f 89 66 98 
f 66 91 98 
f 91 70 98 
f 78 64 99 
f 92 78 99 
f 67 92 99 
f 68 56 100 
f 59 68 100 
f 84 59 100 
f 56 85 100 
f 85 84 100 
f 58 71 101 
f 71 64 101 
f 72 58 101 
f 64 78 101 
f 101 78 102 
f 66 72 102 
f 78 66 102 
f 72 101 102 
f 83 47 103 
f 67 83 103 
f 92 67 103 
f 47 92 103 
f 83 67 104 
f 64 87 104 
f 87 83 104 
f 99 64 104 
f 67 99 104 
f 58 72 105 
f 72 66 105 
f 66 89 105 
f 89 58 105 
f 69 62 106 
f 53 80 106 
f 80 69 106 
f 62 97 106 
o convex_2
v -0.124954 -0.013224 0.002695
v -0.092569 0.012026 0.007635
v -0.092569 0.012026 0.001595
v -0.129892 0.012026 0.001595
v -0.130444 0.011475 0.018063
v -0.099710 -0.013224 0.018063
v -0.092569 -0.012122 0.001595
v -0.093670 0.012026 0.018063
v -0.125502 -0.013224 0.018063
v -0.130444 -0.011576 0.001595
v -0.092569 -0.009378 0.010377
v -0.130444 -0.011576 0.010377
v -0.105197 -0.013224 0.001595
v -0.129892 0.012026 0.018063
v -0.093670 0.007083 0.018063
v -0.130444 0.011475 0.001595
v -0.130444 0.007085 0.018063
v -0.129343 -0.012673 0.001595
v -0.092569 -0.012122 0.007635
v -0.099710 -0.013224 0.003792
v -0.092569 0.009278 0.010377
v -0.094768 -0.012673 0.001595
v -0.129343 -0.012673 0.010377
f 118 124 129 
f 108 109 110 
f 109 108 113 
f 110 109 113 
f 108 110 114 
f 111 112 114 
f 112 111 115 
f 107 112 115 
f 110 113 116 
f 113 108 117 
f 111 116 118 
f 112 107 119 
f 116 113 119 
f 110 111 120 
f 114 110 120 
f 111 114 120 
f 114 112 121 
f 112 117 121 
f 117 114 121 
f 111 110 122 
f 110 116 122 
f 116 111 122 
f 115 111 123 
f 111 118 123 
f 118 115 123 
f 107 115 124 
f 118 116 124 
f 119 107 124 
f 116 119 124 
f 113 117 125 
f 117 112 125 
f 112 119 126 
f 108 114 127 
f 117 108 127 
f 114 117 127 
f 119 113 128 
f 125 112 128 
f 113 125 128 
f 112 126 128 
f 126 119 128 
f 115 118 129 
f 124 115 129 
o convex_3
v -0.026150 -0.010476 0.001595
v -0.031094 0.012026 0.002145
v -0.028897 0.011475 0.002145
v -0.073353 -0.012126 0.018063
v -0.092569 -0.012126 0.001595
v -0.092569 0.012026 0.007635
v -0.052499 0.012026 0.018063
v -0.092569 0.012026 0.001595
v -0.053050 -0.012126 0.018063
v -0.076100 0.009830 0.018063
v -0.092569 -0.009379 0.010377
v -0.023954 0.008180 0.001595
v -0.049752 -0.008831 0.018063
v -0.031644 -0.012126 0.001595
v -0.023954 -0.008282 0.002145
v -0.049752 0.008730 0.018063
v -0.092569 0.009279 0.010377
v -0.076651 -0.008282 0.018063
v -0.073904 0.012026 0.018063
v -0.023954 0.008180 0.002145
v -0.092569 -0.012126 0.007635
v -0.031094 0.012026 0.001595
v -0.025056 0.009827 0.002145
v -0.076651 0.008182 0.018063
v -0.027252 -0.011027 0.002145
v -0.050853 0.010927 0.018063
v -0.051955 -0.011576 0.018063
f 154 144 156 
f 132 131 136 
f 131 135 136 
f 130 134 137 
f 135 131 137 
f 134 135 137 
f 133 134 138 
f 136 133 138 
f 133 136 139 
f 135 134 140 
f 130 137 141 
f 136 138 142 
f 134 130 143 
f 138 134 143 
f 130 141 144 
f 142 144 145 
f 136 142 145 
f 135 140 146 
f 146 140 147 
f 133 139 147 
f 140 133 147 
f 136 135 148 
f 139 136 148 
f 135 146 148 
f 146 139 148 
f 144 141 149 
f 145 144 149 
f 134 133 150 
f 133 140 150 
f 140 134 150 
f 131 132 151 
f 137 131 151 
f 141 137 151 
f 141 151 152 
f 132 136 152 
f 149 141 152 
f 151 132 152 
f 139 146 153 
f 146 147 153 
f 147 139 153 
f 143 130 154 
f 138 143 154 
f 130 144 154 
f 136 145 155 
f 145 149 155 
f 152 136 155 
f 149 152 155 
f 142 138 156 
f 144 142 156 
f 138 154 156 
o convex_4
v -0.130444 -0.011576 0.025752
v -0.090926 0.012026 0.040567
v -0.090926 0.011475 0.041665
v -0.129891 0.011475 0.041116
v -0.129891 0.012026 0.018063
v -0.099708 -0.013224 0.018063
v -0.098609 -0.012673 0.043313
v -0.093669 0.012026 0.018063
v -0.129346 -0.012673 0.043313
v -0.090922 -0.012124 0.029042
v -0.125500 -0.013224 0.018063
v -0.129346 0.009278 0.043313
v -0.090922 -0.009381 0.043313
v -0.090926 0.009280 0.043311
v -0.090926 0.009829 0.026298
v -0.104099 -0.013224 0.038372
v -0.090922 -0.008283 0.025752
v -0.130444 0.009278 0.042213
v -0.130444 0.007085 0.018063
v -0.129346 0.012026 0.040567
v -0.130444 -0.011576 0.042213
v -0.090922 -0.012124 0.040567
v -0.093669 0.007085 0.018063
v -0.124955 -0.013224 0.035075
v -0.099708 -0.013224 0.033429
v -0.128796 0.010377 0.042762
v -0.130444 0.011475 0.018063
v -0.090926 0.012026 0.028496
v -0.129346 -0.012673 0.025752
v -0.130444 0.011475 0.039467
v -0.094768 -0.012673 0.040567
f 172 181 187 
f 161 158 164 
f 162 161 164 
f 161 162 167 
f 165 163 168 
f 158 159 169 
f 168 163 169 
f 168 169 170 
f 169 159 170 
f 163 165 172 
f 167 162 172 
f 166 162 173 
f 158 169 173 
f 169 166 173 
f 164 171 173 
f 168 160 174 
f 165 168 174 
f 167 157 175 
f 161 167 175 
f 157 174 175 
f 159 158 176 
f 158 161 176 
f 157 165 177 
f 174 157 177 
f 165 174 177 
f 166 169 178 
f 169 163 178 
f 162 164 179 
f 173 162 179 
f 164 173 179 
f 165 167 180 
f 172 165 180 
f 167 172 180 
f 172 162 181 
f 160 168 182 
f 168 170 182 
f 170 159 182 
f 159 176 182 
f 176 160 182 
f 161 175 183 
f 175 174 183 
f 164 158 184 
f 171 164 184 
f 158 173 184 
f 173 171 184 
f 165 157 185 
f 157 167 185 
f 167 165 185 
f 174 160 186 
f 160 176 186 
f 176 161 186 
f 161 183 186 
f 183 174 186 
f 162 166 187 
f 163 172 187 
f 166 178 187 
f 178 163 187 
f 181 162 187 
o convex_5
v -0.065118 0.007633 0.049900
v -0.071158 0.003792 0.018063
v -0.076649 -0.008282 0.018066
v -0.027248 -0.012126 0.036175
v -0.090922 -0.011576 0.041663
v -0.027248 0.012026 0.036175
v -0.090922 0.012026 0.028497
v -0.027248 -0.009379 0.049900
v -0.050858 0.010927 0.018063
v -0.053052 -0.012126 0.018063
v -0.027248 0.011475 0.048252
v -0.090922 0.012026 0.040566
v -0.090922 -0.012126 0.029042
v -0.027248 -0.008831 0.032888
v -0.073900 0.012026 0.018066
v -0.050303 -0.010479 0.049349
v -0.027248 -0.012126 0.047155
v -0.090922 -0.009379 0.043312
v -0.090922 0.008182 0.025751
v -0.090368 0.008182 0.043861
v -0.027248 0.008730 0.032885
v -0.064570 0.012026 0.047155
v -0.049761 -0.008831 0.018063
v -0.027248 0.009281 0.049897
v -0.073352 -0.012126 0.018066
v -0.090922 -0.008282 0.025751
v -0.051406 -0.008831 0.049900
v -0.050858 -0.012126 0.047155
v -0.052503 0.012026 0.018063
v -0.063473 0.010378 0.049349
v -0.076649 0.008182 0.018066
v -0.049761 0.008730 0.018063
v -0.090922 -0.012126 0.040566
v -0.027248 0.012026 0.047155
v -0.065118 0.005988 0.049900
v -0.090922 0.010378 0.042760
v -0.027802 0.011475 0.034530
v -0.090922 -0.009930 0.026300
v -0.027802 -0.011027 0.033981
v -0.063473 0.009279 0.049900
v -0.027248 -0.011576 0.048252
v -0.050303 -0.009930 0.018063
v -0.090922 0.009830 0.026300
v -0.089271 0.011475 0.042212
v -0.085980 0.006536 0.044958
v -0.050303 -0.011576 0.048252
v -0.076101 -0.009930 0.018066
f 225 213 234 
f 191 193 195 
f 189 196 197 
f 195 193 198 
f 194 192 199 
f 193 194 199 
f 192 194 200 
f 197 191 200 
f 193 191 201 
f 194 193 202 
f 191 195 204 
f 200 191 204 
f 199 192 205 
f 192 203 205 
f 200 194 206 
f 193 201 208 
f 193 199 209 
f 197 196 210 
f 208 201 210 
f 195 198 211 
f 197 200 212 
f 206 190 213 
f 200 206 213 
f 195 188 214 
f 203 195 214 
f 205 203 214 
f 200 204 215 
f 196 189 216 
f 189 202 216 
f 202 193 216 
f 198 209 217 
f 211 198 217 
f 189 190 218 
f 202 189 218 
f 190 206 218 
f 196 208 219 
f 210 196 219 
f 208 210 219 
f 192 200 220 
f 215 192 220 
f 200 215 220 
f 198 193 221 
f 209 198 221 
f 193 209 221 
f 214 188 222 
f 205 214 222 
f 199 205 223 
f 205 207 223 
f 193 208 224 
f 208 196 224 
f 196 216 224 
f 216 193 224 
f 212 200 225 
f 200 213 225 
f 191 197 226 
f 201 191 226 
f 188 195 227 
f 207 188 227 
f 195 211 227 
f 211 217 227 
f 223 207 227 
f 217 223 227 
f 195 203 228 
f 204 195 228 
f 215 204 228 
f 197 210 229 
f 210 201 229 
f 226 197 229 
f 201 226 229 
f 194 202 230 
f 206 194 230 
f 202 218 230 
f 218 206 230 
f 209 199 231 
f 217 209 231 
f 199 223 231 
f 223 217 231 
f 188 207 232 
f 207 205 232 
f 222 188 232 
f 205 222 232 
f 203 192 233 
f 192 215 233 
f 228 203 233 
f 215 228 233 
f 190 189 234 
f 189 197 234 
f 197 212 234 
f 213 190 234 
f 212 225 234 
o convex_6
v -0.026148 -0.008831 0.033433
v -0.016271 0.004340 0.054291
v -0.015721 0.004889 0.053740
v -0.027248 0.012026 0.036181
v -0.015171 0.008730 0.034533
v -0.026698 -0.006637 0.053740
v -0.015171 -0.012126 0.037824
v -0.027248 0.011475 0.048252
v -0.015171 -0.011576 0.048252
v -0.027248 -0.012126 0.047153
v -0.015171 0.012026 0.047153
v -0.027248 0.009279 0.033433
v -0.026148 0.004340 0.054291
v -0.016271 -0.006088 0.054291
v -0.027248 -0.012126 0.036728
v -0.015171 -0.008831 0.034533
v -0.015171 0.012026 0.037275
v -0.027248 -0.010479 0.033984
v -0.015171 0.010378 0.049348
v -0.027248 0.012026 0.047153
v -0.015171 -0.012126 0.047153
v -0.026148 -0.006088 0.054291
v -0.027248 0.010378 0.049348
v -0.027248 -0.011576 0.048252
v -0.025599 0.007633 0.033433
v -0.015721 -0.006637 0.053740
v -0.026698 0.010378 0.033984
f 251 239 261 
f 241 239 243 
f 242 238 244 
f 243 239 245 
f 244 238 246 
f 237 236 248 
f 236 247 248 
f 241 244 249 
f 244 246 249 
f 239 241 250 
f 238 245 251 
f 245 239 251 
f 246 235 252 
f 241 249 252 
f 249 246 252 
f 235 250 252 
f 250 241 252 
f 236 237 253 
f 245 242 253 
f 243 245 253 
f 247 236 253 
f 238 242 254 
f 245 238 254 
f 242 245 254 
f 241 243 255 
f 244 241 255 
f 243 244 255 
f 247 240 256 
f 240 248 256 
f 248 247 256 
f 242 244 257 
f 240 247 257 
f 253 242 257 
f 247 253 257 
f 243 240 258 
f 244 243 258 
f 257 244 258 
f 240 257 258 
f 235 246 259 
f 246 239 259 
f 250 235 259 
f 239 250 259 
f 240 243 260 
f 237 248 260 
f 248 240 260 
f 253 237 260 
f 243 253 260 
f 239 246 261 
f 246 238 261 
f 238 251 261 
o convex_7
v 0.004040 -0.009930 0.049350
v 0.004040 0.012026 0.038374
v 0.004040 0.012026 0.037277
v -0.015171 -0.012126 0.047153
v -0.015171 0.010378 0.049350
v -0.015171 -0.008831 0.034533
v 0.007882 -0.009930 0.036178
v 0.011176 0.003792 0.048253
v -0.015171 0.008730 0.034533
v 0.011724 0.004889 0.036178
v 0.003489 0.009281 0.049899
v -0.015171 -0.009379 0.049899
v 0.011724 -0.004440 0.046606
v 0.003489 -0.012126 0.037826
v -0.015171 0.012026 0.037277
v 0.003489 0.012026 0.046606
v -0.015171 -0.012126 0.037826
v 0.009529 -0.002793 0.049899
v -0.005838 -0.008831 0.034533
v 0.005136 -0.011576 0.046057
v 0.012274 -0.002793 0.036178
v 0.007882 0.009827 0.046606
v -0.008033 0.008730 0.034533
v -0.015171 0.012026 0.047153
v 0.007334 0.010378 0.036178
v -0.015171 0.009279 0.049899
v 0.012274 0.002692 0.046057
v 0.009529 -0.008282 0.046606
v 0.001843 -0.012126 0.047153
v 0.011176 -0.006086 0.036178
v 0.010077 0.007633 0.046057
v 0.006235 -0.011027 0.036178
v 0.002393 0.011475 0.048251
v 0.008978 0.005986 0.049350
v 0.004588 -0.008831 0.049899
v 0.002393 -0.010479 0.049350
v 0.008430 -0.007731 0.048800
v 0.012274 -0.002244 0.046606
v -0.015171 -0.009930 0.035081
v 0.012274 0.002692 0.036178
v -0.008033 0.009830 0.035081
v -0.015171 -0.011576 0.048251
v 0.010077 0.007633 0.036178
f 292 271 304 
f 265 266 267 
f 267 266 270 
f 266 265 273 
f 263 264 276 
f 270 266 276 
f 263 276 277 
f 265 267 278 
f 275 265 278 
f 272 273 279 
f 267 270 280 
f 263 277 283 
f 280 270 284 
f 276 266 285 
f 277 276 285 
f 264 263 286 
f 263 283 286 
f 272 266 287 
f 266 273 287 
f 273 272 287 
f 281 268 289 
f 265 275 290 
f 281 262 290 
f 275 281 290 
f 268 280 291 
f 282 274 291 
f 280 282 291 
f 274 289 291 
f 289 268 291 
f 286 283 292 
f 269 288 292 
f 288 271 292 
f 275 278 293 
f 280 268 293 
f 268 281 293 
f 281 275 293 
f 266 272 294 
f 272 283 294 
f 283 277 294 
f 285 266 294 
f 277 285 294 
f 279 269 295 
f 272 279 295 
f 283 272 295 
f 269 292 295 
f 292 283 295 
f 279 273 296 
f 290 262 297 
f 262 296 297 
f 296 273 297 
f 274 279 298 
f 262 281 298 
f 289 274 298 
f 281 289 298 
f 296 262 298 
f 279 296 298 
f 269 279 299 
f 279 274 299 
f 274 282 299 
f 288 269 299 
f 282 288 299 
f 278 267 300 
f 267 280 300 
f 293 278 300 
f 280 293 300 
f 282 280 301 
f 284 271 301 
f 280 284 301 
f 271 288 301 
f 288 282 301 
f 276 264 302 
f 270 276 302 
f 284 270 302 
f 264 286 302 
f 286 284 302 
f 273 265 303 
f 265 290 303 
f 297 273 303 
f 290 297 303 
f 271 284 304 
f 284 286 304 
f 286 292 304 
