o convex_0
v -0.012000 -0.023675 0.026670
v -0.015893 -0.059988 0.027103
v -0.015893 -0.059988 0.027536
v 0.015670 -0.060852 0.032296
v -0.015028 -0.024975 0.053477
v -0.014595 -0.062583 0.053477
v 0.014805 -0.024543 0.053477
v 0.015238 -0.025838 0.026670
v 0.014805 -0.062583 0.053477
v -0.013730 -0.066045 0.030134
v 0.015238 -0.060420 0.026670
v -0.015457 -0.026702 0.026670
v 0.012210 -0.022808 0.050013
v 0.009615 -0.022808 0.026670
v -0.010702 -0.022808 0.053477
v -0.015457 -0.066045 0.037484
v 0.014805 -0.062583 0.034886
v 0.015238 -0.024975 0.053041
v -0.015457 -0.060420 0.026670
v 0.015670 -0.027565 0.026670
v -0.012000 -0.022808 0.036185
v -0.015028 -0.062147 0.053477
v 0.015238 -0.062151 0.053041
v -0.011135 -0.066045 0.030134
v -0.009405 -0.022808 0.026670
v 0.012210 -0.022808 0.036185
v -0.015028 -0.024543 0.036615
v 0.010912 -0.022808 0.053477
v -0.015457 -0.027133 0.035322
v -0.011135 -0.066045 0.037484
v 0.005292 -0.061283 0.026670
v 0.015670 -0.059988 0.026670
v -0.012000 -0.022808 0.050449
v 0.013507 -0.024111 0.026670
v 0.015238 -0.024975 0.036185
v -0.014162 -0.024543 0.026670
v -0.015893 -0.054368 0.026670
v -0.005515 -0.061283 0.026670
v -0.015028 -0.024543 0.053041
v 0.015670 -0.038378 0.030562
v 0.014805 -0.061283 0.029265
f 17 24 41 
f 5 6 7 
f 7 6 9 
f 1 8 11 
f 1 11 12 
f 8 1 14 
f 5 7 15 
f 13 14 15 
f 3 2 16 
f 9 6 16 
f 2 10 16 
f 7 9 18 
f 10 2 19 
f 12 11 19 
f 11 8 20 
f 15 14 21 
f 5 3 22 
f 6 5 22 
f 3 16 22 
f 16 6 22 
f 17 4 23 
f 9 17 23 
f 4 18 23 
f 18 9 23 
f 16 10 24 
f 17 9 24 
f 14 1 25 
f 1 21 25 
f 21 14 25 
f 13 7 26 
f 14 13 26 
f 7 13 28 
f 15 7 28 
f 13 15 28 
f 9 16 30 
f 24 9 30 
f 16 24 30 
f 19 11 31 
f 24 10 31 
f 11 24 31 
f 4 17 32 
f 17 11 32 
f 11 20 32 
f 20 4 32 
f 15 21 33 
f 21 27 33 
f 8 14 34 
f 14 26 34 
f 34 26 35 
f 7 18 35 
f 20 8 35 
f 18 20 35 
f 26 7 35 
f 8 34 35 
f 1 12 36 
f 21 1 36 
f 12 27 36 
f 27 21 36 
f 2 3 37 
f 3 5 37 
f 19 2 37 
f 12 19 37 
f 5 29 37 
f 29 12 37 
f 10 19 38 
f 31 10 38 
f 19 31 38 
f 5 15 39 
f 27 12 39 
f 29 5 39 
f 12 29 39 
f 15 33 39 
f 33 27 39 
f 18 4 40 
f 4 20 40 
f 20 18 40 
f 11 17 41 
f 24 11 41 
o convex_1
v 0.004426 0.010913 -0.007052
v -0.012001 -0.028425 -0.006188
v -0.011568 -0.028425 -0.007052
v 0.012211 -0.028425 0.002890
v -0.011568 0.004862 0.000295
v 0.008751 -0.028425 -0.009216
v -0.012001 -0.028425 0.002890
v 0.011346 0.005296 0.000295
v -0.008541 0.002698 -0.009216
v 0.010481 0.000971 -0.008350
v -0.002488 0.012214 0.000295
v -0.008541 -0.028425 -0.009216
v 0.012211 -0.028425 -0.005756
v -0.011136 0.004428 -0.006621
v -0.001623 0.008753 -0.009216
v 0.005293 -0.018912 0.002890
v 0.012211 0.002264 -0.004892
v -0.005514 0.010913 -0.006188
v 0.005293 0.011347 0.000295
v -0.007245 -0.019346 0.002890
v 0.007886 0.003995 -0.009216
v -0.012001 0.001834 -0.006188
v 0.009185 0.008319 -0.005756
v 0.012211 -0.007248 0.001592
v -0.008107 0.009616 0.000295
v -0.012001 -0.007248 0.001592
v 0.000968 0.012214 -0.005756
v -0.009837 0.000967 -0.008784
v -0.008972 0.008319 -0.006188
v 0.011346 -0.028425 -0.007486
v 0.011778 0.001834 -0.006621
v -0.005948 0.008753 -0.008350
v 0.008320 0.006589 -0.008350
v 0.000968 0.010483 -0.008350
v -0.009837 -0.028425 -0.008784
v 0.007455 0.010050 0.000295
v 0.005293 0.011347 -0.004892
v 0.002266 0.012214 0.000295
v 0.004859 0.008753 -0.008784
v -0.012001 0.003561 0.000295
v -0.010703 0.006589 -0.004460
v 0.011346 0.004862 -0.005756
v -0.004218 0.011780 -0.004892
v -0.008972 0.005725 -0.008350
v -0.011568 0.001834 -0.007052
v 0.007021 -0.019342 0.002890
v 0.012211 0.002264 -0.001867
v -0.001191 0.011347 -0.007486
v 0.008751 0.001401 -0.009216
v 0.010481 -0.028425 -0.008350
v 0.010047 0.007452 0.000295
v -0.008107 0.009616 -0.004460
v -0.004218 0.011780 0.000295
v -0.012001 0.003561 -0.004460
v 0.007455 0.009186 -0.007052
v -0.009406 0.008319 0.000295
v 0.010912 0.004424 -0.007052
f 83 72 98 
f 43 44 45 
f 45 44 47 
f 43 45 48 
f 47 44 53 
f 50 47 53 
f 45 47 54 
f 47 50 56 
f 48 45 57 
f 45 54 58 
f 48 57 61 
f 57 52 61 
f 47 56 62 
f 44 43 63 
f 43 48 63 
f 45 58 65 
f 48 61 67 
f 63 48 67 
f 50 53 69 
f 54 47 71 
f 58 54 72 
f 71 51 72 
f 54 71 72 
f 56 50 73 
f 70 59 73 
f 51 62 74 
f 53 44 76 
f 44 69 76 
f 69 53 76 
f 60 65 77 
f 42 68 78 
f 77 64 78 
f 60 77 78 
f 52 57 79 
f 68 52 79 
f 78 68 79 
f 60 78 79 
f 62 56 80 
f 74 62 80 
f 56 75 80 
f 75 42 80 
f 63 67 81 
f 67 46 81 
f 70 55 82 
f 49 58 83 
f 58 72 83 
f 52 68 84 
f 50 69 85 
f 55 70 85 
f 73 50 85 
f 70 73 85 
f 44 63 86 
f 63 55 86 
f 69 44 86 
f 85 69 86 
f 55 85 86 
f 57 45 87 
f 45 65 87 
f 65 60 87 
f 79 57 87 
f 60 79 87 
f 58 49 88 
f 49 65 88 
f 65 58 88 
f 68 42 89 
f 56 73 89 
f 73 59 89 
f 75 56 89 
f 42 75 89 
f 59 84 89 
f 84 68 89 
f 51 47 90 
f 47 62 90 
f 62 51 90 
f 47 51 91 
f 71 47 91 
f 51 71 91 
f 65 49 92 
f 64 77 92 
f 77 65 92 
f 49 83 92 
f 83 64 92 
f 59 70 93 
f 70 82 93 
f 66 84 93 
f 84 59 93 
f 61 52 94 
f 67 61 94 
f 66 67 94 
f 52 84 94 
f 84 66 94 
f 55 63 95 
f 81 46 95 
f 63 81 95 
f 82 55 95 
f 46 82 95 
f 64 74 96 
f 42 78 96 
f 78 64 96 
f 80 42 96 
f 74 80 96 
f 67 66 97 
f 46 67 97 
f 82 46 97 
f 66 93 97 
f 93 82 97 
f 72 51 98 
f 51 74 98 
f 74 64 98 
f 64 83 98 
o convex_2
v -0.019783 -0.037943 0.021481
v -0.016326 -0.049182 0.009378
v -0.015893 -0.049182 0.009378
v -0.019783 -0.037943 0.008512
v -0.020216 -0.048749 0.021048
v -0.015893 -0.037943 0.021481
v -0.015893 -0.048749 0.021481
v -0.015893 -0.037943 0.008512
v -0.020216 -0.048749 0.008945
v -0.020216 -0.038374 0.008945
v -0.015893 -0.048749 0.008512
v -0.020216 -0.038374 0.021048
v -0.016758 -0.049182 0.020615
v -0.019783 -0.048316 0.021481
v -0.019783 -0.048316 0.008512
f 109 107 113 
f 102 99 104 
f 101 104 105 
f 104 99 105 
f 104 101 106 
f 102 104 106 
f 99 102 108 
f 102 107 108 
f 107 103 108 
f 101 100 109 
f 106 101 109 
f 102 106 109 
f 100 107 109 
f 103 99 110 
f 99 108 110 
f 108 103 110 
f 100 101 111 
f 101 105 111 
f 105 103 111 
f 107 100 111 
f 103 107 111 
f 99 103 112 
f 105 99 112 
f 103 105 112 
f 107 102 113 
f 102 109 113 
o convex_3
v 0.007453 -0.008542 0.046556
v -0.011999 -0.022806 0.036182
v -0.011999 -0.022806 0.050450
v 0.012211 -0.022806 0.036182
v -0.011999 -0.008109 0.036182
v 0.009616 -0.022806 0.053477
v 0.012211 -0.008109 0.036182
v -0.008973 -0.008109 0.046125
v -0.008108 -0.020212 0.053044
v 0.012211 -0.008109 0.042669
v 0.012211 -0.022806 0.050015
v -0.011999 -0.008109 0.043103
v -0.009836 -0.022373 0.053477
v 0.008318 -0.019348 0.052612
v 0.010048 -0.008109 0.045693
v 0.010913 -0.020644 0.051747
v -0.008108 -0.018483 0.052179
v -0.011134 -0.020212 0.051315
v -0.007674 -0.008542 0.046556
v 0.007453 -0.021509 0.053477
v -0.009836 -0.022806 0.053477
v -0.010703 -0.008542 0.045261
v 0.011778 -0.008542 0.043966
v 0.011778 -0.020644 0.050450
f 123 136 137 
f 116 115 117 
f 115 116 118 
f 117 115 118 
f 116 117 119 
f 117 118 120 
f 120 118 121 
f 117 120 123 
f 120 121 123 
f 119 117 124 
f 117 123 124 
f 118 116 125 
f 121 118 125 
f 121 114 128 
f 123 121 128 
f 114 127 128 
f 128 127 129 
f 119 124 129 
f 127 119 129 
f 126 122 130 
f 121 126 130 
f 127 114 130 
f 122 127 130 
f 125 116 131 
f 116 126 131 
f 114 121 132 
f 130 114 132 
f 121 130 132 
f 126 119 133 
f 122 126 133 
f 127 122 133 
f 119 127 133 
f 116 119 134 
f 126 116 134 
f 119 126 134 
f 121 125 135 
f 126 121 135 
f 125 131 135 
f 131 126 135 
f 123 128 136 
f 128 129 136 
f 136 129 137 
f 124 123 137 
f 129 124 137 
o convex_4
v -0.011134 -0.006808 0.044396
v 0.002698 0.012214 0.040506
v 0.002698 0.012214 0.036182
v 0.012211 -0.008107 0.036182
v -0.012001 -0.008107 0.036182
v 0.008751 -0.008107 0.046127
v -0.007676 0.008321 0.043965
v 0.009616 0.006591 0.043531
v -0.010703 0.006593 0.036182
v -0.001623 0.009184 0.045260
v 0.010912 0.006159 0.036182
v -0.008541 -0.008107 0.046127
v 0.012211 0.001407 0.041803
v -0.012001 0.002266 0.042234
v -0.004216 0.011780 0.040939
v 0.004428 0.008321 0.045260
v 0.011344 -0.008107 0.044396
v -0.008541 0.003997 0.045260
v 0.007455 0.010050 0.041370
v -0.006811 0.010483 0.036182
v 0.009616 0.003131 0.044829
v -0.008972 0.008755 0.041370
v -0.012001 -0.008107 0.043099
v -0.012001 0.003563 0.036182
v 0.001833 0.011349 0.043531
v 0.006158 0.010913 0.036182
v 0.012211 0.002268 0.037913
v 0.012211 -0.008107 0.042666
v -0.002488 0.012214 0.036182
v 0.010912 0.006159 0.040939
v -0.003355 0.011349 0.043099
v -0.010703 0.005725 0.042666
v -0.009837 0.002702 0.044829
v 0.006589 0.009616 0.043531
v 0.011344 0.002268 0.043531
v 0.008317 0.004428 0.045260
v -0.001623 0.012214 0.041803
v 0.007455 -0.006808 0.046127
v -0.007676 -0.006808 0.046127
v 0.011778 0.003997 0.036182
v -0.005946 0.010915 0.041803
v -0.004216 0.008321 0.045260
v -0.011568 0.004862 0.040506
v 0.010047 0.007456 0.036182
v 0.005293 0.011349 0.040939
v -0.009837 -0.007674 0.045694
v -0.011134 0.000541 0.043965
v 0.010481 -0.007672 0.045260
f 154 172 185 
f 140 141 142 
f 142 141 143 
f 140 142 146 
f 141 140 148 
f 142 143 149 
f 143 141 154 
f 140 146 157 
f 157 146 159 
f 142 149 160 
f 151 142 160 
f 146 142 161 
f 142 151 161 
f 147 153 162 
f 148 140 163 
f 150 141 164 
f 141 150 165 
f 154 141 165 
f 139 140 166 
f 140 157 166 
f 157 152 166 
f 156 145 167 
f 150 164 167 
f 147 162 168 
f 144 159 169 
f 155 144 170 
f 144 169 170 
f 153 145 171 
f 145 156 171 
f 162 153 171 
f 145 158 172 
f 165 150 172 
f 154 165 172 
f 167 145 172 
f 150 167 172 
f 145 153 173 
f 158 145 173 
f 143 158 173 
f 162 139 174 
f 139 166 174 
f 166 152 174 
f 152 168 174 
f 168 162 174 
f 149 143 175 
f 153 147 175 
f 143 173 175 
f 173 153 175 
f 155 149 176 
f 149 175 176 
f 175 147 176 
f 141 148 177 
f 164 141 177 
f 148 167 177 
f 167 164 177 
f 152 157 178 
f 159 144 178 
f 157 159 178 
f 144 168 178 
f 168 152 178 
f 144 155 179 
f 168 144 179 
f 147 168 179 
f 176 147 179 
f 155 176 179 
f 159 146 180 
f 146 161 180 
f 161 151 180 
f 151 169 180 
f 169 159 180 
f 148 163 181 
f 163 156 181 
f 167 148 181 
f 156 167 181 
f 140 139 182 
f 139 162 182 
f 163 140 182 
f 156 163 182 
f 171 156 182 
f 162 171 182 
f 149 155 183 
f 138 160 183 
f 160 149 183 
f 155 170 183 
f 183 170 184 
f 160 138 184 
f 151 160 184 
f 169 151 184 
f 170 169 184 
f 138 183 184 
f 143 154 185 
f 158 143 185 
f 172 158 185 
o convex_5
v -0.008541 -0.028431 -0.009216
v -0.015028 -0.049611 0.002458
v -0.014595 -0.050045 0.002458
v -0.006816 -0.028431 0.002890
v 0.000105 -0.042694 -0.005325
v 0.000105 -0.028431 -0.009216
v -0.012000 -0.038807 -0.007919
v -0.012433 -0.028431 0.002890
v -0.006816 -0.049179 0.002890
v 0.000105 -0.028431 -0.004026
v -0.012000 -0.028431 -0.006188
v 0.000105 -0.035781 -0.009216
v -0.013730 -0.045288 -0.003163
v -0.014595 -0.040100 0.002890
v -0.005085 -0.047882 -0.000569
v -0.010704 -0.035350 -0.009216
v 0.000105 -0.042262 -0.004026
v -0.014163 -0.043991 -0.002732
v 0.000105 -0.040532 -0.007052
v -0.008972 -0.043560 -0.004892
v -0.013730 -0.033619 0.002458
v -0.015028 -0.049611 0.002890
v -0.007675 -0.050045 0.002458
v -0.001625 -0.044857 -0.003594
v -0.014163 -0.047451 -0.001002
v -0.009837 -0.028431 -0.008784
v -0.012433 -0.042262 -0.005756
f 204 205 212 
f 186 189 191 
f 189 186 193 
f 189 193 194 
f 191 189 195 
f 190 191 195 
f 189 194 195 
f 193 186 196 
f 186 191 197 
f 191 190 197 
f 194 193 199 
f 192 196 201 
f 186 197 201 
f 197 192 201 
f 190 195 202 
f 195 194 202 
f 196 192 203 
f 192 198 203 
f 199 196 203 
f 187 199 203 
f 197 190 204 
f 192 197 204 
f 204 190 205 
f 193 196 206 
f 196 199 206 
f 199 193 206 
f 187 188 207 
f 199 187 207 
f 194 199 207 
f 188 200 208 
f 200 194 208 
f 207 188 208 
f 194 207 208 
f 194 200 209 
f 190 202 209 
f 202 194 209 
f 205 190 209 
f 205 209 210 
f 188 187 210 
f 200 188 210 
f 187 203 210 
f 203 198 210 
f 198 205 210 
f 209 200 210 
f 196 186 211 
f 201 196 211 
f 186 201 211 
f 198 192 212 
f 192 204 212 
f 205 198 212 
o convex_6
v 0.013506 -0.032322 0.002890
v 0.000105 -0.042694 -0.005325
v 0.000970 -0.043560 -0.004892
v 0.010913 -0.034916 -0.009216
v 0.014805 -0.050045 0.002890
v 0.000105 -0.028431 -0.004026
v 0.007025 -0.049611 0.002890
v 0.007025 -0.028431 0.002890
v 0.012211 -0.028431 -0.005756
v 0.000105 -0.028431 -0.009216
v 0.013506 -0.043560 -0.004460
v 0.000105 -0.037078 -0.008784
v 0.008750 -0.028431 -0.009216
v 0.012211 -0.028431 0.002890
v 0.014805 -0.045288 0.000727
v 0.011778 -0.039668 -0.007486
v 0.000105 -0.042694 -0.004026
v 0.005294 -0.047882 -0.000569
v 0.013939 -0.047451 -0.001002
v 0.014372 -0.038376 0.002458
v 0.000105 -0.035781 -0.009216
v 0.013074 -0.043991 -0.004460
v 0.000105 -0.040532 -0.007052
v 0.011778 -0.037510 -0.008350
v 0.011345 -0.028431 -0.007486
v 0.007887 -0.050045 0.002458
v 0.014372 -0.044857 -0.001867
v 0.013074 -0.040532 -0.005756
v 0.014805 -0.050045 0.002458
f 231 239 241 
f 217 213 219 
f 218 219 220 
f 219 213 220 
f 218 220 221 
f 214 218 222 
f 218 221 222 
f 214 222 224 
f 216 222 225 
f 222 221 225 
f 220 213 226 
f 213 221 226 
f 221 220 226 
f 214 215 229 
f 218 214 229 
f 219 218 229 
f 219 229 230 
f 229 215 230 
f 230 215 231 
f 213 217 232 
f 221 213 232 
f 217 227 232 
f 227 221 232 
f 222 216 233 
f 224 222 233 
f 228 223 234 
f 231 215 234 
f 223 231 234 
f 215 214 235 
f 214 224 235 
f 224 228 235 
f 234 215 235 
f 228 234 235 
f 223 228 236 
f 228 224 236 
f 233 216 236 
f 224 233 236 
f 216 225 237 
f 225 221 237 
f 236 216 237 
f 221 236 237 
f 217 219 238 
f 219 230 238 
f 221 227 239 
f 231 223 239 
f 236 221 240 
f 223 236 240 
f 221 239 240 
f 239 223 240 
f 227 217 241 
f 230 231 241 
f 217 238 241 
f 238 230 241 
f 239 227 241 
o convex_7
v -0.013730 -0.028865 0.005920
v -0.007679 -0.022812 0.026670
v -0.002922 -0.021516 0.021910
v -0.002922 -0.061288 0.026670
v -0.015893 -0.059554 0.026670
v -0.002922 -0.061288 0.008513
v -0.002922 -0.019785 0.002892
v -0.015027 -0.050043 0.002892
v -0.015460 -0.026704 0.026670
v -0.007679 -0.020220 0.002892
v -0.007246 -0.049609 0.002892
v -0.015893 -0.037945 0.008513
v -0.008544 -0.061284 0.011972
v -0.002922 -0.028000 0.026670
v -0.015893 -0.053935 0.010243
v -0.015027 -0.026273 0.014993
v -0.014162 -0.024543 0.026670
v -0.013730 -0.032757 0.002892
v -0.002922 -0.026704 0.002892
v -0.015027 -0.060419 0.026235
v -0.012001 -0.023677 0.006351
v -0.015893 -0.037945 0.021910
v -0.015893 -0.057392 0.017588
v -0.009407 -0.022812 0.026670
v -0.006380 -0.019785 0.003325
v -0.009839 -0.061284 0.021910
v -0.005948 -0.061288 0.009379
v -0.012001 -0.026704 0.002892
v -0.014595 -0.026704 0.011108
v -0.015460 -0.027135 0.017155
v -0.015460 -0.051339 0.005055
v -0.015027 -0.044855 0.002892
v -0.008544 -0.050474 0.002892
v -0.013730 -0.024543 0.015426
v -0.009839 -0.061284 0.014567
v -0.002922 -0.056958 0.007650
v -0.005948 -0.021951 0.024073
v -0.015460 -0.059554 0.023209
v -0.013297 -0.024108 0.026670
v -0.014162 -0.050474 0.002892
v -0.012866 -0.024543 0.007217
v -0.015893 -0.050043 0.026235
v -0.005948 -0.061288 0.026670
f 267 268 284 
f 245 243 246 
f 244 245 247 
f 244 247 248 
f 246 243 250 
f 248 249 251 
f 249 248 252 
f 244 243 255 
f 245 244 255 
f 243 245 255 
f 246 253 256 
f 250 243 258 
f 257 250 258 
f 251 249 259 
f 248 247 260 
f 252 248 260 
f 253 246 263 
f 250 253 263 
f 246 256 264 
f 256 254 264 
f 258 243 265 
f 244 248 266 
f 248 251 266 
f 247 245 268 
f 259 242 269 
f 251 259 269 
f 262 251 269 
f 242 259 270 
f 259 253 270 
f 253 250 271 
f 250 257 271 
f 270 253 271 
f 257 270 271 
f 256 253 272 
f 254 256 272 
f 249 268 272 
f 268 254 272 
f 259 249 273 
f 253 259 273 
f 249 272 273 
f 272 253 273 
f 252 247 274 
f 249 252 274 
f 258 251 275 
f 257 258 275 
f 251 262 275 
f 264 254 276 
f 267 261 276 
f 254 268 276 
f 268 267 276 
f 247 252 277 
f 260 247 277 
f 252 260 277 
f 243 244 278 
f 265 243 278 
f 244 266 278 
f 266 265 278 
f 261 246 279 
f 246 264 279 
f 264 276 279 
f 276 261 279 
f 251 258 280 
f 258 265 280 
f 266 251 280 
f 265 266 280 
f 247 268 281 
f 268 249 281 
f 274 247 281 
f 249 274 281 
f 269 242 282 
f 262 269 282 
f 270 257 282 
f 242 270 282 
f 257 275 282 
f 275 262 282 
f 246 250 283 
f 263 246 283 
f 250 263 283 
f 245 246 284 
f 246 261 284 
f 261 267 284 
f 268 245 284 
o convex_8
v 0.015670 -0.053068 0.008080
v 0.009615 -0.022811 0.026670
v 0.007887 -0.022380 0.025804
v -0.002922 -0.061288 0.026670
v -0.002922 -0.022376 0.007646
v -0.002922 -0.061288 0.008080
v 0.015670 -0.059986 0.026670
v 0.013939 -0.025839 0.009376
v -0.002922 -0.028000 0.026670
v 0.015670 -0.027568 0.026670
v 0.008318 -0.061284 0.011540
v 0.011779 -0.023678 0.007646
v -0.000326 -0.020646 0.021914
v 0.001836 -0.063018 0.019752
v 0.009615 -0.056962 0.007646
v 0.015237 -0.039675 0.007646
v -0.002922 -0.021513 0.021914
v 0.013508 -0.024109 0.026670
v 0.015670 -0.027568 0.020616
v -0.002922 -0.056958 0.007646
v 0.001836 -0.021948 0.007646
v -0.002055 -0.063018 0.016728
v 0.015670 -0.057394 0.017158
v 0.003133 -0.061284 0.008080
v 0.015237 -0.060422 0.026670
v 0.015237 -0.026702 0.015862
v 0.002269 -0.063014 0.017158
v 0.000538 -0.020646 0.021046
v 0.014804 -0.025403 0.018886
v 0.006158 -0.061284 0.026670
v 0.010049 -0.061284 0.015000
v 0.015670 -0.049182 0.007646
v 0.007887 -0.022811 0.026670
v 0.010482 -0.023242 0.007646
v 0.014373 -0.030596 0.007646
v -0.002055 -0.021944 0.007646
v -0.001191 -0.063018 0.020184
v 0.006589 -0.061284 0.009808
v -0.002922 -0.062578 0.018886
v 0.015670 -0.055664 0.012836
v 0.015237 -0.028000 0.014132
v 0.000971 -0.063018 0.015862
v 0.015237 -0.025835 0.026670
v 0.015670 -0.059555 0.023642
v 0.013075 -0.024972 0.007646
f 319 296 329 
f 288 289 290 
f 286 288 291 
f 288 286 293 
f 289 288 293 
f 286 291 294 
f 291 285 294 
f 289 296 299 
f 299 296 300 
f 289 293 301 
f 286 294 302 
f 294 285 303 
f 290 289 304 
f 289 299 304 
f 299 290 304 
f 296 289 305 
f 285 291 307 
f 290 299 308 
f 291 288 309 
f 309 298 311 
f 297 287 312 
f 296 302 313 
f 310 292 313 
f 309 288 314 
f 298 309 314 
f 311 295 315 
f 309 311 315 
f 285 299 316 
f 299 300 316 
f 303 285 316 
f 286 287 317 
f 293 286 317 
f 287 297 317 
f 301 293 317 
f 297 301 317 
f 287 286 318 
f 286 302 318 
f 302 296 318 
f 296 305 318 
f 312 287 318 
f 305 312 318 
f 300 296 319 
f 289 301 320 
f 301 297 320 
f 305 289 320 
f 297 312 320 
f 312 305 320 
f 306 298 321 
f 314 288 321 
f 298 314 321 
f 285 295 322 
f 299 285 322 
f 308 299 322 
f 288 290 323 
f 290 306 323 
f 321 288 323 
f 306 321 323 
f 295 285 324 
f 285 307 324 
f 315 295 324 
f 307 315 324 
f 292 310 325 
f 310 303 325 
f 316 300 325 
f 303 316 325 
f 319 292 325 
f 300 319 325 
f 306 290 326 
f 298 306 326 
f 290 308 326 
f 311 298 326 
f 295 311 326 
f 322 295 326 
f 308 322 326 
f 302 294 327 
f 294 303 327 
f 303 310 327 
f 313 302 327 
f 310 313 327 
f 307 291 328 
f 291 309 328 
f 315 307 328 
f 309 315 328 
f 313 292 329 
f 296 313 329 
f 292 319 329 
o convex_9
v 0.015238 -0.040534 0.007646
v 0.007455 -0.049612 0.002890
v 0.008320 -0.050476 0.002890
v 0.012210 -0.027132 0.002890
v 0.009185 -0.027132 0.007646
v 0.009185 -0.052639 0.007646
v 0.015238 -0.049612 0.002890
v 0.007455 -0.027132 0.002890
v 0.014805 -0.053074 0.007646
v 0.013941 -0.028432 0.007646
v 0.013941 -0.034051 0.002890
v 0.015670 -0.052205 0.007646
v 0.007455 -0.049612 0.003323
v 0.013508 -0.027132 0.006781
v 0.014805 -0.034483 0.007214
v 0.014372 -0.050476 0.002890
v 0.010050 -0.053074 0.007214
v 0.007455 -0.027132 0.003323
v 0.014805 -0.041829 0.002890
f 340 344 348 
f 332 331 333 
f 331 332 335 
f 330 334 335 
f 332 333 336 
f 333 331 337 
f 334 333 337 
f 330 335 338 
f 334 330 339 
f 336 333 340 
f 336 330 341 
f 330 338 341 
f 338 336 341 
f 331 335 342 
f 335 334 342 
f 337 331 342 
f 333 334 343 
f 334 339 343 
f 340 333 343 
f 339 340 343 
f 339 330 344 
f 340 339 344 
f 332 336 345 
f 336 338 345 
f 345 338 346 
f 335 332 346 
f 338 335 346 
f 332 345 346 
f 334 337 347 
f 342 334 347 
f 337 342 347 
f 330 336 348 
f 336 340 348 
f 344 330 348 
o convex_10
v 0.013076 -0.026266 0.006349
v 0.006590 -0.019781 0.003323
v 0.006590 -0.019781 0.002890
v -0.002922 -0.026699 0.002890
v -0.002922 -0.022376 0.007646
v 0.011778 -0.027132 0.002890
v -0.002922 -0.026699 0.007646
v -0.002922 -0.019781 0.002890
v 0.010913 -0.023241 0.007646
v 0.013508 -0.027132 0.007646
v 0.002268 -0.021943 0.007646
v 0.011778 -0.023672 0.005916
v 0.010913 -0.024537 0.002890
v 0.007455 -0.027132 0.003323
v -0.002922 -0.019781 0.003323
f 353 359 363 
f 352 351 354 
f 353 352 355 
f 350 351 356 
f 351 352 356 
f 352 353 356 
f 353 355 357 
f 357 355 358 
f 354 349 358 
f 357 350 359 
f 353 357 359 
f 351 350 360 
f 350 357 360 
f 357 358 360 
f 358 349 360 
f 349 354 361 
f 354 351 361 
f 351 360 361 
f 360 349 361 
f 352 354 362 
f 355 352 362 
f 358 355 362 
f 354 358 362 
f 350 356 363 
f 356 353 363 
f 359 350 363 
