# WaveFront *.obj file (generated by Autodesk ATF)

mtllib tingzi_pillar1.mtl

g Lower Column

v -0.002000 -0.002000 -0.008000
v 0.002000 -0.002000 -0.008000
v 0.002195 -0.002195 -0.007981
v 0.002383 -0.002383 -0.007924
v 0.002556 -0.002556 -0.007831
v 0.002707 -0.002707 -0.007707
v 0.002831 -0.002831 -0.007556
v 0.002924 -0.002924 -0.007383
v 0.002981 -0.002981 -0.007195
v 0.002995 -0.002995 -0.007098
v 0.003000 -0.003000 -0.007000
v -0.003000 -0.003000 -0.007000
v -0.002995 -0.002995 -0.007098
v -0.002981 -0.002981 -0.007195
v -0.002924 -0.002924 -0.007383
v -0.002831 -0.002831 -0.007556
v -0.002707 -0.002707 -0.007707
v -0.002556 -0.002556 -0.007831
v -0.002383 -0.002383 -0.007924
v -0.002195 -0.002195 -0.007981
v 0.002000 0.002000 -0.008000
v 0.002195 0.002195 -0.007981
v 0.002383 0.002383 -0.007924
v 0.002556 0.002556 -0.007831
v 0.002707 0.002707 -0.007707
v 0.002831 0.002831 -0.007556
v 0.002924 0.002924 -0.007383
v 0.002981 0.002981 -0.007195
v 0.002995 0.002995 -0.007098
v 0.003000 0.003000 -0.007000
v -0.002000 0.002000 -0.008000
v -0.002195 0.002195 -0.007981
v -0.002383 0.002383 -0.007924
v -0.002556 0.002556 -0.007831
v -0.002707 0.002707 -0.007707
v -0.002831 0.002831 -0.007556
v -0.002924 0.002924 -0.007383
v -0.002981 0.002981 -0.007195
v -0.002995 0.002995 -0.007098
v -0.003000 0.003000 -0.007000
v -0.003000 -0.003000 0.000000
v -0.003000 0.003000 0.000000
v 0.003000 -0.003000 0.000000
v 0.003000 -0.003000 0.085000
v 0.003000 0.003000 0.085000
v 0.002995 0.002995 0.085098
v 0.002981 0.002981 0.085195
v 0.002924 0.002924 0.085383
v 0.002831 0.002831 0.085556
v 0.002707 0.002707 0.085707
v 0.002556 0.002556 0.085831
v 0.002383 0.002383 0.085924
v 0.002195 0.002195 0.085981
v 0.002000 0.002000 0.086000
v 0.002000 -0.002000 0.086000
v 0.002195 -0.002195 0.085981
v 0.002383 -0.002383 0.085924
v 0.002556 -0.002556 0.085831
v 0.002707 -0.002707 0.085707
v 0.002831 -0.002831 0.085556
v 0.002924 -0.002924 0.085383
v 0.002981 -0.002981 0.085195
v 0.002995 -0.002995 0.085098
v -0.002000 0.002000 0.086000
v -0.003000 0.003000 0.085000
v -0.002995 0.002995 0.085098
v -0.002981 0.002981 0.085195
v -0.002924 0.002924 0.085383
v -0.002831 0.002831 0.085556
v -0.002707 0.002707 0.085707
v -0.002556 0.002556 0.085831
v -0.002383 0.002383 0.085924
v -0.002195 0.002195 0.085981
v -0.002000 -0.002000 0.086000
v -0.003000 -0.003000 0.085000
v -0.002995 -0.002995 0.085098
v -0.002981 -0.002981 0.085195
v -0.002924 -0.002924 0.085383
v -0.002831 -0.002831 0.085556
v -0.002707 -0.002707 0.085707
v -0.002556 -0.002556 0.085831
v -0.002383 -0.002383 0.085924
v -0.002195 -0.002195 0.085981
v 0.003000 0.003000 0.078000
v -0.003000 0.003000 0.078000
v 0.003000 -0.003000 0.078000
v -0.003000 -0.003000 0.078000
v 0.003000 0.003000 0.000000
v 0.005500 -0.005500 0.078000
v 0.005500 0.005500 0.078000
v -0.005500 0.005500 0.078000
v -0.005500 -0.005500 0.078000
v 0.005500 0.005500 0.000000
v 0.005500 -0.005500 0.000000
v -0.005500 -0.005500 0.000000
v -0.005500 0.005500 0.000000
vt -0.200000 -0.078540 0.000000
vt 0.200000 -0.078540 0.000000
vt -0.219509 -0.058905 0.000000
vt 0.219509 -0.058905 0.000000
vt 0.238268 -0.039270 0.000000
vt -0.238268 -0.039270 0.000000
vt 0.255557 -0.019635 0.000000
vt -0.255557 -0.019635 0.000000
vt -0.270711 -0.000000 0.000000
vt 0.270711 -0.000000 0.000000
vt -0.283147 0.019635 0.000000
vt 0.283147 0.019635 0.000000
vt 0.292388 0.039270 0.000000
vt -0.292388 0.039270 0.000000
vt 0.298079 0.058905 0.000000
vt -0.298079 0.058905 0.000000
vt -0.299518 0.068722 0.000000
vt 0.299518 0.068722 0.000000
vt -0.300000 0.078540 0.000000
vt 0.300000 0.078540 0.000000
vt -0.200000 -0.078540 0.000000
vt 0.200000 -0.078540 0.000000
vt -0.219509 -0.058905 0.000000
vt 0.219509 -0.058905 0.000000
vt 0.238268 -0.039270 0.000000
vt -0.238268 -0.039270 0.000000
vt 0.255557 -0.019635 0.000000
vt -0.255557 -0.019635 0.000000
vt -0.270711 -0.000000 0.000000
vt 0.270711 -0.000000 0.000000
vt -0.283147 0.019635 0.000000
vt 0.283147 0.019635 0.000000
vt 0.292388 0.039270 0.000000
vt -0.292388 0.039270 0.000000
vt 0.298079 0.058905 0.000000
vt -0.298079 0.058905 0.000000
vt -0.299518 0.068722 0.000000
vt 0.299518 0.068722 0.000000
vt -0.300000 0.078540 0.000000
vt 0.300000 0.078540 0.000000
vt -0.200000 -0.078540 0.000000
vt 0.200000 -0.078540 0.000000
vt -0.219509 -0.058905 0.000000
vt 0.219509 -0.058905 0.000000
vt 0.238268 -0.039270 0.000000
vt -0.238268 -0.039270 0.000000
vt 0.255557 -0.019635 0.000000
vt -0.255557 -0.019635 0.000000
vt -0.270711 -0.000000 0.000000
vt 0.270711 -0.000000 0.000000
vt -0.283147 0.019635 0.000000
vt 0.283147 0.019635 0.000000
vt 0.292388 0.039270 0.000000
vt -0.292388 0.039270 0.000000
vt 0.298079 0.058905 0.000000
vt -0.298079 0.058905 0.000000
vt -0.299518 0.068722 0.000000
vt 0.299518 0.068722 0.000000
vt -0.300000 0.078540 0.000000
vt 0.300000 0.078540 0.000000
vt 0.300000 0.078540 0.000000
vt -0.300000 0.078540 0.000000
vt 0.299518 0.068722 0.000000
vt -0.299518 0.068722 0.000000
vt 0.298079 0.058905 0.000000
vt -0.298079 0.058905 0.000000
vt -0.292388 0.039270 0.000000
vt 0.292388 0.039270 0.000000
vt -0.283147 0.019635 0.000000
vt 0.283147 0.019635 0.000000
vt 0.270711 -0.000000 0.000000
vt -0.270711 -0.000000 0.000000
vt 0.255557 -0.019635 0.000000
vt -0.255557 -0.019635 0.000000
vt -0.238268 -0.039270 0.000000
vt 0.238268 -0.039270 0.000000
vt -0.219509 -0.058905 0.000000
vt 0.219509 -0.058905 0.000000
vt 0.200000 -0.078540 0.000000
vt -0.200000 -0.078540 0.000000
vt -0.325000 -0.300000 0.000000
vt 0.375000 -0.300000 0.000000
vt -0.325000 0.300000 0.000000
vt 0.375000 0.300000 0.000000
vt 0.325000 0.300000 0.000000
vt -0.375000 0.300000 0.000000
vt 0.325000 -0.300000 0.000000
vt -0.375000 -0.300000 0.000000
vt -0.200000 -0.200000 0.000000
vt 0.200000 -0.200000 0.000000
vt -0.200000 0.200000 0.000000
vt 0.200000 0.200000 0.000000
vt 0.300000 0.078540 0.000000
vt -0.300000 0.078540 0.000000
vt 0.299518 0.068722 0.000000
vt -0.299518 0.068722 0.000000
vt 0.298079 0.058905 0.000000
vt -0.298079 0.058905 0.000000
vt -0.292388 0.039270 0.000000
vt 0.292388 0.039270 0.000000
vt -0.283147 0.019635 0.000000
vt 0.283147 0.019635 0.000000
vt 0.270711 -0.000000 0.000000
vt -0.270711 -0.000000 0.000000
vt 0.255557 -0.019635 0.000000
vt -0.255557 -0.019635 0.000000
vt -0.238268 -0.039270 0.000000
vt 0.238268 -0.039270 0.000000
vt -0.219509 -0.058905 0.000000
vt 0.219509 -0.058905 0.000000
vt 0.200000 -0.078540 0.000000
vt -0.200000 -0.078540 0.000000
vt -0.200000 -0.078540 0.000000
vt 0.200000 -0.078540 0.000000
vt -0.219509 -0.058905 0.000000
vt 0.219509 -0.058905 0.000000
vt 0.238268 -0.039270 0.000000
vt -0.238268 -0.039270 0.000000
vt 0.255557 -0.019635 0.000000
vt -0.255557 -0.019635 0.000000
vt -0.270711 -0.000000 0.000000
vt 0.270711 -0.000000 0.000000
vt -0.283147 0.019635 0.000000
vt 0.283147 0.019635 0.000000
vt 0.292388 0.039270 0.000000
vt -0.292388 0.039270 0.000000
vt 0.298079 0.058905 0.000000
vt -0.298079 0.058905 0.000000
vt -0.299518 0.068722 0.000000
vt 0.299518 0.068722 0.000000
vt -0.300000 0.078540 0.000000
vt 0.300000 0.078540 0.000000
vt -0.200000 -0.078540 0.000000
vt 0.200000 -0.078540 0.000000
vt -0.219509 -0.058905 0.000000
vt 0.219509 -0.058905 0.000000
vt 0.238268 -0.039270 0.000000
vt -0.238268 -0.039270 0.000000
vt 0.255557 -0.019635 0.000000
vt -0.255557 -0.019635 0.000000
vt -0.270711 -0.000000 0.000000
vt 0.270711 -0.000000 0.000000
vt -0.283147 0.019635 0.000000
vt 0.283147 0.019635 0.000000
vt 0.292388 0.039270 0.000000
vt -0.292388 0.039270 0.000000
vt 0.298079 0.058905 0.000000
vt -0.298079 0.058905 0.000000
vt -0.299518 0.068722 0.000000
vt 0.299518 0.068722 0.000000
vt -0.300000 0.078540 0.000000
vt 0.300000 0.078540 0.000000
vt -0.200000 -0.078540 0.000000
vt 0.200000 -0.078540 0.000000
vt -0.219509 -0.058905 0.000000
vt 0.219509 -0.058905 0.000000
vt 0.238268 -0.039270 0.000000
vt -0.238268 -0.039270 0.000000
vt 0.255557 -0.019635 0.000000
vt -0.255557 -0.019635 0.000000
vt -0.270711 -0.000000 0.000000
vt 0.270711 -0.000000 0.000000
vt -0.283147 0.019635 0.000000
vt 0.283147 0.019635 0.000000
vt 0.292388 0.039270 0.000000
vt -0.292388 0.039270 0.000000
vt 0.298079 0.058905 0.000000
vt -0.298079 0.058905 0.000000
vt -0.299518 0.068722 0.000000
vt 0.299518 0.068722 0.000000
vt -0.300000 0.078540 0.000000
vt 0.300000 0.078540 0.000000
vt 0.325000 0.300000 0.000000
vt -0.375000 0.300000 0.000000
vt 0.325000 -0.300000 0.000000
vt -0.375000 -0.300000 0.000000
vt -0.325000 -0.300000 0.000000
vt 0.375000 -0.300000 0.000000
vt -0.325000 0.300000 0.000000
vt 0.375000 0.300000 0.000000
vt 0.200000 0.200000 0.000000
vt -0.200000 0.200000 0.000000
vt 0.200000 -0.200000 0.000000
vt -0.200000 -0.200000 0.000000
vt 0.325000 0.300000 0.000000
vt -0.375000 0.300000 0.000000
vt 0.325000 -0.300000 0.000000
vt -0.375000 -0.300000 0.000000
vt -0.325000 -0.300000 0.000000
vt 0.375000 -0.300000 0.000000
vt -0.325000 0.300000 0.000000
vt 0.375000 0.300000 0.000000
vt 0.325000 0.300000 0.000000
vt -0.375000 0.300000 0.000000
vt 0.325000 -0.300000 0.000000
vt -0.375000 -0.300000 0.000000
vt -0.325000 -0.300000 0.000000
vt 0.375000 -0.300000 0.000000
vt -0.325000 0.300000 0.000000
vt 0.375000 0.300000 0.000000
vt 0.300000 0.300000 0.000000
vt 0.300000 -0.300000 0.000000
vt 0.550000 -0.550000 0.000000
vt -0.300000 -0.300000 0.000000
vt -0.550000 -0.550000 0.000000
vt -0.300000 0.300000 0.000000
vt -0.550000 0.550000 0.000000
vt 0.550000 0.550000 0.000000
vt 0.300000 0.300000 0.000000
vt 0.300000 -0.300000 0.000000
vt 0.550000 -0.550000 0.000000
vt -0.300000 -0.300000 0.000000
vt -0.550000 -0.550000 0.000000
vt -0.300000 0.300000 0.000000
vt -0.550000 0.550000 0.000000
vt 0.550000 0.550000 0.000000
vt -3.900000 -0.550000 0.000000
vt 3.900000 -0.550000 0.000000
vt -3.900000 0.550000 0.000000
vt 3.900000 0.550000 0.000000
vt 3.900000 0.550000 0.000000
vt -3.900000 0.550000 0.000000
vt 3.900000 -0.550000 0.000000
vt -3.900000 -0.550000 0.000000
vt 3.900000 0.550000 0.000000
vt -3.900000 0.550000 0.000000
vt 3.900000 -0.550000 0.000000
vt -3.900000 -0.550000 0.000000
vt -3.900000 -0.550000 0.000000
vt 3.900000 -0.550000 0.000000
vt -3.900000 0.550000 0.000000
vt 3.900000 0.550000 0.000000
vn 0.000000 0.000000 -100.000000
vn 0.000000 0.000000 -100.000000
vn 0.000000 -19.509032 -98.078528
vn 0.000000 -19.509032 -98.078528
vn 0.000000 -38.268343 -92.387953
vn 0.000000 -38.268343 -92.387953
vn 0.000000 -55.557023 -83.146961
vn 0.000000 -55.557023 -83.146961
vn 0.000000 -70.710678 -70.710678
vn 0.000000 -70.710678 -70.710678
vn 0.000000 -83.146961 -55.557023
vn 0.000000 -83.146961 -55.557023
vn 0.000000 -92.387953 -38.268343
vn 0.000000 -92.387953 -38.268343
vn 0.000000 -98.078528 -19.509032
vn 0.000000 -98.078528 -19.509032
vn 0.000000 -99.518473 -9.801714
vn 0.000000 -99.518473 -9.801714
vn 0.000000 -100.000000 0.000000
vn 0.000000 -100.000000 0.000000
vn 0.000000 0.000000 -100.000000
vn 19.509032 0.000000 -98.078528
vn 19.509032 0.000000 -98.078528
vn 38.268343 0.000000 -92.387953
vn 38.268343 0.000000 -92.387953
vn 55.557023 0.000000 -83.146961
vn 55.557023 0.000000 -83.146961
vn 70.710678 0.000000 -70.710678
vn 70.710678 0.000000 -70.710678
vn 83.146961 0.000000 -55.557023
vn 83.146961 0.000000 -55.557023
vn 92.387953 0.000000 -38.268343
vn 92.387953 0.000000 -38.268343
vn 98.078528 0.000000 -19.509032
vn 98.078528 0.000000 -19.509032
vn 99.518473 0.000000 -9.801714
vn 99.518473 0.000000 -9.801714
vn 100.000000 0.000000 0.000000
vn 100.000000 0.000000 0.000000
vn -0.000000 0.000000 -100.000000
vn -0.000000 19.509032 -98.078528
vn -0.000000 19.509032 -98.078528
vn -0.000000 38.268343 -92.387953
vn -0.000000 38.268343 -92.387953
vn -0.000000 55.557023 -83.146961
vn -0.000000 55.557023 -83.146961
vn -0.000000 70.710678 -70.710678
vn -0.000000 70.710678 -70.710678
vn -0.000000 83.146961 -55.557023
vn -0.000000 83.146961 -55.557023
vn -0.000000 92.387953 -38.268343
vn -0.000000 92.387953 -38.268343
vn -0.000000 98.078528 -19.509032
vn -0.000000 98.078528 -19.509032
vn -0.000000 99.518473 -9.801714
vn -0.000000 99.518473 -9.801714
vn -0.000000 100.000000 -0.000000
vn -0.000000 100.000000 -0.000000
vn -100.000000 0.000000 0.000000
vn -100.000000 0.000000 0.000000
vn -99.518473 0.000000 -9.801714
vn -99.518473 0.000000 -9.801714
vn -98.078528 0.000000 -19.509032
vn -98.078528 0.000000 -19.509032
vn -92.387953 0.000000 -38.268343
vn -92.387953 0.000000 -38.268343
vn -83.146961 0.000000 -55.557023
vn -83.146961 0.000000 -55.557023
vn -70.710678 0.000000 -70.710678
vn -70.710678 0.000000 -70.710678
vn -55.557023 0.000000 -83.146961
vn -55.557023 0.000000 -83.146961
vn -38.268343 0.000000 -92.387953
vn -38.268343 0.000000 -92.387953
vn -19.509032 0.000000 -98.078528
vn -19.509032 0.000000 -98.078528
vn -100.000000 0.000000 0.000000
vn -100.000000 0.000000 0.000000
vn 0.000000 -100.000000 0.000000
vn 0.000000 -100.000000 0.000000
vn 100.000000 -0.000000 0.000000
vn 100.000000 -0.000000 0.000000
vn 99.518473 -0.000000 9.801714
vn 99.518473 -0.000000 9.801714
vn 98.078528 -0.000000 19.509032
vn 98.078528 -0.000000 19.509032
vn 92.387953 -0.000000 38.268343
vn 92.387953 -0.000000 38.268343
vn 83.146961 -0.000000 55.557023
vn 83.146961 -0.000000 55.557023
vn 70.710678 -0.000000 70.710678
vn 70.710678 -0.000000 70.710678
vn 55.557023 -0.000000 83.146961
vn 55.557023 -0.000000 83.146961
vn 38.268343 -0.000000 92.387953
vn 38.268343 -0.000000 92.387953
vn 19.509032 -0.000000 98.078528
vn 19.509032 -0.000000 98.078528
vn -0.000000 0.000000 100.000000
vn -0.000000 0.000000 100.000000
vn 0.000000 -0.000000 100.000000
vn 0.000000 19.509032 98.078528
vn 0.000000 19.509032 98.078528
vn 0.000000 38.268343 92.387953
vn 0.000000 38.268343 92.387953
vn 0.000000 55.557023 83.146961
vn 0.000000 55.557023 83.146961
vn 0.000000 70.710678 70.710678
vn 0.000000 70.710678 70.710678
vn 0.000000 83.146961 55.557023
vn 0.000000 83.146961 55.557023
vn 0.000000 92.387953 38.268343
vn 0.000000 92.387953 38.268343
vn 0.000000 98.078528 19.509032
vn 0.000000 98.078528 19.509032
vn 0.000000 99.518473 9.801714
vn 0.000000 99.518473 9.801714
vn 0.000000 100.000000 0.000000
vn 0.000000 100.000000 0.000000
vn 0.000000 0.000000 100.000000
vn -19.509032 0.000000 98.078528
vn -19.509032 0.000000 98.078528
vn -38.268343 0.000000 92.387953
vn -38.268343 0.000000 92.387953
vn -55.557023 0.000000 83.146961
vn -55.557023 0.000000 83.146961
vn -70.710678 0.000000 70.710678
vn -70.710678 0.000000 70.710678
vn -83.146961 0.000000 55.557023
vn -83.146961 0.000000 55.557023
vn -92.387953 0.000000 38.268343
vn -92.387953 0.000000 38.268343
vn -98.078528 0.000000 19.509032
vn -98.078528 0.000000 19.509032
vn -99.518473 0.000000 9.801714
vn -99.518473 0.000000 9.801714
vn -100.000000 0.000000 0.000000
vn -100.000000 0.000000 0.000000
vn 0.000000 -19.509032 98.078528
vn 0.000000 -19.509032 98.078528
vn 0.000000 -38.268343 92.387953
vn 0.000000 -38.268343 92.387953
vn 0.000000 -55.557023 83.146961
vn 0.000000 -55.557023 83.146961
vn 0.000000 -70.710678 70.710678
vn 0.000000 -70.710678 70.710678
vn 0.000000 -83.146961 55.557023
vn 0.000000 -83.146961 55.557023
vn 0.000000 -92.387953 38.268343
vn 0.000000 -92.387953 38.268343
vn 0.000000 -98.078528 19.509032
vn 0.000000 -98.078528 19.509032
vn 0.000000 -99.518473 9.801714
vn 0.000000 -99.518473 9.801714
vn 0.000000 -100.000000 0.000000
vn 0.000000 -100.000000 0.000000
vn -0.000000 100.000000 -0.000000
vn -0.000000 100.000000 -0.000000
vn 100.000000 0.000000 0.000000
vn 100.000000 0.000000 0.000000
vn -100.000000 0.000000 0.000000
vn -100.000000 0.000000 0.000000
vn 0.000000 -100.000000 0.000000
vn 0.000000 -100.000000 0.000000
vn 100.000000 0.000000 0.000000
vn 100.000000 0.000000 0.000000
vn -0.000000 100.000000 -0.000000
vn -0.000000 100.000000 -0.000000
vn 0.000000 0.000000 100.000000
vn 0.000000 0.000000 100.000000
vn 0.000000 0.000000 100.000000
vn 0.000000 0.000000 100.000000
vn 0.000000 0.000000 100.000000
vn 0.000000 0.000000 100.000000
vn 0.000000 0.000000 100.000000
vn 0.000000 0.000000 100.000000
vn 0.000000 0.000000 -100.000000
vn 0.000000 0.000000 -100.000000
vn 0.000000 0.000000 -100.000000
vn 0.000000 0.000000 -100.000000
vn 0.000000 0.000000 -100.000000
vn 0.000000 0.000000 -100.000000
vn 0.000000 0.000000 -100.000000
vn 0.000000 0.000000 -100.000000
vn 0.000000 -100.000000 0.000000
vn 0.000000 -100.000000 0.000000
vn 0.000000 -100.000000 0.000000
vn 0.000000 -100.000000 0.000000
vn -100.000000 0.000000 0.000000
vn -100.000000 0.000000 0.000000
vn -100.000000 0.000000 0.000000
vn -100.000000 0.000000 0.000000
vn -0.000000 100.000000 -0.000000
vn -0.000000 100.000000 -0.000000
vn -0.000000 100.000000 -0.000000
vn -0.000000 100.000000 -0.000000
vn 100.000000 0.000000 0.000000
vn 100.000000 0.000000 0.000000
vn 100.000000 0.000000 0.000000
vn 100.000000 0.000000 0.000000
usemtl 钢_-_缎光
f 1/1/1 2/2/2 20/3/3
f 20/3/3 2/2/2 3/4/4
f 20/3/3 3/4/4 4/5/5
f 20/3/3 4/5/5 19/6/6
f 19/6/6 4/5/5 5/7/7
f 19/6/6 5/7/7 18/8/8
f 18/8/8 5/7/7 17/9/9
f 17/9/9 5/7/7 6/10/10
f 17/9/9 6/10/10 16/11/11
f 16/11/11 6/10/10 7/12/12
f 16/11/11 7/12/12 8/13/13
f 16/11/11 8/13/13 15/14/14
f 15/14/14 8/13/13 9/15/15
f 15/14/14 9/15/15 14/16/16
f 14/16/16 9/15/15 13/17/17
f 13/17/17 9/15/15 10/18/18
f 13/17/17 10/18/18 12/19/19
f 12/19/19 10/18/18 11/20/20
f 2/21/2 21/22/21 3/23/22
f 3/23/22 21/22/21 22/24/23
f 3/23/22 22/24/23 23/25/24
f 3/23/22 23/25/24 4/26/25
f 4/26/25 23/25/24 24/27/26
f 4/26/25 24/27/26 5/28/27
f 5/28/27 24/27/26 6/29/28
f 6/29/28 24/27/26 25/30/29
f 6/29/28 25/30/29 7/31/30
f 7/31/30 25/30/29 26/32/31
f 7/31/30 26/32/31 27/33/32
f 7/31/30 27/33/32 8/34/33
f 8/34/33 27/33/32 28/35/34
f 8/34/33 28/35/34 9/36/35
f 9/36/35 28/35/34 10/37/36
f 10/37/36 28/35/34 29/38/37
f 10/37/36 29/38/37 11/39/38
f 11/39/38 29/38/37 30/40/39
f 21/41/21 31/42/40 22/43/41
f 22/43/41 31/42/40 32/44/42
f 22/43/41 32/44/42 33/45/43
f 22/43/41 33/45/43 23/46/44
f 23/46/44 33/45/43 34/47/45
f 23/46/44 34/47/45 24/48/46
f 24/48/46 34/47/45 25/49/47
f 25/49/47 34/47/45 35/50/48
f 25/49/47 35/50/48 26/51/49
f 26/51/49 35/50/48 36/52/50
f 26/51/49 36/52/50 37/53/51
f 26/51/49 37/53/51 27/54/52
f 27/54/52 37/53/51 38/55/53
f 27/54/52 38/55/53 28/56/54
f 28/56/54 38/55/53 29/57/55
f 29/57/55 38/55/53 39/58/56
f 29/57/55 39/58/56 30/59/57
f 30/59/57 39/58/56 40/60/58
f 12/61/59 40/62/60 13/63/61
f 13/63/61 40/62/60 39/64/62
f 13/63/61 39/64/62 14/65/63
f 14/65/63 39/64/62 38/66/64
f 14/65/63 38/66/64 37/67/65
f 14/65/63 37/67/65 15/68/66
f 15/68/66 37/67/65 36/69/67
f 15/68/66 36/69/67 16/70/68
f 16/70/68 36/69/67 17/71/69
f 17/71/69 36/69/67 35/72/70
f 17/71/69 35/72/70 18/73/71
f 18/73/71 35/72/70 34/74/72
f 18/73/71 34/74/72 33/75/73
f 18/73/71 33/75/73 19/76/74
f 19/76/74 33/75/73 32/77/75
f 19/76/74 32/77/75 20/78/76
f 20/78/76 32/77/75 1/79/1
f 1/79/1 32/77/75 31/80/40
f 12/81/59 41/82/77 40/83/60
f 40/83/60 41/82/77 42/84/78
f 11/85/20 43/86/79 12/87/19
f 12/87/19 43/86/79 41/88/80
f 2/89/2 1/90/1 21/91/21
f 21/91/21 1/90/1 31/92/40
f 44/93/81 45/94/82 63/95/83
f 63/95/83 45/94/82 46/96/84
f 63/95/83 46/96/84 62/97/85
f 62/97/85 46/96/84 47/98/86
f 62/97/85 47/98/86 48/99/87
f 62/97/85 48/99/87 61/100/88
f 61/100/88 48/99/87 49/101/89
f 61/100/88 49/101/89 60/102/90
f 60/102/90 49/101/89 59/103/91
f 59/103/91 49/101/89 50/104/92
f 59/103/91 50/104/92 58/105/93
f 58/105/93 50/104/92 51/106/94
f 58/105/93 51/106/94 52/107/95
f 58/105/93 52/107/95 57/108/96
f 57/108/96 52/107/95 53/109/97
f 57/108/96 53/109/97 56/110/98
f 56/110/98 53/109/97 55/111/99
f 55/111/99 53/109/97 54/112/100
f 64/113/101 54/114/100 73/115/102
f 73/115/102 54/114/100 53/116/103
f 73/115/102 53/116/103 52/117/104
f 73/115/102 52/117/104 72/118/105
f 72/118/105 52/117/104 51/119/106
f 72/118/105 51/119/106 71/120/107
f 71/120/107 51/119/106 70/121/108
f 70/121/108 51/119/106 50/122/109
f 70/121/108 50/122/109 69/123/110
f 69/123/110 50/122/109 49/124/111
f 69/123/110 49/124/111 48/125/112
f 69/123/110 48/125/112 68/126/113
f 68/126/113 48/125/112 47/127/114
f 68/126/113 47/127/114 67/128/115
f 67/128/115 47/127/114 66/129/116
f 66/129/116 47/127/114 46/130/117
f 66/129/116 46/130/117 65/131/118
f 65/131/118 46/130/117 45/132/119
f 74/133/120 64/134/101 83/135/121
f 83/135/121 64/134/101 73/136/122
f 83/135/121 73/136/122 72/137/123
f 83/135/121 72/137/123 82/138/124
f 82/138/124 72/137/123 71/139/125
f 82/138/124 71/139/125 81/140/126
f 81/140/126 71/139/125 80/141/127
f 80/141/127 71/139/125 70/142/128
f 80/141/127 70/142/128 79/143/129
f 79/143/129 70/142/128 69/144/130
f 79/143/129 69/144/130 68/145/131
f 79/143/129 68/145/131 78/146/132
f 78/146/132 68/145/131 67/147/133
f 78/146/132 67/147/133 77/148/134
f 77/148/134 67/147/133 76/149/135
f 76/149/135 67/147/133 66/150/136
f 76/149/135 66/150/136 75/151/137
f 75/151/137 66/150/136 65/152/138
f 55/153/99 74/154/120 56/155/139
f 56/155/139 74/154/120 83/156/140
f 56/155/139 83/156/140 82/157/141
f 56/155/139 82/157/141 57/158/142
f 57/158/142 82/157/141 81/159/143
f 57/158/142 81/159/143 58/160/144
f 58/160/144 81/159/143 59/161/145
f 59/161/145 81/159/143 80/162/146
f 59/161/145 80/162/146 60/163/147
f 60/163/147 80/162/146 79/164/148
f 60/163/147 79/164/148 78/165/149
f 60/163/147 78/165/149 61/166/150
f 61/166/150 78/165/149 77/167/151
f 61/166/150 77/167/151 62/168/152
f 62/168/152 77/167/151 63/169/153
f 63/169/153 77/167/151 76/170/154
f 63/169/153 76/170/154 44/171/155
f 44/171/155 76/170/154 75/172/156
f 45/173/119 84/174/157 65/175/118
f 65/175/118 84/174/157 85/176/158
f 44/177/81 86/178/159 45/179/82
f 45/179/82 86/178/159 84/180/160
f 54/181/100 64/182/101 55/183/99
f 55/183/99 64/182/101 74/184/120
f 65/185/138 85/186/161 75/187/137
f 75/187/137 85/186/161 87/188/162
f 75/189/156 87/190/163 44/191/155
f 44/191/155 87/190/163 86/192/164
f 30/193/39 88/194/165 11/195/38
f 11/195/38 88/194/165 43/196/166
f 40/197/58 42/198/167 30/199/57
f 30/199/57 42/198/167 88/200/168
f 84/201/169 86/202/170 89/203/171
f 89/203/171 86/202/170 87/204/172
f 89/203/171 87/204/172 92/205/173
f 92/205/173 87/204/172 85/206/174
f 92/205/173 85/206/174 91/207/175
f 91/207/175 85/206/174 84/201/169
f 91/207/175 84/201/169 90/208/176
f 90/208/176 84/201/169 89/203/171
f 42/209/177 41/210/178 95/211/179
f 95/211/179 41/210/178 43/212/180
f 95/211/179 43/212/180 94/213/181
f 94/213/181 43/212/180 88/214/182
f 94/213/181 88/214/182 93/215/183
f 93/215/183 88/214/182 42/209/177
f 93/215/183 42/209/177 96/216/184
f 96/216/184 42/209/177 95/211/179
f 92/217/185 95/218/186 89/219/187
f 89/219/187 95/218/186 94/220/188
f 91/221/189 96/222/190 92/223/191
f 92/223/191 96/222/190 95/224/192
f 90/225/193 93/226/194 91/227/195
f 91/227/195 93/226/194 96/228/196
f 89/229/197 94/230/198 90/231/199
f 90/231/199 94/230/198 93/232/200
# 96 vertices
# 232 texture params
# 200 normals
# 188 facets

# 1 groups
